<svg width="16" height="16" viewBox="0 0 16 16" fill="none" xmlns="http://www.w3.org/2000/svg">
<path d="M4.16536 5.33325C4.16536 5.69585 4.27289 6.05031 4.47434 6.3518C4.67579 6.65329 4.96211 6.88827 5.29711 7.02703C5.63211 7.16579 6.00073 7.2021 6.35636 7.13136C6.712 7.06062 7.03866 6.88601 7.29506 6.62961C7.55146 6.37322 7.72607 6.04655 7.7968 5.69092C7.86754 5.33529 7.83124 4.96666 7.69248 4.63167C7.55372 4.29667 7.31873 4.01034 7.01724 3.80889C6.71575 3.60744 6.3613 3.49992 5.9987 3.49992C5.51258 3.50027 5.04647 3.69354 4.70273 4.03728C4.35899 4.38102 4.16572 4.84713 4.16536 5.33325ZM6.83203 5.33325C6.83203 5.49807 6.78316 5.65919 6.69159 5.79623C6.60002 5.93327 6.46987 6.04008 6.3176 6.10315C6.16533 6.16622 5.99777 6.18273 5.83612 6.15057C5.67447 6.11842 5.52599 6.03905 5.40944 5.92251C5.2929 5.80596 5.21353 5.65748 5.18138 5.49583C5.14922 5.33418 5.16573 5.16662 5.2288 5.01435C5.29187 4.86208 5.39868 4.73193 5.53572 4.64036C5.67276 4.54879 5.83388 4.49992 5.9987 4.49992C6.2196 4.50027 6.43136 4.58818 6.58756 4.74439C6.74377 4.90059 6.83168 5.11235 6.83203 5.33325ZM14.6654 6.16659C14.5328 6.16659 14.4056 6.21926 14.3118 6.31303C14.218 6.4068 14.1654 6.53398 14.1654 6.66659V8.17792L13.9047 7.95459C13.5485 7.65949 13.1005 7.49801 12.638 7.49801C12.1755 7.49801 11.7275 7.65949 11.3714 7.95459L8.5987 10.3333C8.42392 10.4724 8.20711 10.5482 7.9837 10.5482C7.76028 10.5482 7.54348 10.4724 7.3687 10.3333L7.14736 10.1433C6.81895 9.87142 6.41194 9.71221 5.98625 9.68905C5.56055 9.66589 5.13867 9.78 4.7827 10.0146L2.03136 11.8613C1.88706 11.2516 1.82009 10.6263 1.83203 9.99992V5.99992C1.83203 2.92392 2.9227 1.83325 5.9987 1.83325H8.66536C8.79797 1.83325 8.92515 1.78057 9.01892 1.68681C9.11269 1.59304 9.16537 1.46586 9.16537 1.33325C9.16537 1.20064 9.11269 1.07347 9.01892 0.979699C8.92515 0.88593 8.79797 0.833252 8.66536 0.833252H5.9987C2.37736 0.833252 0.832031 2.37792 0.832031 5.99992V9.99992C0.832031 13.6219 2.37736 15.1666 5.9987 15.1666H9.9987C13.62 15.1666 15.1654 13.6219 15.1654 9.99992V6.66659C15.1654 6.53398 15.1127 6.4068 15.0189 6.31303C14.9252 6.21926 14.798 6.16659 14.6654 6.16659ZM14.1654 9.99992C14.1654 13.0759 13.0747 14.1666 9.9987 14.1666H5.9987C4.1607 14.1666 3.03603 13.7726 2.4247 12.8033L5.33936 10.8473C5.51415 10.7354 5.71938 10.6808 5.92663 10.6908C6.13388 10.7008 6.33287 10.7751 6.49603 10.9033L6.71736 11.0939C7.07324 11.3896 7.52134 11.5515 7.98403 11.5515C8.44672 11.5515 8.89483 11.3896 9.2507 11.0939L12.0254 8.71325C12.2003 8.57471 12.4169 8.49932 12.64 8.49932C12.8632 8.49932 13.0798 8.57471 13.2547 8.71325L14.1667 9.49592L14.1654 9.99992ZM9.9987 3.33325C9.9987 3.20064 10.0514 3.07347 10.1451 2.9797C10.2389 2.88593 10.3661 2.83325 10.4987 2.83325H11.832V1.49992C11.832 1.36731 11.8847 1.24013 11.9785 1.14637C12.0722 1.0526 12.1994 0.999919 12.332 0.999919C12.4646 0.999919 12.5918 1.0526 12.6856 1.14637C12.7794 1.24013 12.832 1.36731 12.832 1.49992V2.83325H14.1654C14.298 2.83325 14.4252 2.88593 14.5189 2.9797C14.6127 3.07347 14.6654 3.20064 14.6654 3.33325C14.6654 3.46586 14.6127 3.59304 14.5189 3.68681C14.4252 3.78057 14.298 3.83325 14.1654 3.83325H12.832V5.16659C12.832 5.29919 12.7794 5.42637 12.6856 5.52014C12.5918 5.61391 12.4646 5.66659 12.332 5.66659C12.1994 5.66659 12.0722 5.61391 11.9785 5.52014C11.8847 5.42637 11.832 5.29919 11.832 5.16659V3.83325H10.4987C10.3661 3.83325 10.2389 3.78057 10.1451 3.68681C10.0514 3.59304 9.9987 3.46586 9.9987 3.33325Z" fill="#AEAEAE"/>
</svg>
