<svg width="20" height="20" viewBox="0 0 20 20" fill="none" xmlns="http://www.w3.org/2000/svg">
<g clip-path="url(#clip0_1428_2854)">
<path d="M20 10C20 15.525 15.5188 20 10 20C4.475 20 0 15.525 0 10C0 4.48125 4.475 0 10 0C15.5188 0 20 4.48125 20 10Z" fill="#FF98B2"/>
<path d="M20 9.9999C20 15.5249 15.5188 19.9999 10 19.9999C6.85002 19.9999 4.03752 18.5437 2.21252 16.2687C3.92502 17.6437 6.09377 18.4624 8.46252 18.4624C13.9813 18.4624 18.4625 13.9874 18.4625 8.4624C18.4625 6.09365 17.6438 3.9249 16.2625 2.2124C18.5438 4.04365 20 6.8499 20 9.9999Z" fill="#FE9FB7"/>
<path d="M7.94814 8.02922C7.88568 8.02923 7.82413 8.01425 7.76867 7.98554C7.7132 7.95683 7.66544 7.91523 7.62939 7.86422C6.93751 6.88797 5.99314 6.26547 4.65626 5.90672C4.44814 5.85047 4.32439 5.6361 4.38064 5.42797C4.43689 5.21922 4.65001 5.09735 4.85939 5.15235C6.15126 5.49985 7.15751 6.09547 7.91751 6.96797L8.46564 6.12047C8.58189 5.93922 8.82501 5.88735 9.00501 6.00422C9.18626 6.12172 9.23814 6.36297 9.12126 6.54422L8.27626 7.85047C8.24164 7.90405 8.19443 7.94834 8.13877 7.9795C8.0831 8.01065 8.02066 8.02772 7.95689 8.02922H7.94814Z" fill="#3E4347"/>
<path d="M6.33626 11.5817C7.20818 11.5817 7.91501 10.7781 7.91501 9.7867C7.91501 8.79535 7.20818 7.9917 6.33626 7.9917C5.46434 7.9917 4.75751 8.79535 4.75751 9.7867C4.75751 10.7781 5.46434 11.5817 6.33626 11.5817Z" fill="#3E4347"/>
<path d="M12.0519 8.02938H12.0431C11.9137 8.02688 11.7944 7.95938 11.7231 7.85063L10.8787 6.54438C10.7619 6.36313 10.8137 6.12125 10.995 6.00438C11.1756 5.88688 11.4181 5.93938 11.535 6.12063L12.0819 6.9675C12.8425 6.09563 13.8481 5.49938 15.1406 5.1525C15.35 5.09563 15.5631 5.21938 15.6194 5.42813C15.6756 5.63625 15.5519 5.85063 15.3437 5.90688C14.0069 6.26625 13.0625 6.88813 12.37 7.865C12.2975 7.96813 12.1781 8.02938 12.0519 8.02938Z" fill="#3E4347"/>
<path d="M13.6638 11.5817C14.5357 11.5817 15.2425 10.7781 15.2425 9.7867C15.2425 8.79535 14.5357 7.9917 13.6638 7.9917C12.7919 7.9917 12.085 8.79535 12.085 9.7867C12.085 10.7781 12.7919 11.5817 13.6638 11.5817Z" fill="#3E4347"/>
<path d="M12.8756 15.6806C12.1387 14.91 11.085 14.4688 9.98311 14.4688C8.88124 14.4688 7.82749 14.9106 7.09061 15.6806C6.85124 15.9306 6.45499 15.9381 6.20686 15.7C5.95749 15.4613 5.94874 15.0656 6.18749 14.8162C7.15936 13.8006 8.54249 13.2188 9.98311 13.2188C11.4244 13.2188 12.8075 13.8012 13.7787 14.8162C14.0175 15.0656 14.0087 15.4613 13.7594 15.7C13.5112 15.9381 13.115 15.9306 12.8756 15.6806Z" fill="#3E4347"/>
<path d="M14.5419 9.54018C14.4069 9.59456 14.235 9.48143 14.1537 9.28643C14.0775 9.09081 14.1206 8.88956 14.2556 8.83518C14.3956 8.78018 14.5681 8.89331 14.6437 9.08893C14.725 9.28331 14.6769 9.48581 14.5419 9.54018ZM7.14936 9.54018C7.01436 9.59456 6.84249 9.48143 6.76124 9.28643C6.68561 9.09081 6.72811 8.88956 6.86374 8.83518C7.00374 8.78018 7.17624 8.89331 7.25186 9.08893C7.33249 9.28331 7.28436 9.48581 7.14936 9.54018Z" fill="#5A5F63"/>
</g>
<defs>
<clipPath id="clip0_1428_2854">
<rect width="20" height="20" fill="white"/>
</clipPath>
</defs>
</svg>
