<svg width="20" height="20" viewBox="0 0 20 20" fill="none" xmlns="http://www.w3.org/2000/svg">
<g clip-path="url(#clip0_1266_3524)">
<path d="M9.99993 20C8.02211 20 6.08871 19.4136 4.4442 18.3148C2.7997 17.2159 1.51797 15.6541 0.76109 13.8269C0.0042094 11.9996 -0.193824 9.98894 0.192032 8.04912C0.577889 6.1093 1.53031 4.32747 2.92884 2.92894C4.80421 1.05357 7.34776 0 9.99993 0C12.6521 0 15.1957 1.05357 17.071 2.92894C18.9464 4.80431 20 7.34786 20 10C20 12.6522 18.9464 15.1958 17.071 17.0711C16.1446 18.0026 15.0426 18.7411 13.8289 19.2438C12.6151 19.7466 11.3137 20.0036 9.99993 20Z" fill="#F7CAB5"/>
<path d="M12.8124 9.375C13.3301 9.375 13.7499 8.95527 13.7499 8.4375C13.7499 7.91973 13.3301 7.5 12.8124 7.5C12.2946 7.5 11.8749 7.91973 11.8749 8.4375C11.8749 8.95527 12.2946 9.375 12.8124 9.375Z" fill="#616161"/>
<path d="M17.071 2.929C16.908 2.76598 16.7403 2.60947 16.568 2.45947C17.2303 4.25486 17.3648 6.20234 16.9556 8.07173C16.5463 9.94112 15.6104 11.6543 14.2585 13.0087C12.4673 14.7999 10.0631 15.8446 7.5315 15.9317C4.99987 16.0189 2.52951 15.142 0.619385 13.4782C1.13905 14.8798 1.96625 16.1471 3.04016 17.1869C4.11408 18.2267 5.40739 19.0125 6.82501 19.4867C8.24262 19.9608 9.74849 20.1112 11.2319 19.9268C12.7153 19.7424 14.1385 19.2278 15.3968 18.4209C16.6551 17.614 17.7166 16.5354 18.5032 15.2642C19.2898 13.9931 19.7814 12.5619 19.9421 11.0757C20.1027 9.58954 19.9281 8.08628 19.4313 6.67645C18.9344 5.26663 18.1279 3.98609 17.071 2.929Z" fill="#FFC3A8"/>
<path d="M2.18738 11.25C2.70514 11.25 3.12488 10.8303 3.12488 10.3125C3.12488 9.79473 2.70514 9.375 2.18738 9.375C1.66961 9.375 1.24988 9.79473 1.24988 10.3125C1.24988 10.8303 1.66961 11.25 2.18738 11.25Z" fill="#FFE4C0"/>
<path d="M7.18738 9.375C7.70514 9.375 8.12488 8.95527 8.12488 8.4375C8.12488 7.91973 7.70514 7.5 7.18738 7.5C6.66961 7.5 6.24988 7.91973 6.24988 8.4375C6.24988 8.95527 6.66961 9.375 7.18738 9.375Z" fill="#616161"/>
<path d="M6.87488 8.4375C7.04747 8.4375 7.18738 8.29759 7.18738 8.125C7.18738 7.95241 7.04747 7.8125 6.87488 7.8125C6.70229 7.8125 6.56238 7.95241 6.56238 8.125C6.56238 8.29759 6.70229 8.4375 6.87488 8.4375Z" fill="white"/>
<path d="M12.4999 8.4375C12.6725 8.4375 12.8124 8.29759 12.8124 8.125C12.8124 7.95241 12.6725 7.8125 12.4999 7.8125C12.3273 7.8125 12.1874 7.95241 12.1874 8.125C12.1874 8.29759 12.3273 8.4375 12.4999 8.4375Z" fill="white"/>
<path d="M15.3124 7.18752C13.8643 7.18752 12.5138 7.07815 11.9036 5.756C11.8689 5.68074 11.8655 5.59477 11.8941 5.51699C11.9228 5.43922 11.9811 5.37601 12.0564 5.34127C12.1317 5.30653 12.2176 5.30311 12.2954 5.33176C12.3732 5.36042 12.4364 5.41879 12.4711 5.49404C12.888 6.39729 13.755 6.56252 15.3124 6.56252C15.3953 6.56252 15.4747 6.59544 15.5333 6.65405C15.592 6.71265 15.6249 6.79214 15.6249 6.87502C15.6249 6.9579 15.592 7.03739 15.5333 7.09599C15.4747 7.1546 15.3953 7.18752 15.3124 7.18752ZM4.68738 7.18752C4.6045 7.18752 4.52501 7.1546 4.46641 7.09599C4.4078 7.03739 4.37488 6.9579 4.37488 6.87502C4.37488 6.79214 4.4078 6.71265 4.46641 6.65405C4.52501 6.59544 4.6045 6.56252 4.68738 6.56252C6.24472 6.56252 7.11175 6.39729 7.52863 5.49404C7.56336 5.41879 7.62657 5.36042 7.70435 5.33176C7.78213 5.30311 7.8681 5.30653 7.94335 5.34127C8.01861 5.37601 8.07698 5.43922 8.10563 5.51699C8.13428 5.59477 8.13087 5.68074 8.09613 5.756C7.48593 7.07815 6.1355 7.18752 4.68738 7.18752Z" fill="#616161"/>
<path d="M17.1874 13.8671C16.4417 13.8662 15.7268 13.5696 15.1996 13.0424C14.6723 12.5151 14.3757 11.8002 14.3749 11.0546C14.3749 10.4153 14.8151 9.47674 15.6835 8.26494C16.311 7.389 16.9284 6.69576 16.9544 6.6667L17.1875 6.40576L17.4206 6.6667C17.4466 6.69576 18.064 7.389 18.6915 8.26494C19.5596 9.47674 19.9999 10.4153 19.9999 11.0546C19.999 11.8002 19.7025 12.5151 19.1752 13.0424C18.6479 13.5696 17.933 13.8662 17.1874 13.8671Z" fill="#2196F3"/>
<path d="M13.7499 15.3125H6.24988C6.00133 15.3122 5.76304 15.2133 5.58729 15.0376C5.41153 14.8618 5.31267 14.6236 5.31238 14.375C5.31322 13.6293 5.6098 12.9145 6.13706 12.3872C6.66433 11.8599 7.37921 11.5633 8.12488 11.5625H11.8749C12.6205 11.5633 13.3354 11.8599 13.8627 12.3872C14.39 12.9145 14.6865 13.6293 14.6874 14.375C14.6871 14.6236 14.5882 14.8618 14.4125 15.0376C14.2367 15.2133 13.9984 15.3122 13.7499 15.3125Z" fill="#E27484"/>
<path d="M7.80964 7.73682C7.81164 7.76186 7.81296 7.78713 7.81296 7.81271C7.81309 7.99337 7.76098 8.1702 7.66291 8.32192C7.56485 8.47364 7.42501 8.59377 7.26024 8.66783C7.09547 8.7419 6.9128 8.76675 6.73423 8.73939C6.55566 8.71203 6.38881 8.63362 6.25378 8.51361C6.26602 8.66655 6.3156 8.81414 6.39818 8.94344C6.48076 9.07274 6.59381 9.1798 6.72741 9.25523C6.86101 9.33065 7.01108 9.37213 7.16445 9.37604C7.31782 9.37994 7.46981 9.34614 7.60707 9.27761C7.74434 9.20908 7.86268 9.1079 7.95173 8.98297C8.04078 8.85803 8.0978 8.71315 8.1178 8.56104C8.1378 8.40893 8.12016 8.25423 8.06643 8.11053C8.0127 7.96682 7.92453 7.8385 7.80964 7.73682ZM13.4346 7.73682C13.4366 7.76186 13.438 7.78713 13.438 7.81271C13.4381 7.99337 13.386 8.1702 13.2879 8.32192C13.1898 8.47364 13.05 8.59377 12.8852 8.66783C12.7205 8.7419 12.5378 8.76675 12.3592 8.73939C12.1807 8.71203 12.0138 8.63362 11.8788 8.51361C11.891 8.66655 11.9406 8.81414 12.0232 8.94344C12.1058 9.07274 12.2188 9.1798 12.3524 9.25523C12.486 9.33065 12.6361 9.37213 12.7895 9.37604C12.9428 9.37994 13.0948 9.34614 13.2321 9.27761C13.3693 9.20908 13.4877 9.1079 13.5767 8.98297C13.6658 8.85803 13.7228 8.71315 13.7428 8.56104C13.7628 8.40893 13.7452 8.25423 13.6914 8.11053C13.6377 7.96682 13.5495 7.8385 13.4346 7.73682Z" fill="#424242"/>
<path d="M6.26765 15.3125C6.34534 14.6254 6.6731 13.9908 7.18849 13.5298C7.70388 13.0688 8.37087 12.8134 9.06238 12.8125H12.8124C13.4236 12.8119 14.0182 13.0115 14.5053 13.3808C14.3029 12.8468 13.9429 12.3869 13.4731 12.0622C13.0034 11.7375 12.446 11.5632 11.8749 11.5625H8.12488C7.37921 11.5633 6.66433 11.8599 6.13706 12.3872C5.6098 12.9145 5.31322 13.6293 5.31238 14.375C5.31267 14.6236 5.41153 14.8618 5.58729 15.0376C5.76304 15.2133 6.00133 15.3122 6.24988 15.3125H6.26765Z" fill="#D8667C"/>
<path d="M19.1772 8.98486C18.8926 9.91204 18.3181 10.7235 17.5382 11.3C16.7582 11.8765 15.8139 12.1876 14.844 12.1877C14.7661 12.1877 14.6886 12.1857 14.6117 12.1818C14.8704 12.7737 15.325 13.2584 15.8991 13.5545C16.4732 13.8506 17.1317 13.9401 17.7639 13.8079C18.3962 13.6756 18.9636 13.3298 19.3709 12.8284C19.7782 12.3271 20.0004 11.7008 20.0003 11.0549C20.0003 10.5485 19.7237 9.854 19.1772 8.98486Z" fill="#1E88E5"/>
<path d="M17.0311 10C17.4626 10 17.8124 9.65022 17.8124 9.21875C17.8124 8.78728 17.4626 8.4375 17.0311 8.4375C16.5997 8.4375 16.2499 8.78728 16.2499 9.21875C16.2499 9.65022 16.5997 10 17.0311 10Z" fill="#90CAF9"/>
<path d="M16.4061 11.25C16.665 11.25 16.8749 11.0401 16.8749 10.7812C16.8749 10.5224 16.665 10.3125 16.4061 10.3125C16.1472 10.3125 15.9374 10.5224 15.9374 10.7812C15.9374 11.0401 16.1472 11.25 16.4061 11.25Z" fill="#90CAF9"/>
</g>
<defs>
<clipPath id="clip0_1266_3524">
<rect width="20" height="20" fill="white"/>
</clipPath>
</defs>
</svg>
