<svg width="15" height="18" viewBox="0 0 15 18" fill="none" xmlns="http://www.w3.org/2000/svg">
<path d="M10.8008 0C10.8427 0 10.8846 0 10.9289 0C11.0316 1.2694 10.5471 2.21789 9.95825 2.90476C9.38046 3.58688 8.58926 4.24845 7.30959 4.14807C7.22422 2.89685 7.70953 2.01871 8.2976 1.33342C8.84298 0.69477 9.84285 0.126466 10.8008 0Z" fill="#E7E7E7"/>
<path d="M14.6747 13.2125C14.6747 13.2251 14.6747 13.2362 14.6747 13.248C14.3151 14.3372 13.8021 15.2707 13.1761 16.137C12.6047 16.9234 11.9044 17.9818 10.6539 17.9818C9.57344 17.9818 8.85575 17.287 7.74839 17.2681C6.577 17.2491 5.93282 17.849 4.86181 18C4.7393 18 4.61678 18 4.49664 18C3.71018 17.8862 3.07548 17.2633 2.61309 16.7021C1.24964 15.0438 0.196022 12.9018 0 10.1607C0 9.89196 0 9.62401 0 9.35527C0.082993 7.39347 1.03623 5.79843 2.30325 5.02541C2.97194 4.61439 3.89119 4.26424 4.91477 4.42074C5.35344 4.48872 5.80161 4.6389 6.19444 4.78749C6.56672 4.93056 7.03227 5.18428 7.47332 5.17084C7.7721 5.16215 8.06929 5.00644 8.37044 4.89657C9.25254 4.57804 10.1172 4.21287 11.257 4.38438C12.6268 4.59147 13.599 5.20009 14.1997 6.13909C13.041 6.87655 12.1249 7.98786 12.2814 9.88564C12.4205 11.6095 13.4227 12.6181 14.6747 13.2125Z" fill="#E7E7E7"/>
</svg>
