<svg width="16" height="16" viewBox="0 0 16 16" fill="none" xmlns="http://www.w3.org/2000/svg">
<g clip-path="url(#clip0_1274_2123)">
<path d="M8.0005 15.5003C12.143 15.5003 15.5011 12.1421 15.5011 7.99963C15.5011 3.85715 12.143 0.499023 8.0005 0.499023C3.85802 0.499023 0.499878 3.85715 0.499878 7.99963C0.499878 12.1421 3.85802 15.5003 8.0005 15.5003Z" fill="#FFC861"/>
<path d="M14.6166 7.22388C15.3914 12.5767 9.00675 17.0055 4.28508 13.5065C3.92035 13.292 3.46963 13.6076 3.53672 14.0262C4.74015 14.9168 6.18255 15.4268 7.67829 15.4907C9.17403 15.5547 10.6547 15.1695 11.9297 14.3848C13.2047 13.6002 14.2157 12.4519 14.8327 11.0878C15.4496 9.72374 15.6442 8.20625 15.3914 6.73064C15.3101 6.67908 15.2157 6.65175 15.1193 6.65186C15.023 6.65196 14.9287 6.67951 14.8474 6.73124C14.7662 6.78298 14.7013 6.85678 14.6604 6.94402C14.6196 7.03126 14.6044 7.12832 14.6166 7.22388Z" fill="#FFAB61"/>
<path d="M7.87385 0.249481C7.2386 0.260291 6.60708 0.349147 5.9935 0.514052C5.71948 0.587754 5.81208 1.07912 6.1239 0.996912C7.9318 0.511346 9.85747 0.744332 11.4974 1.64708C13.1373 2.54982 14.3642 4.05226 14.9209 5.83953C15.4795 7.62621 15.3251 9.55973 14.4901 11.2351C13.655 12.9105 12.2041 14.1978 10.4411 14.8274C8.67856 15.4582 6.74026 15.3825 5.03226 14.6161C3.32426 13.8497 1.97906 12.4522 1.27845 10.7161C0.575848 8.98119 0.57204 7.04165 1.26782 5.30395C1.96361 3.56626 3.30497 2.1653 5.0108 1.39471C5.31601 1.25675 5.10907 0.79941 4.80482 0.937365C1.01955 2.65047 -0.74175 7.05089 0.814502 10.9023C2.37075 14.7537 6.69651 16.6964 10.6093 15.298C12.4928 14.6236 14.0428 13.2473 14.9352 11.4568C15.8277 9.66632 15.9935 7.60014 15.3981 5.69021C14.8986 4.09303 13.8961 2.70022 12.54 1.71966C11.1839 0.739093 9.5471 0.22336 7.87385 0.249481Z" fill="#FFC861"/>
<path d="M5.71852 7.57172C5.54878 7.57172 5.38597 7.6391 5.26585 7.75904C5.14574 7.87898 5.07813 8.04168 5.07788 8.21142C5.07788 8.38133 5.14538 8.54429 5.26552 8.66444C5.38566 8.78458 5.54861 8.85207 5.71852 8.85207C5.88843 8.85207 6.05138 8.78458 6.17153 8.66444C6.29167 8.54429 6.35917 8.38133 6.35917 8.21142C6.35917 8.04151 6.29167 7.87858 6.17153 7.75844C6.05138 7.63829 5.88843 7.57172 5.71852 7.57172ZM10.2814 7.57172C10.1117 7.57172 9.9489 7.6391 9.82878 7.75904C9.70866 7.87898 9.64106 8.04168 9.64081 8.21142C9.64081 8.38133 9.7083 8.54429 9.82845 8.66444C9.94859 8.78458 10.1115 8.85207 10.2814 8.85207C10.4514 8.85207 10.6143 8.78458 10.7345 8.66444C10.8546 8.54429 10.9221 8.38133 10.9221 8.21142C10.9221 8.04151 10.8546 7.87858 10.7345 7.75844C10.6143 7.63829 10.4514 7.57172 10.2814 7.57172ZM5.67695 10.8751C5.42466 11.1057 5.78372 11.4789 6.02373 11.2342C6.86941 10.5349 8.17432 9.75163 9.15135 10.3526C9.44521 10.5425 9.71356 10.0814 9.40269 9.92077C8.09873 9.21493 6.7513 9.93587 5.67695 10.8751Z" fill="#00003A"/>
<path d="M4.40422 7.50362C4.07067 7.50362 4.07067 8.00441 4.40422 8.00441H11.5288C11.8623 8.00441 11.8623 7.50362 11.5288 7.50362H4.40422ZM9.06068 3.60495C9.35455 3.84118 9.19108 4.17758 9.02289 4.34861C8.78666 4.58483 9.14195 4.93917 9.37817 4.70294C9.88275 4.19742 9.82511 3.53315 9.34321 3.1911C9.05029 3.02101 8.79233 3.4103 9.06068 3.60495ZM10.753 2.58635C10.5206 2.88399 10.1823 2.72431 10.0084 2.55895C9.76936 2.32556 9.41975 2.68463 9.65881 2.91802C10.1709 3.41598 10.8343 3.34983 11.1706 2.8632C11.3369 2.57028 10.9439 2.31516 10.753 2.58635ZM10.9552 5.25002C10.6982 4.97317 10.3741 5.1612 10.2154 5.33979C9.99708 5.59302 9.61818 5.26422 9.83739 5.01287C10.3042 4.47239 10.9713 4.48277 11.3464 4.93822C11.5382 5.21696 11.1688 5.5042 10.9552 5.25002ZM11.8491 3.48779C11.5685 3.74102 11.7527 4.06701 11.9294 4.22859C12.1789 4.4497 11.8463 4.82482 11.5968 4.60277C11.0629 4.12843 11.0809 3.46227 11.542 3.09187C11.8236 2.90478 12.1052 3.27708 11.8481 3.48874L11.8491 3.48779Z" fill="#00003A"/>
</g>
<defs>
<clipPath id="clip0_1274_2123">
<rect width="16" height="16" fill="white"/>
</clipPath>
</defs>
</svg>
