<svg width="37" height="37" viewBox="0 0 37 37" fill="none" xmlns="http://www.w3.org/2000/svg">
<rect width="37" height="37" rx="18.5" fill="#1E1E1E" fill-opacity="0.4"/>
<path d="M19.3333 10.1665H18.9167C15.774 10.1665 14.2026 10.1665 13.2263 11.1428C12.25 12.1191 12.25 13.6905 12.25 16.8332V20.1665C12.25 23.3092 12.25 24.8806 13.2263 25.8568C14.2026 26.8332 15.774 26.8332 18.9167 26.8332H19.3333C22.476 26.8332 24.0474 26.8332 25.0237 25.8568C26 24.8806 26 23.3092 26 20.1665V16.8332C26 13.6905 26 12.1191 25.0237 11.1428C24.0474 10.1665 22.476 10.1665 19.3333 10.1665Z" fill="#FFBE78"/>
<path d="M16.8334 17.6668H19.75M16.8334 14.3335H22.6667" stroke="#E27000" stroke-width="1.5" stroke-linecap="round" stroke-linejoin="round"/>
<path d="M19.3333 10.1665H18.9167C15.774 10.1665 14.2026 10.1665 13.2263 11.1428C12.25 12.1191 12.25 13.6905 12.25 16.8332V20.1665C12.25 23.3092 12.25 24.8806 13.2263 25.8568C14.2026 26.8332 15.774 26.8332 18.9167 26.8332H19.3333C22.476 26.8332 24.0474 26.8332 25.0237 25.8568C26 24.8806 26 23.3092 26 20.1665V16.8332C26 13.6905 26 12.1191 25.0237 11.1428C24.0474 10.1665 22.476 10.1665 19.3333 10.1665Z" stroke="#E27000" stroke-width="1.5" stroke-linecap="round" stroke-linejoin="round"/>
<path d="M13.5 13.5H11M13.5 18.5H11M13.5 23.5H11" stroke="#E27000" stroke-width="1.5" stroke-linecap="round" stroke-linejoin="round"/>
</svg>
