<svg width="20" height="20" viewBox="0 0 20 20" fill="none" xmlns="http://www.w3.org/2000/svg">
<g clip-path="url(#clip0_5139_3611)">
<path d="M19.1243 6.92929L18.6667 6.87229V6.83896C18.6673 6.74883 18.6495 6.65953 18.6143 6.57653C18.5792 6.49353 18.5275 6.41859 18.4623 6.35629C17.7969 5.69098 16.9906 5.18358 16.1029 4.87152C15.2152 4.55945 14.2687 4.45071 13.3333 4.55329V4.33329C13.3333 4.15648 13.2631 3.98691 13.1381 3.86189C13.013 3.73686 12.8435 3.66663 12.6667 3.66663H11.3333V2.33329C11.3333 2.15648 11.2631 1.98691 11.1381 1.86189C11.013 1.73686 10.8435 1.66663 10.6667 1.66663H9.33333C9.15652 1.66663 8.98695 1.73686 8.86193 1.86189C8.73691 1.98691 8.66667 2.15648 8.66667 2.33329V3.66663H7.33333C7.15652 3.66663 6.98695 3.73686 6.86193 3.86189C6.73691 3.98691 6.66667 4.15648 6.66667 4.33329V4.55329C5.732 4.45042 4.78615 4.55875 3.89895 4.8703C3.01174 5.18184 2.20582 5.68864 1.54067 6.35329C1.40733 6.47996 1.332 6.65596 1.33333 6.83996V6.87329L0.873667 6.93029C0.632568 6.96214 0.411186 7.08031 0.250544 7.26289C0.0899015 7.44548 0.00088896 7.6801 0 7.92329L0 17.6666C0 17.9318 0.105357 18.1862 0.292893 18.3737C0.48043 18.5613 0.734784 18.6666 1 18.6666H7.737C7.98367 19.2546 8.873 19.6666 10 19.6666C11.127 19.6666 12.0163 19.2546 12.263 18.6666H19C19.2652 18.6666 19.5196 18.5613 19.7071 18.3737C19.8946 18.1862 20 17.9318 20 17.6666V7.92329C19.9992 7.67965 19.91 7.44457 19.749 7.26175C19.5879 7.07892 19.3659 6.96079 19.1243 6.92929ZM9.66667 16.4556L9.45633 16.3203C9.29967 16.223 5.602 13.9723 2.618 16.6536L2.14533 16.187C5.21033 13.3776 8.86667 15.212 9.66667 15.6706V16.4556ZM10.3333 15.6726C11.119 15.2323 14.8157 13.412 17.8523 16.1823L17.3753 16.6456C14.331 13.903 10.6913 16.224 10.5397 16.323L10.3333 16.4563V15.6726ZM7.33333 4.33329H9C9.08841 4.33329 9.17319 4.29817 9.2357 4.23566C9.29821 4.17315 9.33333 4.08836 9.33333 3.99996V2.33329H10.6667V3.99996C10.6667 4.08836 10.7018 4.17315 10.7643 4.23566C10.8268 4.29817 10.9116 4.33329 11 4.33329H12.6667V5.66663H11C10.9116 5.66663 10.8268 5.70174 10.7643 5.76426C10.7018 5.82677 10.6667 5.91155 10.6667 5.99996V9.66663H9.33333V5.99996C9.33333 5.91155 9.29821 5.82677 9.2357 5.76426C9.17319 5.70174 9.08841 5.66663 9 5.66663H7.33333V4.33329ZM6.66667 5.22429V5.66663C6.66667 5.84344 6.73691 6.01301 6.86193 6.13803C6.98695 6.26305 7.15652 6.33329 7.33333 6.33329H8.66667V9.66663C8.66667 9.84344 8.73691 10.013 8.86193 10.138C8.98695 10.2631 9.15652 10.3333 9.33333 10.3333H9.66667V14C9.66667 14.0884 9.70179 14.1732 9.7643 14.2357C9.82681 14.2982 9.91159 14.3333 10 14.3333C10.0884 14.3333 10.1732 14.2982 10.2357 14.2357C10.2982 14.1732 10.3333 14.0884 10.3333 14V10.3333H10.6667C10.8435 10.3333 11.013 10.2631 11.1381 10.138C11.2631 10.013 11.3333 9.84344 11.3333 9.66663V6.33329H12.6667C12.8435 6.33329 13.013 6.26305 13.1381 6.13803C13.2631 6.01301 13.3333 5.84344 13.3333 5.66663V5.22463C14.183 5.1167 15.0462 5.20632 15.8556 5.48649C16.665 5.76666 17.3988 6.22983 18 6.83996V15.4283C14.7127 12.744 10.869 14.612 10 15.095C9.131 14.6106 5.288 12.7433 2 15.4283V6.83596C2.6016 6.22663 3.33561 5.76424 4.14497 5.48472C4.95434 5.2052 5.81726 5.11609 6.66667 5.22429ZM19.3333 17.6666C19.3333 17.755 19.2982 17.8398 19.2357 17.9023C19.1732 17.9648 19.0884 18 19 18H12.3333V17.6666C12.3333 17.5782 12.2982 17.4934 12.2357 17.4309C12.1732 17.3684 12.0884 17.3333 12 17.3333C11.9116 17.3333 11.8268 17.3684 11.7643 17.4309C11.7018 17.4934 11.6667 17.5782 11.6667 17.6666V18.3333C11.6667 18.6 11.002 19 10 19C8.998 19 8.33333 18.6 8.33333 18.3333V17.671C8.33333 17.5826 8.29821 17.4978 8.2357 17.4353C8.17319 17.3727 8.08841 17.3376 8 17.3376C7.91159 17.3376 7.82681 17.3727 7.7643 17.4353C7.70179 17.4978 7.66667 17.5826 7.66667 17.671V18H1C0.911595 18 0.82681 17.9648 0.764298 17.9023C0.701786 17.8398 0.666667 17.755 0.666667 17.6666V7.92329C0.666667 7.75496 0.791333 7.61263 0.958 7.58996L1.33333 7.54396V16.18C1.33347 16.2241 1.34238 16.2678 1.35955 16.3085C1.37672 16.3492 1.4018 16.386 1.43333 16.417L2.15 17.1263C2.27286 17.2455 2.43649 17.3134 2.60763 17.3162C2.77878 17.3191 2.94458 17.2567 3.07133 17.1416C5.67933 14.8 8.96667 16.8 9.1 16.8836L9.63933 17.2306C9.74694 17.2999 9.8722 17.3367 10.0002 17.3367C10.1281 17.3367 10.2534 17.2999 10.361 17.2306L10.9027 16.8823C11.0387 16.7936 14.2613 14.7373 16.9293 17.1406C17.192 17.3806 17.5963 17.3743 17.8513 17.126L18.568 16.417C18.5995 16.386 18.6246 16.3492 18.6418 16.3085C18.6589 16.2678 18.6679 16.2241 18.668 16.18V7.54396L19.0417 7.59029C19.209 7.61263 19.334 7.75496 19.3347 7.92363L19.3333 17.6666Z" fill="#E27000"/>
<path d="M5.54879 7.95528L6.41546 7.45528C6.45367 7.43356 6.48721 7.40448 6.51415 7.36974C6.54108 7.335 6.56088 7.29527 6.57239 7.25285C6.58391 7.21042 6.58692 7.16614 6.58126 7.12255C6.57559 7.07895 6.56136 7.03691 6.53938 6.99884C6.5174 6.96077 6.4881 6.92742 6.45318 6.90072C6.41826 6.87402 6.37841 6.85449 6.33591 6.84325C6.29341 6.83201 6.2491 6.8293 6.20555 6.83525C6.16199 6.84121 6.12005 6.85572 6.08212 6.87795L5.21546 7.37795C5.17724 7.39968 5.1437 7.42875 5.11677 7.46349C5.08983 7.49823 5.07004 7.53796 5.05852 7.58039C5.047 7.62281 5.04399 7.66709 5.04966 7.71069C5.05532 7.75428 5.06956 7.79632 5.09154 7.83439C5.11352 7.87246 5.14281 7.90581 5.17773 7.93251C5.21265 7.95922 5.25251 7.97875 5.29501 7.98998C5.33751 8.00122 5.38181 8.00394 5.42537 7.99798C5.46892 7.99203 5.51087 7.97752 5.54879 7.95528ZM13.9201 3.12195L14.7868 2.62195C14.825 2.60022 14.8585 2.57115 14.8855 2.53641C14.9124 2.50167 14.9322 2.46194 14.9437 2.41951C14.9552 2.37709 14.9583 2.33281 14.9526 2.28921C14.9469 2.24562 14.9327 2.20358 14.9107 2.16551C14.8887 2.12744 14.8594 2.09409 14.8245 2.06739C14.7896 2.04068 14.7497 2.02115 14.7072 2.00992C14.6647 1.99868 14.6204 1.99596 14.5769 2.00192C14.5333 2.00787 14.4914 2.02238 14.4535 2.04462L13.5868 2.54462C13.5486 2.56634 13.515 2.59542 13.4881 2.63016C13.4612 2.6649 13.4414 2.70463 13.4299 2.74705C13.4183 2.78948 13.4153 2.83376 13.421 2.87735C13.4267 2.92095 13.4409 2.96299 13.4629 3.00106C13.4848 3.03913 13.5141 3.07248 13.5491 3.09918C13.584 3.12588 13.6238 3.14541 13.6663 3.15665C13.7088 3.16789 13.7531 3.1706 13.7967 3.16465C13.8403 3.15869 13.8822 3.14418 13.9201 3.12195ZM13.5868 7.45528L14.4535 7.95528C14.4914 7.97752 14.5333 7.99203 14.5769 7.99798C14.6204 8.00394 14.6647 8.00122 14.7072 7.98998C14.7497 7.97875 14.7896 7.95922 14.8245 7.93251C14.8594 7.90581 14.8887 7.87246 14.9107 7.83439C14.9327 7.79632 14.9469 7.75428 14.9526 7.71069C14.9583 7.66709 14.9552 7.62281 14.9437 7.58039C14.9322 7.53796 14.9124 7.49823 14.8855 7.46349C14.8585 7.42875 14.825 7.39968 14.7868 7.37795L13.9201 6.87795C13.8822 6.85572 13.8403 6.84121 13.7967 6.83525C13.7531 6.8293 13.7088 6.83201 13.6663 6.84325C13.6238 6.85449 13.584 6.87402 13.5491 6.90072C13.5141 6.92742 13.4848 6.96077 13.4629 6.99884C13.4409 7.03691 13.4267 7.07895 13.421 7.12255C13.4153 7.16614 13.4183 7.21042 13.4299 7.25285C13.4414 7.29527 13.4612 7.335 13.4881 7.36974C13.515 7.40448 13.5486 7.43356 13.5868 7.45528ZM5.54879 2.04462C5.51087 2.02238 5.46892 2.00787 5.42537 2.00192C5.38181 1.99596 5.33751 1.99868 5.29501 2.00992C5.25251 2.02115 5.21265 2.04068 5.17773 2.06739C5.14281 2.09409 5.11352 2.12744 5.09154 2.16551C5.06956 2.20358 5.05532 2.24562 5.04966 2.28921C5.04399 2.33281 5.047 2.37709 5.05852 2.41951C5.07004 2.46194 5.08983 2.50167 5.11677 2.53641C5.1437 2.57115 5.17724 2.60022 5.21546 2.62195L6.08212 3.12195C6.12005 3.14418 6.16199 3.15869 6.20555 3.16465C6.2491 3.1706 6.29341 3.16789 6.33591 3.15665C6.37841 3.14541 6.41826 3.12588 6.45318 3.09918C6.4881 3.07248 6.5174 3.03913 6.53938 3.00106C6.56136 2.96299 6.57559 2.92095 6.58126 2.87735C6.58692 2.83376 6.58391 2.78948 6.57239 2.74705C6.56088 2.70463 6.54108 2.6649 6.51415 2.63016C6.48721 2.59542 6.45367 2.56634 6.41546 2.54462L5.54879 2.04462ZM6.35846 9.34095C6.42619 9.39766 6.51367 9.42516 6.60168 9.41741C6.68968 9.40966 6.77101 9.36729 6.82779 9.29962L7.47079 8.53295C7.49891 8.4994 7.52016 8.46063 7.5333 8.41887C7.54644 8.37711 7.55123 8.33317 7.54739 8.28956C7.54356 8.24594 7.53117 8.20352 7.51093 8.16469C7.49069 8.12587 7.46301 8.09141 7.42946 8.06328C7.3959 8.03516 7.35714 8.01392 7.31538 8.00077C7.27362 7.98763 7.22968 7.98284 7.18606 7.98668C7.14245 7.99052 7.10002 8.00291 7.0612 8.02314C7.02237 8.04338 6.98792 8.07106 6.95979 8.10462L6.31712 8.87128C6.28899 8.90483 6.26775 8.9436 6.2546 8.98536C6.24145 9.02712 6.23666 9.07106 6.2405 9.11468C6.24433 9.15829 6.25673 9.20073 6.27697 9.23955C6.29721 9.27837 6.3249 9.31283 6.35846 9.34095ZM13.6431 0.65895C13.5754 0.602239 13.4879 0.574738 13.3999 0.582488C13.3119 0.590239 13.2306 0.632606 13.1738 0.700283L12.5308 1.46662C12.5027 1.50017 12.4814 1.53893 12.4683 1.58069C12.4551 1.62246 12.4503 1.6664 12.4542 1.71001C12.458 1.75362 12.4704 1.79605 12.4907 1.83488C12.5109 1.8737 12.5386 1.90816 12.5721 1.93628C12.6057 1.96441 12.6444 1.98565 12.6862 1.99879C12.728 2.01194 12.7719 2.01673 12.8155 2.01289C12.8591 2.00905 12.9016 1.99666 12.9404 1.97642C12.9792 1.95619 13.0137 1.9285 13.0418 1.89495L13.6845 1.12828C13.7412 1.06054 13.7687 0.973065 13.7609 0.885062C13.7532 0.79706 13.7108 0.715733 13.6431 0.65895ZM13.1738 9.29995C13.2016 9.33453 13.236 9.36321 13.275 9.38432C13.314 9.40542 13.3569 9.41853 13.401 9.42286C13.4452 9.4272 13.4897 9.42268 13.5321 9.40957C13.5745 9.39646 13.6138 9.37502 13.6478 9.34652C13.6818 9.31801 13.7098 9.283 13.73 9.24355C13.7503 9.2041 13.7625 9.161 13.766 9.11677C13.7694 9.07254 13.7639 9.02807 13.7499 8.98598C13.7359 8.94388 13.7137 8.905 13.6845 8.87162L13.0418 8.10495C12.985 8.03719 12.9036 7.99476 12.8155 7.98701C12.7274 7.97926 12.6399 8.00682 12.5721 8.06362C12.5044 8.12042 12.4619 8.20181 12.4542 8.28989C12.4464 8.37797 12.474 8.46552 12.5308 8.53328L13.1738 9.29995ZM7.42946 1.93595C7.49713 1.87917 7.5395 1.79784 7.54725 1.70984C7.555 1.62183 7.5275 1.53435 7.47079 1.46662L6.82779 0.69995C6.8 0.665373 6.76559 0.636691 6.72657 0.615585C6.68755 0.594479 6.64471 0.581373 6.60056 0.577036C6.55641 0.572699 6.51184 0.577218 6.46947 0.590328C6.42709 0.603438 6.38775 0.624875 6.35376 0.653384C6.31977 0.681892 6.29182 0.716897 6.27153 0.756349C6.25125 0.7958 6.23904 0.838903 6.23563 0.883133C6.23222 0.927362 6.23767 0.971828 6.25166 1.01392C6.26565 1.05602 6.28791 1.0949 6.31712 1.12828L6.95979 1.89495C6.98793 1.92848 7.02241 1.95615 7.06124 1.97636C7.10008 1.99657 7.14252 2.00893 7.18613 2.01273C7.22974 2.01654 7.27368 2.01172 7.31543 1.99855C7.35718 1.98537 7.39593 1.9641 7.42946 1.93595Z" fill="#E27000"/>
</g>
<defs>
<clipPath id="clip0_5139_3611">
<rect width="20" height="20" fill="white"/>
</clipPath>
</defs>
</svg>
