<svg width="24" height="24" viewBox="0 0 24 24" fill="none" xmlns="http://www.w3.org/2000/svg">
<path d="M23.5 5.70124H22.0718V4.62655C22.0718 4.52857 22.0431 4.43275 21.9891 4.35099C21.9351 4.26923 21.8582 4.20514 21.7681 4.16668C18.7519 2.87912 15.041 3.42481 12 5.5817C8.95904 3.42481 5.24799 2.87927 2.23189 4.16668C2.14177 4.20514 2.06494 4.26923 2.01095 4.35099C1.95695 4.43275 1.92816 4.52857 1.92817 4.62655V5.70124H0.499993C0.223895 5.70124 0 5.92508 0 6.20123V20.0214C0 20.2976 0.223895 20.5214 0.499993 20.5214H23.5C23.7762 20.5214 24 20.2975 24 20.0214V6.20128C24 5.92513 23.7762 5.70124 23.5 5.70124ZM0.999985 19.5214V6.70127H1.92817V18.4467C1.92818 18.5294 1.9487 18.6108 1.98787 18.6836C2.02705 18.7564 2.08366 18.8183 2.15264 18.8639C2.22163 18.9094 2.30083 18.9372 2.38316 18.9446C2.46549 18.9521 2.54839 18.939 2.62443 18.9066C4.96646 17.9068 7.79478 18.1568 10.3051 19.5214H0.999985ZM11.5 19.0654C9.67516 17.9025 7.64517 17.2987 5.68568 17.2987C4.73967 17.2987 3.81022 17.4394 2.9282 17.7259V6.20707C2.9282 6.20509 2.92851 6.20321 2.92851 6.20128C2.92851 6.19935 2.92825 6.19742 2.9282 6.19549V4.96476C5.59508 3.96518 8.82884 4.52418 11.5 6.45341V19.0654ZM12.5 6.45341C15.1712 4.52413 18.4051 3.96518 21.0718 4.96476V6.19544C21.0718 6.19737 21.0715 6.1993 21.0715 6.20123C21.0715 6.20316 21.0718 6.20509 21.0718 6.20702V17.7258C18.3628 16.8458 15.2058 17.3411 12.5 19.0653V6.45341ZM23 19.5214H13.6949C16.2052 18.1568 19.0335 17.9068 21.3756 18.9066C21.4516 18.939 21.5345 18.9521 21.6168 18.9447C21.6992 18.9372 21.7784 18.9095 21.8474 18.8639C21.9164 18.8184 21.973 18.7564 22.0122 18.6836C22.0513 18.6108 22.0718 18.5294 22.0718 18.4467V6.70127H23V19.5214Z" fill="white"/>
</svg>
