<svg width="20" height="20" viewBox="0 0 20 20" fill="none" xmlns="http://www.w3.org/2000/svg">
<path d="M10 20C15.5228 20 20 15.5228 20 10C20 4.47715 15.5228 0 10 0C4.47715 0 0 4.47715 0 10C0 15.5228 4.47715 20 10 20Z" fill="#F7CAB5"/>
<path d="M11.4516 18.5484C5.92875 18.5484 1.4516 14.0712 1.4516 8.54836C1.4516 6.15668 2.29227 3.96199 3.69285 2.24121C1.43996 4.0748 0 6.86879 0 9.99996C0 15.5228 4.47715 20 10 20C13.1312 20 15.9252 18.56 17.7588 16.3071C16.038 17.7077 13.8433 18.5484 11.4516 18.5484Z" fill="#F6CDC1"/>
<path d="M10.0044 13.747C9.14968 13.747 8.33374 13.6771 7.58519 13.5507C7.48823 13.5343 7.40468 13.6057 7.43456 13.68C7.7798 14.5385 8.79874 15.1613 10.0044 15.1613C11.2101 15.1613 12.2291 14.5385 12.5742 13.68C12.6042 13.6057 12.5206 13.5343 12.4236 13.5507C11.6751 13.6771 10.8592 13.747 10.0044 13.747Z" fill="#9C6846"/>
<path d="M6.45108 10.4034C5.83772 10.4034 5.25307 10.1135 4.84635 9.60768C4.70678 9.43409 4.73452 9.18018 4.90811 9.04081C5.08171 8.90108 5.33593 8.92913 5.47514 9.10241C5.73124 9.42135 6.07807 9.59698 6.45108 9.59698C6.82409 9.59698 7.17089 9.42135 7.42702 9.10241C7.56659 8.92917 7.82081 8.90112 7.99405 9.04081C8.16764 9.18022 8.19534 9.43413 8.05581 9.60768C7.64913 10.1134 7.06444 10.4034 6.45108 10.4034ZM13.5491 10.4034C12.9358 10.4034 12.3511 10.1135 11.9444 9.60768C11.8048 9.43409 11.8326 9.18018 12.0062 9.04081C12.1798 8.90108 12.4337 8.92913 12.5732 9.10241C12.8293 9.42135 13.1761 9.59698 13.5491 9.59698C13.9221 9.59698 14.2689 9.42135 14.5251 9.10241C14.6643 8.92917 14.9185 8.90112 15.0921 9.04081C15.2657 9.18022 15.2934 9.43413 15.1539 9.60768C14.7471 10.1134 14.1625 10.4034 13.5491 10.4034ZM4.5153 8.14549C4.34206 8.14549 4.18171 8.03272 4.1294 7.85803C4.06546 7.64459 4.18643 7.41983 4.39968 7.35588L7.6255 6.38815C7.8394 6.32436 8.0637 6.44502 8.12764 6.65842C8.19159 6.87182 8.07061 7.09663 7.85737 7.16057L4.63155 8.12831C4.5928 8.13999 4.55374 8.14549 4.5153 8.14549ZM15.4837 8.14549C15.4452 8.14549 15.4062 8.13999 15.3674 8.12831L12.1416 7.16057C11.9283 7.09663 11.8074 6.87186 11.8713 6.65842C11.9353 6.44499 12.1602 6.32436 12.3735 6.38815L15.5993 7.35588C15.8126 7.41983 15.9335 7.64459 15.8696 7.85803C15.8173 8.03272 15.6569 8.14549 15.4837 8.14549Z" fill="#AA7346"/>
<path d="M12.5742 13.68C12.6042 13.6057 12.5206 13.5343 12.4236 13.5507C11.6751 13.6771 10.8592 13.747 10.0044 13.747C9.1496 13.747 8.3337 13.6771 7.58519 13.5507C7.48823 13.5343 7.40468 13.6057 7.43456 13.68C7.54042 13.9433 7.71577 14.1803 7.93433 14.3881C8.58062 14.4701 9.27655 14.5161 10.0044 14.5161C10.7323 14.5161 11.4282 14.4701 12.0745 14.3881C12.293 14.1803 12.4684 13.9433 12.5742 13.68Z" fill="#7D5046"/>
</svg>
