<svg width="24" height="15" viewBox="0 0 24 15" fill="none" xmlns="http://www.w3.org/2000/svg">
<path d="M16.7207 0C20.7405 0 24 3.29674 24 7.36328C23.9999 11.4298 20.7405 14.7266 16.7207 14.7266C14.9185 14.7265 13.2711 14.0615 12 12.9639C10.7288 14.0617 9.08075 14.7266 7.27832 14.7266C3.25865 14.7265 8.30451e-05 11.4297 0 7.36328C0 3.2968 3.2586 9.95875e-05 7.27832 0C9.08059 0 10.7288 0.664099 12 1.76172C13.2711 0.664294 14.9187 0.000106117 16.7207 0Z" fill="#ED0006"/>
<path d="M16.7217 0C20.7414 6.81717e-05 24 3.29678 24 7.36328C23.9999 11.4297 20.7414 14.7265 16.7217 14.7266C14.9192 14.7266 13.2712 14.0617 12 12.9639C13.564 11.6134 14.5576 9.60649 14.5576 7.36328C14.5576 5.11985 13.5642 3.11224 12 1.76172C13.2712 0.664082 14.9194 0 16.7217 0Z" fill="#F9A000"/>
<path d="M11.998 1.76245C13.5623 3.11298 14.5557 5.12058 14.5557 7.36401C14.5556 9.60724 13.5621 11.6141 11.998 12.9646C10.4343 11.6141 9.44149 9.60703 9.44141 7.36401C9.44141 5.12078 10.4341 3.11297 11.998 1.76245Z" fill="#FF5E00"/>
</svg>
