<svg width="15" height="19" viewBox="0 0 15 19" fill="none" xmlns="http://www.w3.org/2000/svg">
<path d="M12.5 6.60625H12.1687V4.66875C12.1687 3.43052 11.6769 2.24301 10.8013 1.36745C9.92574 0.491885 8.73823 0 7.5 0C6.26177 0 5.07426 0.491885 4.1987 1.36745C3.32313 2.24301 2.83125 3.43052 2.83125 4.66875V6.60625H2.5C1.83696 6.60625 1.20107 6.86964 0.732233 7.33848C0.263392 7.80732 0 8.44321 0 9.10625V16.25C0 16.913 0.263392 17.5489 0.732233 18.0178C1.20107 18.4866 1.83696 18.75 2.5 18.75H12.5C13.163 18.75 13.7989 18.4866 14.2678 18.0178C14.7366 17.5489 15 16.913 15 16.25V9.10625C15 8.44321 14.7366 7.80732 14.2678 7.33848C13.7989 6.86964 13.163 6.60625 12.5 6.60625ZM4.08125 4.66875C4.08125 4.21979 4.16968 3.77523 4.34149 3.36045C4.5133 2.94567 4.76512 2.56879 5.08258 2.25133C5.40004 1.93387 5.77692 1.68204 6.1917 1.51024C6.60648 1.33843 7.05104 1.25 7.5 1.25C7.94896 1.25 8.39352 1.33843 8.8083 1.51024C9.22308 1.68204 9.59996 1.93387 9.91742 2.25133C10.2349 2.56879 10.4867 2.94567 10.6585 3.36045C10.8303 3.77523 10.9187 4.21979 10.9187 4.66875V6.60625H4.08125V4.66875ZM13.75 16.25C13.75 16.5815 13.6183 16.8995 13.3839 17.1339C13.1495 17.3683 12.8315 17.5 12.5 17.5H2.5C2.16848 17.5 1.85054 17.3683 1.61612 17.1339C1.3817 16.8995 1.25 16.5815 1.25 16.25V9.10625C1.25 8.77473 1.3817 8.45679 1.61612 8.22237C1.85054 7.98795 2.16848 7.85625 2.5 7.85625H12.5C12.8315 7.85625 13.1495 7.98795 13.3839 8.22237C13.6183 8.45679 13.75 8.77473 13.75 9.10625V16.25Z" fill="#E27000"/>
<path d="M7.49843 10.5791C7.25595 10.5792 7.01901 10.6516 6.81797 10.7872C6.61694 10.9228 6.46097 11.1153 6.37006 11.3401C6.27915 11.5649 6.25743 11.8118 6.30769 12.049C6.35796 12.2862 6.47791 12.503 6.65218 12.6716V14.1535C6.65218 14.3192 6.71803 14.4782 6.83524 14.5954C6.95245 14.7126 7.11142 14.7785 7.27718 14.7785H7.71968C7.88544 14.7785 8.04441 14.7126 8.16162 14.5954C8.27883 14.4782 8.34468 14.3192 8.34468 14.1535V12.6716C8.51895 12.503 8.6389 12.2862 8.68917 12.049C8.73943 11.8118 8.71771 11.5649 8.6268 11.3401C8.53589 11.1153 8.37992 10.9228 8.17889 10.7872C7.97786 10.6516 7.74091 10.5792 7.49843 10.5791Z" fill="#E27000"/>
</svg>
