<svg width="37" height="37" viewBox="0 0 37 37" fill="none" xmlns="http://www.w3.org/2000/svg">
<rect width="37" height="37" rx="18.5" fill="#1E1E1E" fill-opacity="0.4"/>
<path d="M15.8088 13.6476L16.3106 15.0413C16.586 15.8054 17.0265 16.4993 17.6008 17.0736C18.1751 17.6479 18.8691 18.0884 19.6331 18.3638L21.0269 18.8657C21.0544 18.8758 21.0782 18.8941 21.0949 18.9181C21.1117 18.9421 21.1207 18.9707 21.1207 19.0001C21.1207 19.0294 21.1117 19.058 21.0949 19.082C21.0782 19.106 21.0544 19.1243 21.0269 19.1344L19.6331 19.6363C18.8691 19.9117 18.1751 20.3522 17.6008 20.9265C17.0265 21.5008 16.586 22.1947 16.3106 22.9588L15.8088 24.3526C15.7987 24.3801 15.7804 24.4038 15.7563 24.4206C15.7323 24.4374 15.7037 24.4464 15.6744 24.4464C15.6451 24.4464 15.6165 24.4374 15.5924 24.4206C15.5684 24.4038 15.5501 24.3801 15.54 24.3526L15.0381 22.9588C14.7627 22.1947 14.3222 21.5008 13.7479 20.9265C13.1736 20.3522 12.4797 19.9117 11.7156 19.6363L10.3219 19.1344C10.2944 19.1243 10.2706 19.106 10.2538 19.082C10.237 19.058 10.228 19.0294 10.228 19.0001C10.228 18.9707 10.237 18.9421 10.2538 18.9181C10.2706 18.8941 10.2944 18.8758 10.3219 18.8657L11.7156 18.3638C12.4797 18.0884 13.1736 17.6479 13.7479 17.0736C14.3222 16.4993 14.7627 15.8054 15.0381 15.0413L15.54 13.6476C15.5498 13.6198 15.568 13.5957 15.5921 13.5787C15.6161 13.5616 15.6449 13.5525 15.6744 13.5525C15.7039 13.5525 15.7326 13.5616 15.7567 13.5787C15.7807 13.5957 15.7989 13.6198 15.8088 13.6476ZM22.0825 10.2982L22.3369 11.0038C22.4764 11.3907 22.6996 11.742 22.9904 12.0328C23.2812 12.3236 23.6325 12.5467 24.0194 12.6863L24.725 12.9407C24.739 12.9458 24.7511 12.955 24.7596 12.9672C24.7681 12.9794 24.7727 12.9939 24.7727 13.0088C24.7727 13.0237 24.7681 13.0382 24.7596 13.0504C24.7511 13.0626 24.739 13.0718 24.725 13.0769L24.0194 13.3313C23.6325 13.4709 23.2812 13.694 22.9904 13.9848C22.6996 14.2756 22.4764 14.627 22.3369 15.0138L22.0825 15.7194C22.0774 15.7334 22.0681 15.7455 22.056 15.754C22.0438 15.7626 22.0293 15.7671 22.0144 15.7671C21.9995 15.7671 21.985 15.7626 21.9728 15.754C21.9606 15.7455 21.9513 15.7334 21.9463 15.7194L21.6919 15.0138C21.5523 14.627 21.3292 14.2756 21.0384 13.9848C20.7476 13.694 20.3962 13.4709 20.0094 13.3313L19.3038 13.0769C19.2898 13.0718 19.2777 13.0626 19.2692 13.0504C19.2606 13.0382 19.2561 13.0237 19.2561 13.0088C19.2561 12.9939 19.2606 12.9794 19.2692 12.9672C19.2777 12.955 19.2898 12.9458 19.3038 12.9407L20.0094 12.6863C20.3962 12.5467 20.7476 12.3236 21.0384 12.0328C21.3292 11.742 21.5523 11.3907 21.6919 11.0038L21.9463 10.2982C21.9513 10.2842 21.9606 10.2721 21.9728 10.2636C21.985 10.2551 21.9995 10.2505 22.0144 10.2505C22.0293 10.2505 22.0438 10.2551 22.056 10.2636C22.0681 10.2721 22.0774 10.2842 22.0825 10.2982ZM22.0825 22.2813L22.3369 22.9869C22.4764 23.3738 22.6996 23.7251 22.9904 24.0159C23.2812 24.3067 23.6325 24.5299 24.0194 24.6694L24.725 24.9238C24.739 24.9289 24.7511 24.9382 24.7596 24.9504C24.7681 24.9625 24.7727 24.9771 24.7727 24.9919C24.7727 25.0068 24.7681 25.0213 24.7596 25.0335C24.7511 25.0457 24.739 25.055 24.725 25.0601L24.0194 25.3144C23.6325 25.454 23.2812 25.6771 22.9904 25.9679C22.6996 26.2587 22.4764 26.6101 22.3369 26.9969L22.0825 27.7026C22.0774 27.7165 22.0681 27.7286 22.056 27.7371C22.0438 27.7457 22.0293 27.7503 22.0144 27.7503C21.9995 27.7503 21.985 27.7457 21.9728 27.7371C21.9606 27.7286 21.9513 27.7165 21.9463 27.7026L21.6919 26.9969C21.5523 26.6101 21.3292 26.2587 21.0384 25.9679C20.7476 25.6771 20.3962 25.454 20.0094 25.3144L19.3038 25.0601C19.2898 25.055 19.2777 25.0457 19.2692 25.0335C19.2606 25.0213 19.2561 25.0068 19.2561 24.9919C19.2561 24.9771 19.2606 24.9625 19.2692 24.9504C19.2777 24.9382 19.2898 24.9289 19.3038 24.9238L20.0094 24.6694C20.3962 24.5299 20.7476 24.3067 21.0384 24.0159C21.3292 23.7251 21.5523 23.3738 21.6919 22.9869L21.9463 22.2813C21.9694 22.2176 22.06 22.2176 22.0825 22.2813Z" fill="#E27000"/>
</svg>
