<svg width="19" height="23" viewBox="0 0 19 23" fill="none" xmlns="http://www.w3.org/2000/svg">
<path d="M13.9628 12.1144C14.328 11.9839 14.5732 11.6352 14.5732 11.2474C14.5732 10.8597 14.328 10.5109 13.9642 10.3804L12.2917 9.77744C11.4781 9.48553 10.7391 9.01714 10.1278 8.40588C9.51655 7.79461 9.04816 7.05562 8.75625 6.24194L8.15325 4.56944C8.08873 4.39151 7.97112 4.23768 7.81632 4.12876C7.66153 4.01984 7.47702 3.96109 7.28775 3.96044C6.90075 3.96044 6.552 4.20494 6.42 4.56944L5.81775 6.24194C5.5259 7.05578 5.05744 7.79489 4.44603 8.40618C3.83461 9.01747 3.0954 9.48577 2.2815 9.77744L0.6105 10.3804C0.24525 10.5117 0 10.8597 0 11.2474C0 11.6352 0.24525 11.9832 0.609 12.1144L2.2815 12.7174C3.09524 13.0093 3.83427 13.4776 4.44555 14.0889C5.05683 14.7002 5.52518 15.4392 5.817 16.2529L6.42 17.9262C6.55125 18.2899 6.9 18.5344 7.287 18.5344C7.674 18.5344 8.02275 18.2892 8.15325 17.9254L8.75625 16.2529C9.04816 15.4393 9.51655 14.7003 10.1278 14.089C10.7391 13.4777 11.4781 13.0093 12.2917 12.7174L13.9628 12.1144ZM11.7832 11.3059C10.7617 11.6723 9.83388 12.2603 9.06647 13.0277C8.29906 13.7951 7.71109 14.7229 7.34475 15.7444L7.28625 15.9064L7.22775 15.7444C6.86118 14.723 6.27312 13.7953 5.50575 13.0279C4.73837 12.2606 3.8107 11.6725 2.78925 11.3059L2.628 11.2474L2.79 11.1889C3.81158 10.8226 4.73937 10.2346 5.50678 9.46722C6.27418 8.69981 6.86216 7.77202 7.2285 6.75044L7.287 6.58844L7.3455 6.75044C7.7118 7.77191 8.29968 8.69964 9.06695 9.46703C9.83421 10.2344 10.7618 10.8225 11.7832 11.1889L11.9453 11.2474L11.7832 11.3059ZM11.3888 4.84469L12.2355 5.14994C12.5962 5.27938 12.9239 5.48705 13.1949 5.75806C13.4659 6.02907 13.6736 6.3567 13.803 6.71744L14.1075 7.56344C14.2268 7.89494 14.5433 8.11769 14.895 8.11769C15.2468 8.11769 15.564 7.89494 15.6825 7.56419L15.9878 6.71744C16.1171 6.35662 16.3247 6.02892 16.5957 5.75789C16.8667 5.48686 17.1944 5.27924 17.5553 5.14994L18.4027 4.84469C18.732 4.72544 18.9547 4.40969 18.9555 4.05944C18.9562 3.70919 18.7357 3.39194 18.4027 3.27044L17.5553 2.96519C17.1946 2.83566 16.867 2.62796 16.596 2.35696C16.325 2.08597 16.1173 1.75839 15.9878 1.39769L15.6825 0.550941C15.6237 0.389456 15.5166 0.249976 15.3758 0.151419C15.235 0.0528631 15.0672 0 14.8954 0C14.7235 0 14.5558 0.0528631 14.415 0.151419C14.2742 0.249976 14.1671 0.389456 14.1083 0.550941L13.803 1.39769C13.6736 1.75844 13.4659 2.08607 13.1949 2.35707C12.9239 2.62808 12.5962 2.83575 12.2355 2.96519L11.3865 3.27119C11.0565 3.39119 10.8345 3.70844 10.8352 4.05944C10.836 4.41044 11.0588 4.72619 11.3888 4.84469ZM14.8958 2.58869C15.2503 3.19673 15.7562 3.70263 16.3643 4.05719C15.7562 4.41175 15.2503 4.91766 14.8958 5.52569C14.541 4.9178 14.0351 4.41194 13.4272 4.05719C14.035 3.70223 14.5408 3.19641 14.8958 2.58869ZM18.402 17.6502L17.5553 17.3449C17.1946 17.2154 16.867 17.0077 16.596 16.7367C16.325 16.4657 16.1173 16.1381 15.9878 15.7774L15.6825 14.9307C15.6235 14.7693 15.5163 14.6299 15.3754 14.5314C15.2346 14.433 15.0669 14.3802 14.895 14.3802C14.7231 14.3802 14.5554 14.433 14.4146 14.5314C14.2737 14.6299 14.1665 14.7693 14.1075 14.9307L13.8022 15.7774C13.673 16.1383 13.4653 16.466 13.1943 16.737C12.9233 17.008 12.5956 17.2156 12.2347 17.3449L11.3888 17.6494C11.058 17.7679 10.8352 18.0844 10.8345 18.4354C10.8337 18.7864 11.055 19.1037 11.388 19.2244L12.2347 19.5297C12.5956 19.6589 12.9234 19.8665 13.1944 20.1375C13.4655 20.4086 13.673 20.7363 13.8022 21.0972L14.1068 21.9432C14.1654 22.1051 14.2725 22.2451 14.4135 22.344C14.5545 22.443 14.7225 22.4961 14.8947 22.4962C15.067 22.4962 15.2351 22.4433 15.3761 22.3445C15.5172 22.2457 15.6244 22.1058 15.6832 21.9439L15.9885 21.0972C16.118 20.7365 16.3257 20.4089 16.5967 20.1379C16.8677 19.8669 17.1953 19.6592 17.556 19.5297L18.4065 19.2237C18.7358 19.1029 18.957 18.7864 18.9563 18.4354C18.9555 18.0844 18.732 17.7694 18.402 17.6502ZM14.8958 19.9062C14.5412 19.2982 14.0353 18.7922 13.4272 18.4377C14.0351 18.0829 14.541 17.5771 14.8958 16.9692C15.2505 17.5771 15.7564 18.0829 16.3643 18.4377C15.7564 18.7924 15.2505 19.2983 14.8958 19.9062Z" fill="#898989"/>
</svg>
