<svg width="32" height="32" viewBox="0 0 32 32" fill="none" xmlns="http://www.w3.org/2000/svg">
<rect width="32" height="32" rx="16" fill="#565656" fill-opacity="0.6"/>
<path d="M24.1025 20.658L17.11 9.44989C16.9408 9.17581 16.7044 8.94946 16.4233 8.79229C16.1421 8.63511 15.8255 8.55232 15.5034 8.55176C15.1813 8.5512 14.8644 8.63288 14.5827 8.78907C14.301 8.94526 14.0639 9.17078 13.8937 9.44427L6.88999 20.6711C6.72715 20.9567 6.64154 21.2798 6.6416 21.6086C6.64167 21.9374 6.7274 22.2604 6.89036 22.546C7.05331 22.8315 7.28786 23.0697 7.57089 23.2369C7.85391 23.4042 8.17565 23.4948 8.50437 23.4999H22.4956C22.8256 23.4946 23.1484 23.4032 23.4321 23.2347C23.7158 23.0661 23.9505 22.8264 24.1129 22.5391C24.2753 22.2519 24.3598 21.9272 24.358 21.5972C24.3561 21.2672 24.2681 20.9434 24.1025 20.658Z" fill="#FFD54F"/>
<path d="M14.9295 17.6399L14.7633 15.1549C14.7308 14.6549 14.5602 13.8468 14.942 13.4405C15.2327 13.128 15.9208 13.0743 16.1295 13.5074C16.3071 14.0164 16.3463 14.5633 16.2433 15.0924L16.0208 17.6505C16.0112 17.8913 15.9585 18.1284 15.8652 18.3505C15.8284 18.4224 15.7727 18.4829 15.7041 18.5254C15.6354 18.5679 15.5565 18.5908 15.4758 18.5916C15.395 18.5924 15.3156 18.5712 15.2461 18.5301C15.1766 18.4891 15.1196 18.4298 15.0814 18.3587C14.9935 18.1285 14.9422 17.886 14.9295 17.6399ZM15.5052 21.0543C15.3081 21.0532 15.1188 20.977 14.9759 20.8413C14.833 20.7056 14.7471 20.5205 14.7358 20.3238C14.7245 20.127 14.7886 19.9333 14.915 19.7821C15.0415 19.6309 15.2208 19.5336 15.4164 19.5099C15.5215 19.4972 15.6282 19.5061 15.7297 19.5362C15.8312 19.5663 15.9255 19.6169 16.0067 19.6848C16.0879 19.7527 16.1544 19.8366 16.2019 19.9312C16.2495 20.0258 16.2772 20.1291 16.2832 20.2348C16.2893 20.3405 16.2737 20.4464 16.2373 20.5458C16.2008 20.6452 16.1444 20.7361 16.0715 20.8129C15.9986 20.8897 15.9108 20.9507 15.8133 20.9923C15.7159 21.0338 15.6111 21.0549 15.5052 21.0543Z" fill="#596C76"/>
</svg>
