<svg width="32" height="32" viewBox="0 0 32 32" fill="none" xmlns="http://www.w3.org/2000/svg">
<rect width="32" height="32" rx="16" fill="#565656" fill-opacity="0.6"/>
<g clip-path="url(#clip0_983_7051)">
<path d="M21.6927 20.5207C21.6164 20.5207 21.5422 20.4955 21.4818 20.4489C21.4214 20.4023 21.3782 20.337 21.3589 20.2632C21.3396 20.1894 21.3453 20.1113 21.3751 20.0411C21.4049 19.9709 21.4572 19.9125 21.5237 19.8752C21.8958 19.6733 22.2947 19.5255 22.7085 19.4362C22.8409 19.4055 22.9844 19.3755 23.1309 19.3438C24.4413 19.0645 26.0727 18.7166 26.2851 17.1604C26.3006 17.0455 26.3085 16.9297 26.3096 16.8138V15.3038C26.3096 15.2124 26.3459 15.1246 26.4105 15.06C26.4752 14.9953 26.5629 14.959 26.6544 14.959C26.7458 14.959 26.8335 14.9953 26.8982 15.06C26.9629 15.1246 26.9992 15.2124 26.9992 15.3038V16.8138C26.9982 16.9597 26.9882 17.1052 26.9689 17.2497C26.6902 19.2904 24.6351 19.7283 23.2747 20.0183C23.1306 20.049 22.9927 20.0786 22.863 20.1086C22.5133 20.1832 22.1761 20.3071 21.8613 20.4766C21.8098 20.5055 21.7517 20.5207 21.6927 20.5207Z" fill="#95A5A5"/>
<path d="M26.9993 15.2241V16.8138C26.9993 15.0069 25.0717 14.7827 23.5234 15.3103H23.5096C22.8613 14.7931 22.8717 14.8758 22.8613 14.4482L23.5475 13.7103C23.5524 13.7108 23.5573 13.7096 23.5613 13.7069C25.1027 13.1965 26.9993 13.4345 26.9993 15.2241Z" fill="#D1D4D1"/>
<path d="M23.5479 13.8413C23.5583 14.2689 23.5514 14.7689 23.51 15.3103C23.426 17.0284 22.9203 18.6994 22.0376 20.1758C20.8617 21.9965 18.8134 23.4137 15.2755 23.4137C7.66172 23.4137 6.93414 16.8379 7.0031 13.8413H23.5479Z" fill="#BDC3C7"/>
<path d="M23.5518 13.7586C23.5522 13.7713 23.5511 13.7841 23.5484 13.7965C23.5518 13.8034 23.5484 13.8069 23.5484 13.8138C23.5518 13.8226 23.5518 13.8325 23.5484 13.8414C23.4794 16.6586 19.8001 18.931 15.2759 18.931C10.7518 18.931 7.0725 16.6586 7.00353 13.8414C7.00007 13.8325 7.00007 13.8226 7.00353 13.8138C7.00353 13.8069 7.00008 13.8034 7.00353 13.7965C7.00082 13.7841 6.99966 13.7713 7.00008 13.7586C7.00008 10.9034 10.707 8.58618 15.2759 8.58618C19.8449 8.58618 23.5518 10.9034 23.5518 13.7586Z" fill="#ECF0F1"/>
<path d="M15.2755 17.5518C19.0843 17.5518 22.172 15.8536 22.172 13.7587C22.172 11.6638 19.0843 9.96558 15.2755 9.96558C11.4666 9.96558 8.37891 11.6638 8.37891 13.7587C8.37891 15.8536 11.4666 17.5518 15.2755 17.5518Z" fill="#A56A43"/>
<path d="M15.2756 17.8965C11.2152 17.8965 8.03418 16.0789 8.03418 13.7585C8.03418 11.4382 11.2152 9.62061 15.2756 9.62061C19.3359 9.62061 22.5169 11.4382 22.5169 13.7585C22.5169 16.0789 19.3359 17.8965 15.2756 17.8965ZM15.2756 10.3103C11.7238 10.3103 8.72383 11.8896 8.72383 13.7585C8.72383 15.6275 11.7238 17.2068 15.2756 17.2068C18.8273 17.2068 21.8273 15.6275 21.8273 13.7585C21.8273 11.8896 18.8273 10.3103 15.2756 10.3103Z" fill="#BDC3C7"/>
<path d="M15.2759 22.3792C13.0448 22.3792 11.3076 21.7585 10.1121 20.5337C10.048 20.4682 10.0127 20.38 10.0137 20.2884C10.0147 20.1968 10.0521 20.1094 10.1176 20.0454C10.1831 19.9814 10.2713 19.946 10.3629 19.947C10.4544 19.9481 10.5418 19.9854 10.6059 20.0509C11.6676 21.1378 13.239 21.6895 15.2759 21.6895C15.3673 21.6895 15.455 21.7259 15.5197 21.7905C15.5844 21.8552 15.6207 21.9429 15.6207 22.0344C15.6207 22.1258 15.5844 22.2135 15.5197 22.2782C15.455 22.3429 15.3673 22.3792 15.2759 22.3792Z" fill="white"/>
<path d="M19.0687 13.7587C18.9773 13.7587 18.8896 13.795 18.8249 13.8597C18.7602 13.9244 18.7239 14.0121 18.7239 14.1035C18.7239 14.9801 17.3349 15.7291 15.6205 15.8187V15.1215C16.7108 15.0411 17.4456 14.6008 17.6332 14.276C17.6763 14.2002 17.6879 14.1106 17.6657 14.0263C17.6435 13.9421 17.5891 13.8699 17.5142 13.8253C17.437 13.7791 17.3451 13.7638 17.2571 13.7825C17.169 13.8011 17.0913 13.8524 17.0394 13.926C16.6357 14.2474 16.1365 14.4254 15.6205 14.4318V13.6642C16.9877 13.2225 17.6894 12.676 17.6894 12.0346C17.6894 11.4449 17.0963 11.0001 16.3101 11.0001C15.9504 10.9937 15.5948 11.0774 15.2756 11.2435C14.9565 11.0774 14.6009 10.9937 14.2411 11.0001C13.4549 11.0001 12.8618 11.4449 12.8618 12.0346C12.8618 12.676 13.5636 13.2225 14.9308 13.6642V14.4318C14.4168 14.4244 13.9194 14.2485 13.5149 13.9311C13.4931 13.8905 13.4633 13.8546 13.4273 13.8257C13.3913 13.7968 13.3499 13.7754 13.3055 13.7628C13.2611 13.7502 13.2146 13.7466 13.1688 13.7523C13.123 13.758 13.0788 13.7729 13.0388 13.796C12.9988 13.819 12.9639 13.8499 12.9361 13.8868C12.9083 13.9236 12.8881 13.9656 12.8769 14.0104C12.8656 14.0552 12.8635 14.1017 12.8705 14.1474C12.8776 14.193 12.8938 14.2367 12.918 14.276C13.1056 14.6008 13.8405 15.0411 14.9308 15.1215V15.8187C13.2163 15.7291 11.8274 14.9801 11.8274 14.1035C11.8274 14.0121 11.791 13.9244 11.7264 13.8597C11.6617 13.795 11.574 13.7587 11.4825 13.7587C11.3911 13.7587 11.3034 13.795 11.2387 13.8597C11.174 13.9244 11.1377 14.0121 11.1377 14.1035C11.1377 15.457 12.9553 16.5173 15.2756 16.5173C17.596 16.5173 19.4136 15.457 19.4136 14.1035C19.4136 14.0121 19.3772 13.9244 19.3126 13.8597C19.2479 13.795 19.1602 13.7587 19.0687 13.7587Z" fill="#FDD7AD"/>
</g>
<defs>
<clipPath id="clip0_983_7051">
<rect width="20" height="20" fill="white" transform="translate(7 6)"/>
</clipPath>
</defs>
</svg>
