<svg width="20" height="20" viewBox="0 0 20 20" fill="none" xmlns="http://www.w3.org/2000/svg">
<g clip-path="url(#clip0_1266_3545)">
<path d="M10 20C15.5228 20 20 15.5228 20 10C20 4.47715 15.5228 0 10 0C4.47715 0 0 4.47715 0 10C0 15.5228 4.47715 20 10 20Z" fill="#F3C0E3"/>
<path d="M20 10C20 15.5227 15.5227 20 10 20C4.47734 20 0 15.5227 0 10C0 9.60352 0.0230469 9.2125 0.0679687 8.82812C0.648047 13.7984 4.87383 17.6562 10 17.6562C15.1262 17.6562 19.352 13.7984 19.932 8.82812C19.9774 9.2171 20.0001 9.60839 20 10Z" fill="#F3C0E3"/>
<path d="M6.10256 8.88232H13.8983C14.4959 8.88232 14.9811 9.36748 14.9811 9.96514V9.98428C14.9811 12.7226 12.758 14.9456 10.0198 14.9456H10.0006C7.25178 14.9456 5.02014 12.714 5.02014 9.96514C5.02014 9.36748 5.5053 8.88232 6.10295 8.88232H6.10256Z" fill="#473535"/>
<path d="M13.0781 13.8911C12.2351 14.5517 11.1734 14.9458 10.0191 14.9458H9.99993C8.84016 14.9458 7.77336 14.5497 6.92688 13.8849C7.6218 12.9435 8.73977 12.3325 9.99993 12.3325C11.2601 12.3325 12.3831 12.9458 13.0781 13.8911Z" fill="#F97294"/>
<path d="M14.439 9.02773V9.31563C14.439 10.0328 13.8574 10.6148 13.1398 10.6148H6.86013C6.14255 10.6148 5.56091 10.0328 5.56091 9.31563V9.02773C5.72029 8.93555 5.90505 8.88281 6.10232 8.88281H13.898C14.0949 8.88281 14.2801 8.93555 14.4394 9.02773H14.439Z" fill="white"/>
<path d="M16.303 0.348782L16.5377 2.48745C16.5447 2.55039 16.5668 2.6107 16.6022 2.66322C16.6376 2.71574 16.6851 2.75891 16.7408 2.78902L18.6358 3.80777C18.9209 3.96128 18.9065 4.37495 18.6112 4.50777L16.6498 5.39214C16.5326 5.44488 16.449 5.5523 16.426 5.67847L16.0424 7.79527C15.9846 8.11402 15.5865 8.22808 15.369 7.98824L13.9221 6.39605C13.8795 6.34908 13.8262 6.31321 13.7666 6.29156C13.707 6.26991 13.6431 6.26314 13.5803 6.27183L11.4487 6.56128C11.128 6.60503 10.8963 6.26167 11.0569 5.98042L12.1237 4.11245C12.1873 4.00074 12.192 3.8648 12.1362 3.74917L11.2022 1.81128C11.0615 1.51949 11.3166 1.19331 11.6334 1.25933L13.7397 1.69683C13.8655 1.723 13.9963 1.6855 14.0893 1.59644L15.6448 0.109329C15.8787 -0.114499 16.2678 0.0272981 16.303 0.348782ZM3.69749 0.348782L3.46272 2.48745C3.45575 2.55039 3.43363 2.6107 3.39826 2.66322C3.36288 2.71574 3.3153 2.75891 3.2596 2.78902L1.36468 3.80777C1.07952 3.96128 1.09397 4.37495 1.38928 4.50777L3.35061 5.39214C3.4678 5.44488 3.55139 5.5523 3.57444 5.67847L3.95803 7.79527C4.01585 8.11402 4.41389 8.22808 4.63147 7.98824L6.07835 6.39605C6.1209 6.34908 6.17428 6.31321 6.23384 6.29156C6.29341 6.26991 6.35736 6.26314 6.42014 6.27183L8.55178 6.56128C8.87249 6.60503 9.10413 6.26167 8.94358 5.98042L7.87678 4.11245C7.84542 4.05745 7.82789 3.99564 7.82571 3.93236C7.82354 3.86907 7.83677 3.80621 7.86428 3.74917L8.79827 1.81128C8.93889 1.51949 8.68382 1.19331 8.36702 1.25933L6.26077 1.69683C6.13499 1.723 6.00413 1.6855 5.91116 1.59644L4.35569 0.109329C4.12171 -0.114499 3.73264 0.0272981 3.69749 0.348782Z" fill="#F97294"/>
</g>
<defs>
<clipPath id="clip0_1266_3545">
<rect width="20" height="20" fill="white"/>
</clipPath>
</defs>
</svg>
