<svg width="37" height="37" viewBox="0 0 37 37" fill="none" xmlns="http://www.w3.org/2000/svg">
<rect width="37" height="37" rx="18.5" fill="#1E1E1E" fill-opacity="0.4"/>
<path d="M11 18.4913V20.5833C11 23.3331 11 24.708 11.8543 25.5623C12.7085 26.4166 14.0835 26.4166 16.8333 26.4166H20.1667C22.9165 26.4166 24.2914 26.4166 25.1457 25.5623C26 24.708 26 23.3331 26 20.5833V18.4913C26 17.0902 26 16.3897 25.7034 15.7833C25.4068 15.1769 24.8539 14.7468 23.748 13.8867L22.0813 12.5904C20.3609 11.2523 19.5007 10.5833 18.5 10.5833C17.4992 10.5833 16.6391 11.2523 14.9187 12.5904L13.252 13.8867C12.1461 14.7468 11.5932 15.1769 11.2966 15.7833C11 16.3897 11 17.0902 11 18.4913Z" fill="#FFBE78"/>
<path d="M11 18.4913V20.5833C11 23.3331 11 24.708 11.8543 25.5623C12.7085 26.4166 14.0835 26.4166 16.8333 26.4166H20.1667C22.9165 26.4166 24.2914 26.4166 25.1457 25.5623C26 24.708 26 23.3331 26 20.5833V18.4913C26 17.0902 26 16.3897 25.7034 15.7833C25.4068 15.1769 24.8539 14.7468 23.748 13.8867L22.0813 12.5904C20.3609 11.2523 19.5007 10.5833 18.5 10.5833C17.4992 10.5833 16.6391 11.2523 14.9187 12.5904L13.252 13.8867C12.1461 14.7468 11.5932 15.1769 11.2966 15.7833C11 16.3897 11 17.0902 11 18.4913Z" stroke="#E27000" stroke-width="1.5" stroke-linecap="round" stroke-linejoin="round"/>
<path d="M22.6666 23.0833V19.75" stroke="#E27000" stroke-width="1.5" stroke-linecap="round" stroke-linejoin="round"/>
</svg>
