<svg width="37" height="55" viewBox="0 0 37 55" fill="none" xmlns="http://www.w3.org/2000/svg">
<rect width="37" height="37" rx="18.5" fill="#1E1E1E" fill-opacity="0.4"/>
<path d="M11 18.4913V20.5833C11 23.3331 11 24.708 11.8543 25.5623C12.7085 26.4166 14.0835 26.4166 16.8333 26.4166H20.1667C22.9165 26.4166 24.2914 26.4166 25.1457 25.5623C26 24.708 26 23.3331 26 20.5833V18.4913C26 17.0902 26 16.3897 25.7034 15.7833C25.4068 15.1769 24.8539 14.7468 23.748 13.8867L22.0813 12.5904C20.3609 11.2523 19.5007 10.5833 18.5 10.5833C17.4992 10.5833 16.6391 11.2523 14.9187 12.5904L13.252 13.8867C12.1461 14.7468 11.5932 15.1769 11.2966 15.7833C11 16.3897 11 17.0902 11 18.4913Z" fill="#FFBE78"/>
<path d="M11 18.4913V20.5833C11 23.3331 11 24.708 11.8543 25.5623C12.7085 26.4166 14.0835 26.4166 16.8333 26.4166H20.1667C22.9165 26.4166 24.2914 26.4166 25.1457 25.5623C26 24.708 26 23.3331 26 20.5833V18.4913C26 17.0902 26 16.3897 25.7034 15.7833C25.4068 15.1769 24.8539 14.7468 23.748 13.8867L22.0813 12.5904C20.3609 11.2523 19.5007 10.5833 18.5 10.5833C17.4992 10.5833 16.6391 11.2523 14.9187 12.5904L13.252 13.8867C12.1461 14.7468 11.5932 15.1769 11.2966 15.7833C11 16.3897 11 17.0902 11 18.4913Z" stroke="#E27000" stroke-width="1.5" stroke-linecap="round" stroke-linejoin="round"/>
<path d="M22.6666 23.0833V19.75" stroke="#E27000" stroke-width="1.5" stroke-linecap="round" stroke-linejoin="round"/>
<path d="M8.6653 43.6H9.6733V52H8.6653V48.004H4.5073V52H3.4993V43.6H4.5073V46.996H8.6653V43.6ZM13.6979 52.156C13.1459 52.156 12.6419 52.014 12.1859 51.73C11.7339 51.446 11.3719 51.066 11.0999 50.59C10.8319 50.11 10.6979 49.58 10.6979 49C10.6979 48.56 10.7759 48.15 10.9319 47.77C11.0879 47.386 11.3019 47.05 11.5739 46.762C11.8499 46.47 12.1699 46.242 12.5339 46.078C12.8979 45.914 13.2859 45.832 13.6979 45.832C14.2499 45.832 14.7519 45.974 15.2039 46.258C15.6599 46.542 16.0219 46.924 16.2899 47.404C16.5619 47.884 16.6979 48.416 16.6979 49C16.6979 49.436 16.6199 49.844 16.4639 50.224C16.3079 50.604 16.0919 50.94 15.8159 51.232C15.5439 51.52 15.2259 51.746 14.8619 51.91C14.5019 52.074 14.1139 52.156 13.6979 52.156ZM13.6979 51.148C14.0739 51.148 14.4119 51.05 14.7119 50.854C15.0159 50.654 15.2539 50.392 15.4259 50.068C15.6019 49.74 15.6899 49.384 15.6899 49C15.6899 48.608 15.5999 48.248 15.4199 47.92C15.2439 47.592 15.0059 47.33 14.7059 47.134C14.4059 46.938 14.0699 46.84 13.6979 46.84C13.3219 46.84 12.9839 46.94 12.6839 47.14C12.3839 47.336 12.1459 47.598 11.9699 47.926C11.7939 48.254 11.7059 48.612 11.7059 49C11.7059 49.4 11.7959 49.764 11.9759 50.092C12.1559 50.416 12.3979 50.674 12.7019 50.866C13.0059 51.054 13.3379 51.148 13.6979 51.148ZM17.6907 52V46H18.6987V46.75C18.9107 46.47 19.1767 46.248 19.4967 46.084C19.8207 45.916 20.1727 45.832 20.5527 45.832C20.9967 45.832 21.4027 45.94 21.7707 46.156C22.1387 46.372 22.4287 46.658 22.6407 47.014C22.8527 46.658 23.1407 46.372 23.5047 46.156C23.8727 45.94 24.2767 45.832 24.7167 45.832C25.1687 45.832 25.5787 45.942 25.9467 46.162C26.3147 46.378 26.6067 46.67 26.8227 47.038C27.0427 47.406 27.1527 47.816 27.1527 48.268V52H26.1447V48.508C26.1447 48.212 26.0727 47.938 25.9287 47.686C25.7847 47.434 25.5907 47.232 25.3467 47.08C25.1027 46.928 24.8327 46.852 24.5367 46.852C24.2407 46.852 23.9707 46.924 23.7267 47.068C23.4827 47.208 23.2887 47.404 23.1447 47.656C23.0007 47.904 22.9287 48.188 22.9287 48.508V52H21.9207V48.508C21.9207 48.188 21.8487 47.904 21.7047 47.656C21.5607 47.404 21.3647 47.208 21.1167 47.068C20.8727 46.924 20.6027 46.852 20.3067 46.852C20.0147 46.852 19.7447 46.928 19.4967 47.08C19.2527 47.232 19.0587 47.434 18.9147 47.686C18.7707 47.938 18.6987 48.212 18.6987 48.508V52H17.6907ZM30.8776 52.156C30.3256 52.156 29.8216 52.014 29.3656 51.73C28.9136 51.446 28.5516 51.066 28.2796 50.59C28.0116 50.11 27.8776 49.58 27.8776 49C27.8776 48.56 27.9556 48.15 28.1116 47.77C28.2676 47.386 28.4816 47.05 28.7536 46.762C29.0296 46.47 29.3496 46.242 29.7136 46.078C30.0776 45.914 30.4656 45.832 30.8776 45.832C31.3296 45.832 31.7436 45.924 32.1196 46.108C32.4996 46.288 32.8236 46.54 33.0916 46.864C33.3636 47.188 33.5656 47.564 33.6976 47.992C33.8336 48.42 33.8836 48.878 33.8476 49.366H28.9516C28.9996 49.706 29.1116 50.01 29.2876 50.278C29.4636 50.542 29.6876 50.752 29.9596 50.908C30.2356 51.064 30.5416 51.144 30.8776 51.148C31.2376 51.148 31.5636 51.056 31.8556 50.872C32.1476 50.684 32.3836 50.428 32.5636 50.104L33.5896 50.344C33.3496 50.876 32.9876 51.312 32.5036 51.652C32.0196 51.988 31.4776 52.156 30.8776 52.156ZM28.9216 48.574H32.8336C32.8016 48.238 32.6936 47.932 32.5096 47.656C32.3256 47.376 32.0916 47.152 31.8076 46.984C31.5236 46.816 31.2136 46.732 30.8776 46.732C30.5416 46.732 30.2336 46.814 29.9536 46.978C29.6736 47.142 29.4416 47.364 29.2576 47.644C29.0776 47.92 28.9656 48.23 28.9216 48.574Z" fill="#E27000"/>
</svg>
