<svg width="16" height="16" viewBox="0 0 16 16" fill="none" xmlns="http://www.w3.org/2000/svg">
<g clip-path="url(#clip0_5139_5903)">
<path d="M8 16C12.4183 16 16 12.4183 16 8C16 3.58172 12.4183 0 8 0C3.58172 0 0 3.58172 0 8C0 12.4183 3.58172 16 8 16Z" fill="url(#paint0_linear_5139_5903)"/>
<path d="M11.1705 9.56603C11.1433 9.95666 10.1964 11.3082 7.96889 11.3082C5.74139 11.3082 4.79483 9.95666 4.76733 9.56603C4.74295 9.21541 4.98358 9.06791 5.27889 9.12822C5.57389 9.18853 6.30045 9.87072 7.96858 9.87072C9.6367 9.87072 10.3633 9.18853 10.6583 9.12791C10.9533 9.06759 11.1945 9.21478 11.1698 9.56572L11.1705 9.56603Z" fill="url(#paint1_radial_5139_5903)"/>
<path d="M10.7931 7.36945C11.8482 7.36945 12.7034 6.51418 12.7034 5.45914C12.7034 4.4041 11.8482 3.54883 10.7931 3.54883C9.73809 3.54883 8.88281 4.4041 8.88281 5.45914C8.88281 6.51418 9.73809 7.36945 10.7931 7.36945Z" fill="url(#paint2_radial_5139_5903)"/>
<path d="M10.7914 6.7C11.4766 6.7 12.032 6.14455 12.032 5.45937C12.032 4.7742 11.4766 4.21875 10.7914 4.21875C10.1062 4.21875 9.55078 4.7742 9.55078 5.45937C9.55078 6.14455 10.1062 6.7 10.7914 6.7Z" fill="url(#paint3_radial_5139_5903)"/>
<path d="M11.392 5.49875C11.7454 5.49875 12.032 5.21221 12.032 4.85875C12.032 4.50529 11.7454 4.21875 11.392 4.21875C11.0385 4.21875 10.752 4.50529 10.752 4.85875C10.752 5.21221 11.0385 5.49875 11.392 5.49875Z" fill="white"/>
<path d="M5.17594 7.36945C6.23097 7.36945 7.08625 6.51418 7.08625 5.45914C7.08625 4.4041 6.23097 3.54883 5.17594 3.54883C4.1209 3.54883 3.26562 4.4041 3.26562 5.45914C3.26562 6.51418 4.1209 7.36945 5.17594 7.36945Z" fill="url(#paint4_radial_5139_5903)"/>
<path d="M5.17617 6.7C5.86135 6.7 6.4168 6.14455 6.4168 5.45937C6.4168 4.7742 5.86135 4.21875 5.17617 4.21875C4.49099 4.21875 3.93555 4.7742 3.93555 5.45937C3.93555 6.14455 4.49099 6.7 5.17617 6.7Z" fill="url(#paint5_radial_5139_5903)"/>
<path d="M5.77672 5.49875C6.13018 5.49875 6.41672 5.21221 6.41672 4.85875C6.41672 4.50529 6.13018 4.21875 5.77672 4.21875C5.42326 4.21875 5.13672 4.50529 5.13672 4.85875C5.13672 5.21221 5.42326 5.49875 5.77672 5.49875Z" fill="white"/>
</g>
<defs>
<linearGradient id="paint0_linear_5139_5903" x1="2.34312" y1="2.34312" x2="13.6569" y2="13.6569" gradientUnits="userSpaceOnUse">
<stop offset="0.1" stop-color="#FFD900"/>
<stop offset="0.4" stop-color="#FFD900"/>
<stop offset="0.51" stop-color="#FFD900"/>
<stop offset="0.74" stop-color="#FFD900"/>
<stop offset="0.9" stop-color="#FFD900"/>
</linearGradient>
<radialGradient id="paint1_radial_5139_5903" cx="0" cy="0" r="1" gradientUnits="userSpaceOnUse" gradientTransform="translate(7.96889 10.2117) scale(2.39406)">
<stop stop-color="#614444"/>
<stop offset="0.38" stop-color="#583C3C"/>
<stop offset="1" stop-color="#402828"/>
</radialGradient>
<radialGradient id="paint2_radial_5139_5903" cx="0" cy="0" r="1" gradientUnits="userSpaceOnUse" gradientTransform="translate(10.7931 5.45914) scale(1.91031)">
<stop offset="0.75" stop-color="white"/>
<stop offset="0.82" stop-color="#FAFAFA"/>
<stop offset="0.89" stop-color="#EEEEEE"/>
<stop offset="0.96" stop-color="#D9D9D9"/>
<stop offset="1" stop-color="#CCCCCC"/>
</radialGradient>
<radialGradient id="paint3_radial_5139_5903" cx="0" cy="0" r="1" gradientUnits="userSpaceOnUse" gradientTransform="translate(10.7914 5.45937) scale(1.24062)">
<stop stop-color="#705454"/>
<stop offset="0.27" stop-color="#674C4C"/>
<stop offset="0.71" stop-color="#4E3838"/>
<stop offset="1" stop-color="#3B2828"/>
</radialGradient>
<radialGradient id="paint4_radial_5139_5903" cx="0" cy="0" r="1" gradientUnits="userSpaceOnUse" gradientTransform="translate(5.17594 5.45914) scale(1.91031)">
<stop offset="0.75" stop-color="white"/>
<stop offset="0.82" stop-color="#FAFAFA"/>
<stop offset="0.89" stop-color="#EEEEEE"/>
<stop offset="0.96" stop-color="#D9D9D9"/>
<stop offset="1" stop-color="#CCCCCC"/>
</radialGradient>
<radialGradient id="paint5_radial_5139_5903" cx="0" cy="0" r="1" gradientUnits="userSpaceOnUse" gradientTransform="translate(5.17617 5.45937) scale(1.24063)">
<stop stop-color="#705454"/>
<stop offset="0.27" stop-color="#674C4C"/>
<stop offset="0.71" stop-color="#4E3838"/>
<stop offset="1" stop-color="#3B2828"/>
</radialGradient>
<clipPath id="clip0_5139_5903">
<rect width="16" height="16" fill="white"/>
</clipPath>
</defs>
</svg>
