<svg width="40" height="40" viewBox="0 0 40 40" fill="none" xmlns="http://www.w3.org/2000/svg">
<rect width="40" height="40" rx="20" fill="#EDEDED"/>
<path d="M27.8125 13.125H12.1875C10.9813 13.125 10 14.1063 10 15.3125V24.6875C10 25.8937 10.9813 26.875 12.1875 26.875H27.8125C29.0187 26.875 30 25.8937 30 24.6875V15.3125C30 14.1063 29.0187 13.125 27.8125 13.125ZM12.1875 14.375H27.8125C28.3294 14.375 28.75 14.7956 28.75 15.3125V16.5625H11.25V15.3125C11.25 14.7956 11.6706 14.375 12.1875 14.375ZM27.8125 25.625H12.1875C11.6706 25.625 11.25 25.2044 11.25 24.6875V17.8125H28.75V24.6875C28.75 25.2044 28.3294 25.625 27.8125 25.625Z" fill="#727272"/>
<path d="M14.375 23.75H13.75C13.4048 23.75 13.125 23.4702 13.125 23.125V22.5C13.125 22.1548 13.4048 21.875 13.75 21.875H14.375C14.7202 21.875 15 22.1548 15 22.5V23.125C15 23.4702 14.7202 23.75 14.375 23.75Z" fill="#727272"/>
</svg>
