<svg width="37" height="37" viewBox="0 0 37 37" fill="none" xmlns="http://www.w3.org/2000/svg">
<rect width="37" height="37" rx="18.5" fill="#1E1E1E" fill-opacity="0.4"/>
<path d="M21.7167 10.5H14.7417C11.7084 10.5 9.90002 12.3083 9.90002 15.3417V22.3167C9.90002 25.35 11.7084 27.1583 14.7417 27.1583H21.7167C24.75 27.1583 26.5583 25.35 26.5583 22.3167V15.3417C26.5583 12.3083 24.75 10.5 21.7167 10.5Z" fill="#FFBE78"/>
<path d="M17.8 15.9918V23.6252C17.8 23.9252 17.5 24.1252 17.225 24.0085C16.2167 23.5752 14.9 23.1752 13.9833 23.0585L13.825 23.0418C13.3167 22.9752 12.9 22.5002 12.9 21.9835V15.5668C12.9 14.9335 13.4167 14.4585 14.05 14.5085C15.0917 14.5918 16.6334 15.0918 17.6 15.6418C17.725 15.7002 17.8 15.8418 17.8 15.9918Z" fill="#E27000"/>
<path d="M23.5334 15.6667V21.975C23.5334 22.4917 23.1168 22.9667 22.6084 23.0333L22.4334 23.05C21.5251 23.175 20.2168 23.5667 19.2084 23.9917C18.9334 24.1083 18.6334 23.9084 18.6334 23.6084V15.9833C18.6334 15.8333 18.7084 15.6917 18.8418 15.6167C19.8084 15.075 21.3168 14.5917 22.3418 14.5H22.3751C23.0167 14.5083 23.5334 15.025 23.5334 15.6667Z" fill="#E27000"/>
</svg>
