<svg width="20" height="20" viewBox="0 0 20 20" fill="none" xmlns="http://www.w3.org/2000/svg">
<g clip-path="url(#clip0_5139_3633)">
<path d="M10 0C4.47721 0 0 4.47721 0 10C0 15.5228 4.47721 20 10 20C15.5228 20 20 15.5228 20 10C19.9938 4.47983 15.5202 0.00616667 10 0ZM18.6486 13.5033L15.8047 13.994C16.1302 12.8002 16.306 11.5705 16.3279 10.3333H19.325C19.2874 11.4215 19.0584 12.4945 18.6485 13.5033H18.6486ZM0.675 10.3333H3.67208C3.69407 11.5705 3.86985 12.8002 4.19538 13.994L1.35146 13.5033C0.941575 12.4945 0.712576 11.4215 0.674958 10.3333H0.675ZM1.35146 6.49675L4.19538 6.00604C3.86983 7.19983 3.69402 8.42948 3.672 9.66667H0.675C0.712604 8.5785 0.941589 7.50547 1.35146 6.49675ZM10.3333 5.35204C11.5312 5.36731 12.726 5.47643 13.9067 5.67838L15.0833 5.88133C15.4448 7.1115 15.6393 8.38468 15.6616 9.66667H10.3333V5.35204ZM14.0203 5.02133C12.802 4.81308 11.5692 4.70075 10.3333 4.68538V0.685375C12.2443 0.868958 13.9043 2.61867 14.845 5.16504L14.0203 5.02133ZM9.66667 4.68538C8.43088 4.70075 7.19821 4.81309 5.98 5.02133L5.15496 5.16404C6.09571 2.61708 7.75571 0.86675 9.66667 0.683958V4.68538ZM6.09358 5.67838C7.27426 5.47643 8.46894 5.36734 9.66667 5.35208V9.66667H4.33838C4.36066 8.38468 4.55517 7.1115 4.91667 5.88133L6.09358 5.67838ZM4.33838 10.3333H9.66667V14.6479C8.46883 14.6327 7.27404 14.5236 6.09325 14.3216L4.91667 14.1187C4.55517 12.8885 4.36066 11.6153 4.33838 10.3333ZM5.97963 14.9787C7.19796 15.1872 8.43073 15.3001 9.66667 15.3164V19.3164C7.75571 19.1327 6.09571 17.383 5.15496 14.8366L5.97963 14.9787ZM10.3333 15.3164C11.5691 15.3001 12.8018 15.1872 14.02 14.9787L14.845 14.836C13.9043 17.3829 12.2443 19.1333 10.3333 19.3161V15.3164ZM13.9064 14.3216C12.7257 14.5236 11.5311 14.6327 10.3333 14.6479V10.3333H15.6616C15.6393 11.6153 15.4448 12.8885 15.0833 14.1187L13.9064 14.3216ZM16.3279 9.66667C16.3059 8.42948 16.1302 7.19984 15.8047 6.00604L18.6485 6.49675C19.0584 7.50547 19.2874 8.5785 19.325 9.66667H16.3279ZM18.3113 5.76208L15.5853 5.29167C15.0952 3.69282 14.1783 2.25795 12.9333 1.14158C15.2616 1.91855 17.1924 3.57742 18.3114 5.76208H18.3113ZM7.06675 1.14154C5.82168 2.25792 4.90475 3.6928 4.41471 5.29167L1.68863 5.76208C2.80755 3.57741 4.73843 1.91852 7.06675 1.14154ZM1.68863 14.238L4.41471 14.7083C4.90475 16.3072 5.82168 17.7421 7.06675 18.8584C4.73843 18.0814 2.80755 16.4226 1.68863 14.2379V14.238ZM12.9333 18.8583C14.1783 17.742 15.0952 16.3072 15.5853 14.7083L18.3114 14.2379C17.1924 16.4226 15.2616 18.0814 12.9333 18.8584V18.8583Z" fill="#E27000"/>
</g>
<defs>
<clipPath id="clip0_5139_3633">
<rect width="20" height="20" fill="white"/>
</clipPath>
</defs>
</svg>
