<svg width="20" height="20" viewBox="0 0 20 20" fill="none" xmlns="http://www.w3.org/2000/svg">
<path d="M7.54359 1.04199C8.68275 1.04199 9.60192 1.04199 10.3244 1.13949C11.0744 1.23949 11.7061 1.45616 12.2078 1.95699C12.6444 2.39449 12.8661 2.93199 12.9819 3.56366C13.0944 4.17783 13.1161 4.92866 13.1211 5.83033C13.122 5.99609 13.057 6.15541 12.9404 6.27324C12.8238 6.39108 12.6652 6.45778 12.4994 6.45866C12.3337 6.45954 12.1743 6.39454 12.0565 6.27796C11.9387 6.16137 11.872 6.00275 11.8711 5.83699C11.8661 4.92616 11.8428 4.28033 11.7528 3.78949C11.6653 3.31783 11.5261 3.04366 11.3236 2.84116C11.0928 2.61033 10.7686 2.46033 10.1569 2.37783C9.52775 2.29366 8.69358 2.29199 7.49775 2.29199H6.66442C5.46775 2.29199 4.63359 2.29366 4.00442 2.37783C3.39275 2.46033 3.06942 2.61116 2.83775 2.84116C2.60609 3.07116 2.45775 3.39533 2.37525 4.00783C2.29025 4.63616 2.28942 5.47116 2.28942 6.66699V13.3337C2.28942 14.5295 2.29025 15.3645 2.37525 15.9937C2.45775 16.6053 2.60775 16.9287 2.83859 17.1595C3.06942 17.3903 3.39275 17.5403 4.00442 17.6228C4.63359 17.707 5.46775 17.7087 6.66442 17.7087H7.49775C8.69358 17.7087 9.52775 17.707 10.1578 17.6228C10.7686 17.5403 11.0928 17.3895 11.3236 17.1595C11.5261 16.957 11.6653 16.6828 11.7528 16.2112C11.8428 15.7203 11.8661 15.0745 11.8711 14.1637C11.8715 14.0816 11.8881 14.0004 11.9199 13.9247C11.9517 13.8491 11.9982 13.7804 12.0565 13.7227C12.1148 13.665 12.184 13.6193 12.26 13.5883C12.336 13.5573 12.4173 13.5416 12.4994 13.542C12.5815 13.5424 12.6627 13.559 12.7383 13.5908C12.814 13.6227 12.8827 13.6691 12.9404 13.7274C12.9981 13.7858 13.0438 13.8549 13.0748 13.9309C13.1058 14.0069 13.1215 14.0883 13.1211 14.1703C13.1161 15.072 13.0944 15.8228 12.9819 16.437C12.8653 17.0687 12.6444 17.6062 12.2069 18.0437C11.7061 18.5453 11.0736 18.7603 10.3236 18.862C9.60192 18.9587 8.68275 18.9587 7.54359 18.9587H6.61858C5.47858 18.9587 4.56025 18.9587 3.83775 18.8612C3.08775 18.7612 2.45609 18.5445 1.95442 18.0437C1.45275 17.542 1.23775 16.9103 1.13608 16.1603C1.03942 15.4378 1.03942 14.5187 1.03942 13.3795V6.62116C1.03942 5.48199 1.03942 4.56283 1.13608 3.84033C1.23692 3.09033 1.45275 2.45866 1.95442 1.95699C2.45609 1.45533 3.08775 1.24033 3.83775 1.13949C4.56025 1.04199 5.47942 1.04199 6.61858 1.04199H7.54359Z" fill="#E27000"/>
<path d="M7.49823 9.3753C7.33247 9.3753 7.1735 9.44115 7.05629 9.55836C6.93908 9.67557 6.87323 9.83454 6.87323 10.0003C6.87323 10.1661 6.93908 10.325 7.05629 10.4422C7.1735 10.5595 7.33247 10.6253 7.49823 10.6253H16.6424L15.0082 12.0253C14.8823 12.1332 14.8043 12.2866 14.7915 12.452C14.7787 12.6173 14.832 12.781 14.9399 12.907C15.0478 13.0329 15.2012 13.1109 15.3666 13.1237C15.5319 13.1366 15.6956 13.0832 15.8216 12.9753L18.7382 10.4753C18.8068 10.4166 18.8619 10.3438 18.8997 10.2618C18.9375 10.1798 18.957 10.0906 18.957 10.0003C18.957 9.91002 18.9375 9.82082 18.8997 9.73882C18.8619 9.65682 18.8068 9.58398 18.7382 9.5253L15.8216 7.0253C15.7592 6.9719 15.6869 6.9313 15.6088 6.90584C15.5308 6.88037 15.4485 6.87052 15.3666 6.87687C15.2847 6.88322 15.2049 6.90562 15.1317 6.94282C15.0585 6.98001 14.9933 7.03126 14.9399 7.09364C14.8865 7.15601 14.8459 7.2283 14.8204 7.30637C14.795 7.38443 14.7851 7.46675 14.7915 7.54862C14.7978 7.63049 14.8202 7.71031 14.8574 7.78352C14.8946 7.85673 14.9459 7.9219 15.0082 7.9753L16.6416 9.3753H7.49823Z" fill="#E27000"/>
</svg>
