<svg width="20" height="20" viewBox="0 0 20 20" fill="none" xmlns="http://www.w3.org/2000/svg">
<path d="M14.3775 14.3752H5.62748C5.46172 14.3752 5.30275 14.3093 5.18554 14.1921C5.06833 14.0749 5.00248 13.9159 5.00248 13.7502C5.00248 13.5844 5.06833 13.4255 5.18554 13.3082C5.30275 13.191 5.46172 13.1252 5.62748 13.1252H14.3775C14.5432 13.1252 14.7022 13.191 14.8194 13.3082C14.9366 13.4255 15.0025 13.5844 15.0025 13.7502C15.0025 13.9159 14.9366 14.0749 14.8194 14.1921C14.7022 14.3093 14.5432 14.3752 14.3775 14.3752ZM7.72186 9.58675C7.59561 9.58675 7.46779 9.54862 7.35748 9.46894L3.38748 6.61237C3.31902 6.56519 3.26067 6.50482 3.21584 6.4348C3.171 6.36478 3.14059 6.28652 3.12638 6.20459C3.11217 6.12267 3.11445 6.03874 3.13308 5.95771C3.15172 5.87668 3.18633 5.80019 3.2349 5.7327C3.28346 5.66522 3.345 5.6081 3.41592 5.5647C3.48683 5.5213 3.5657 5.49248 3.64789 5.47993C3.73008 5.46739 3.81395 5.47137 3.89458 5.49164C3.97522 5.51192 4.051 5.54807 4.11748 5.598L8.08748 8.45456C8.1948 8.53184 8.27484 8.64117 8.31609 8.76682C8.35733 8.89247 8.35766 9.02797 8.31702 9.15382C8.27638 9.27967 8.19686 9.38938 8.08992 9.46717C7.98297 9.54497 7.8541 9.58683 7.72186 9.58675ZM12.2831 9.58675C12.1509 9.58683 12.022 9.54497 11.915 9.46717C11.8081 9.38938 11.7286 9.27967 11.6879 9.15382C11.6473 9.02797 11.6476 8.89247 11.6889 8.76682C11.7301 8.64117 11.8102 8.53184 11.9175 8.45456L15.8875 5.598C16.0222 5.50517 16.1878 5.46884 16.349 5.49679C16.5102 5.52474 16.6539 5.61476 16.7495 5.74752C16.845 5.88028 16.8847 6.0452 16.86 6.20689C16.8354 6.36858 16.7483 6.51416 16.6175 6.61237L12.6475 9.46894C12.5415 9.5456 12.4139 9.58683 12.2831 9.58675Z" fill="#E27000"/>
<path d="M7.72276 9.58702C7.61886 9.58714 7.51657 9.56133 7.42516 9.51193C7.33376 9.46252 7.25612 9.39109 7.1993 9.3041C7.14248 9.21712 7.10826 9.11732 7.09975 9.01377C7.09125 8.91021 7.10871 8.80617 7.15058 8.71108L9.43058 3.49951C9.46343 3.42428 9.51079 3.35627 9.56996 3.29936C9.62913 3.24246 9.69893 3.19778 9.77539 3.16788C9.85184 3.13798 9.93344 3.12345 10.0155 3.12513C10.0976 3.1268 10.1785 3.14465 10.2537 3.17764C10.3289 3.21049 10.397 3.25786 10.4539 3.31702C10.5108 3.37619 10.5554 3.446 10.5853 3.52245C10.6152 3.59891 10.6298 3.68051 10.6281 3.76258C10.6264 3.84466 10.6086 3.92559 10.5756 4.00076L8.29558 9.21233C8.24689 9.32373 8.16676 9.4185 8.06502 9.48506C7.96328 9.55161 7.84434 9.58704 7.72276 9.58702Z" fill="#E27000"/>
<path d="M12.2841 9.58686C12.1625 9.58689 12.0436 9.55146 11.9418 9.4849C11.8401 9.41835 11.76 9.32358 11.7113 9.21218L9.43128 4.00061C9.36713 3.84918 9.36526 3.67855 9.42607 3.52574C9.48688 3.37293 9.60547 3.25025 9.75613 3.1843C9.90679 3.11834 10.0774 3.11443 10.2309 3.17341C10.3844 3.23239 10.5085 3.3495 10.5763 3.49936L12.8563 8.71093C12.898 8.80603 12.9153 8.91003 12.9067 9.01352C12.8981 9.11701 12.8639 9.21673 12.8071 9.30367C12.7503 9.39061 12.6728 9.46203 12.5815 9.51147C12.4901 9.56092 12.3879 9.58683 12.2841 9.58686ZM5.62815 14.375C5.34722 14.375 5.09159 14.1844 5.0219 13.8991L3.1469 6.25405C3.12735 6.17434 3.12369 6.09155 3.13613 6.01042C3.14857 5.92928 3.17686 5.8514 3.21941 5.7812C3.26195 5.71101 3.3179 5.64988 3.38406 5.60131C3.45023 5.55273 3.52531 5.51767 3.60503 5.49811C3.76602 5.45862 3.93611 5.4847 4.07788 5.57062C4.21964 5.65653 4.32147 5.79524 4.36097 5.95624L6.23597 13.6012C6.25853 13.6933 6.25985 13.7893 6.23983 13.882C6.21981 13.9746 6.17898 14.0615 6.12042 14.1361C6.06185 14.2106 5.9871 14.2709 5.90182 14.3123C5.81653 14.3537 5.72295 14.3751 5.62815 14.375ZM14.3794 14.375C14.2846 14.3751 14.191 14.3537 14.1056 14.3123C14.0203 14.2708 13.9456 14.2106 13.887 14.136C13.8284 14.0614 13.7876 13.9745 13.7676 13.8818C13.7476 13.7891 13.749 13.693 13.7716 13.6009L15.6466 5.95593C15.6861 5.79493 15.7879 5.65622 15.9297 5.5703C16.0714 5.48439 16.2415 5.45831 16.4025 5.4978C16.5635 5.53729 16.7022 5.63912 16.7881 5.78089C16.8741 5.92266 16.9001 6.09274 16.8607 6.25374L14.9857 13.8987C14.9524 14.0345 14.8746 14.1551 14.7647 14.2415C14.6548 14.3278 14.5192 14.3748 14.3794 14.375ZM14.3788 16.875H5.62878C5.46302 16.875 5.30405 16.8091 5.18684 16.6919C5.06963 16.5747 5.00378 16.4158 5.00378 16.25C5.00378 16.0842 5.06963 15.9253 5.18684 15.808C5.30405 15.6908 5.46302 15.625 5.62878 15.625H14.3788C14.5445 15.625 14.7035 15.6908 14.8207 15.808C14.9379 15.9253 15.0038 16.0842 15.0038 16.25C15.0038 16.4158 14.9379 16.5747 14.8207 16.6919C14.7035 16.8091 14.5445 16.875 14.3788 16.875Z" fill="#E27000"/>
</svg>
