<svg width="20" height="20" viewBox="0 0 20 20" fill="none" xmlns="http://www.w3.org/2000/svg">
<g clip-path="url(#clip0_5139_3602)">
<path d="M19.0244 14.9419C18.9148 13.8 17.8954 12.9032 16.7083 12.9032C16.6748 12.9034 16.6415 12.8969 16.6105 12.8842C16.5795 12.8715 16.5513 12.8527 16.5276 12.829C16.5039 12.8053 16.4852 12.7771 16.4724 12.7461C16.4597 12.7151 16.4532 12.6819 16.4534 12.6483V8.84834C16.4534 6.02576 14.647 3.56448 12.1599 2.64513C12.1889 2.49995 12.205 2.35159 12.205 2.20318C12.2051 0.987117 11.218 0 10.0018 0C8.78566 0 7.7986 0.987117 7.7986 2.20324C7.7986 2.34842 7.8147 2.49354 7.84051 2.63226C6.9857 2.93549 6.19537 3.41612 5.52118 4.06774C4.25022 5.29355 3.55023 6.94193 3.55023 8.70967V12.6484C3.55023 12.7871 3.43732 12.9033 3.29537 12.9033C2.10506 12.9033 1.08891 13.8 0.979226 14.942C0.917922 15.5775 1.12764 16.2097 1.55666 16.6807C1.98245 17.1484 2.59215 17.4194 3.22761 17.4194H7.11795C7.27924 18.8678 8.51152 20.0001 10.0018 20.0001C11.4922 20.0001 12.7244 18.8678 12.8857 17.4194H16.7761C17.4116 17.4194 18.0212 17.1484 18.447 16.6807C18.8728 16.2096 19.0857 15.5774 19.0244 14.9419ZM10.0018 1.2903C10.505 1.2903 10.9147 1.69998 10.9147 2.20318C10.9147 2.24509 10.9083 2.28383 10.9018 2.32574C10.6824 2.29347 10.4598 2.2709 10.2372 2.26443C9.85337 2.2515 9.47595 2.27736 9.10177 2.32897C9.09531 2.28706 9.08884 2.24833 9.08884 2.20641C9.08895 1.69998 9.49863 1.2903 10.0018 1.2903ZM10.0018 18.7096C9.22443 18.7096 8.57282 18.1548 8.42117 17.4193H11.5824C11.4309 18.1548 10.7793 18.7096 10.0018 18.7096ZM17.4922 15.8129C17.3051 16.0161 17.0534 16.129 16.776 16.129H3.22766C2.95023 16.129 2.69865 16.0161 2.51151 15.8129C2.32442 15.6097 2.23731 15.3419 2.26635 15.0645C2.31149 14.5774 2.76637 14.1935 3.29861 14.1935C4.15024 14.1935 4.84376 13.5 4.84376 12.6484V8.70967C4.84376 7.29677 5.40504 5.97743 6.42119 4.99678C7.38891 4.05809 8.65346 3.54837 10.0018 3.54837C10.0664 3.54837 10.1276 3.54837 10.1922 3.55161C12.9309 3.64836 15.1631 6.02581 15.1631 8.84839V12.6484C15.1631 13.5 15.8567 14.1935 16.7083 14.1935C17.2405 14.1935 17.6954 14.5774 17.7406 15.0645C17.7664 15.3419 17.6792 15.6065 17.4922 15.8129ZM1.647 7.74195C1.94377 7.74195 2.21151 7.53552 2.27604 7.23552C2.58892 5.81938 3.29537 4.52908 4.32763 3.50328C4.57926 3.25166 4.57926 2.84197 4.32763 2.5904C4.07601 2.33877 3.66632 2.33877 3.41475 2.5904C2.20833 3.7903 1.37927 5.30325 1.01478 6.96126C0.937369 7.30964 1.15673 7.65479 1.50511 7.72902C1.55671 7.73872 1.60186 7.74195 1.647 7.74195ZM18.3567 7.74195C18.4018 7.74195 18.4502 7.73549 18.4954 7.72584C18.8438 7.64843 19.0631 7.30646 18.9857 6.95809C18.6212 5.30002 17.7922 3.79036 16.5857 2.58711C16.3341 2.33549 15.9244 2.33549 15.6728 2.58711C15.4212 2.83874 15.4212 3.24842 15.6728 3.5C16.7018 4.52579 17.4115 5.81615 17.7244 7.23223C17.7922 7.53547 18.0599 7.74195 18.3567 7.74195Z" fill="#E27000"/>
</g>
<defs>
<clipPath id="clip0_5139_3602">
<rect width="20" height="20" fill="white"/>
</clipPath>
</defs>
</svg>
