<svg width="32" height="32" viewBox="0 0 32 32" fill="none" xmlns="http://www.w3.org/2000/svg">
<rect width="32" height="32" rx="16" fill="#565656" fill-opacity="0.6"/>
<g clip-path="url(#clip0_983_7098)">
<path d="M24.3881 8.97452C24.3195 8.95191 24.2594 8.90902 24.2157 8.85152C24.172 8.79402 24.1468 8.72462 24.1434 8.65248C24.1353 8.47132 24.0683 8.29775 23.9526 8.15815C23.8369 8.01855 23.6787 7.92055 23.5022 7.87905C23.3296 7.83356 23.1465 7.85153 22.9861 7.92967C22.9331 7.95588 22.875 7.96982 22.8159 7.97045C22.7654 7.97012 22.7156 7.95875 22.6699 7.93713C22.6242 7.91551 22.5838 7.88417 22.5515 7.8453C22.4288 7.70506 22.2623 7.6104 22.079 7.5767C21.9896 7.55793 21.8973 7.55745 21.8076 7.5753C21.638 7.60891 21.4825 7.69326 21.3619 7.81717C21.2833 7.89412 21.2224 7.9872 21.1833 8.08998C21.1588 8.16416 21.1112 8.22852 21.0474 8.27358C20.9836 8.31864 20.907 8.34203 20.8289 8.3403L20.8134 8.33889C20.6399 8.34321 20.4723 8.40244 20.3345 8.50806C20.1968 8.61368 20.0962 8.76025 20.047 8.9267C19.9918 9.09901 19.9992 9.28531 20.0681 9.45264C20.099 9.52233 20.111 9.59893 20.1029 9.67473C20.0947 9.75053 20.0667 9.82284 20.0217 9.88436C19.9432 9.99931 19.8945 10.1319 19.8797 10.2703C19.865 10.4087 19.8848 10.5486 19.9373 10.6775C19.9894 10.8052 20.0726 10.9179 20.1795 11.0051C20.2864 11.0923 20.4134 11.1513 20.549 11.1767C20.6409 11.1954 20.7355 11.1959 20.8275 11.1781C20.8543 11.1725 20.8816 11.1697 20.909 11.1697C20.9744 11.1695 21.0385 11.1875 21.0944 11.2214C21.1502 11.2554 21.1956 11.3042 21.2255 11.3623C21.2826 11.4684 21.3632 11.5601 21.4612 11.6303C21.5592 11.7005 21.6719 11.7473 21.7908 11.7673C21.9025 11.7899 22.0179 11.7871 22.1284 11.7591C22.2389 11.7311 22.3417 11.6787 22.4292 11.6056C22.4988 11.5441 22.588 11.5092 22.6809 11.5072C22.7585 11.5084 22.8341 11.5319 22.8989 11.5747C23.0156 11.6493 23.1494 11.6932 23.2877 11.7023C23.426 11.7113 23.5643 11.6852 23.6898 11.6264C23.8153 11.5676 23.9238 11.478 24.0054 11.3659C24.0869 11.2538 24.1387 11.123 24.1561 10.9855L24.1617 10.9517C24.1715 10.8519 24.2075 10.7564 24.266 10.6749C24.3245 10.5934 24.4035 10.5288 24.495 10.4876C24.6272 10.4241 24.7387 10.3245 24.8168 10.2004C24.8949 10.0762 24.9364 9.93259 24.9365 9.78592C24.9441 9.60977 24.8948 9.43586 24.7961 9.28979C24.6974 9.14372 24.5544 9.03321 24.3881 8.97452ZM21.4547 9.07436C21.3687 9.09891 21.2913 9.14712 21.2314 9.21351C21.1715 9.27989 21.1314 9.36178 21.1158 9.44983C21.1071 9.51764 21.0741 9.57999 21.0229 9.62527C20.9716 9.67054 20.9057 9.69565 20.8373 9.69592C20.8256 9.69574 20.8138 9.6948 20.8022 9.69311C20.7655 9.68859 20.7301 9.67689 20.698 9.65868C20.6658 9.64047 20.6376 9.61611 20.6149 9.58699C20.5922 9.55787 20.5754 9.52456 20.5655 9.48896C20.5557 9.45336 20.553 9.41617 20.5575 9.37952C20.5866 9.1825 20.6719 8.99805 20.8031 8.84818C20.9342 8.69831 21.1058 8.58937 21.2972 8.53436C21.3326 8.52402 21.3698 8.52076 21.4065 8.52478C21.4432 8.52879 21.4788 8.54 21.5112 8.55776C21.5435 8.57552 21.5721 8.59948 21.5952 8.62828C21.6184 8.65708 21.6356 8.69015 21.6459 8.72561C21.6563 8.76107 21.6595 8.79821 21.6555 8.83493C21.6515 8.87164 21.6403 8.90721 21.6225 8.93959C21.6048 8.97198 21.5808 9.00055 21.552 9.02367C21.5232 9.04679 21.4901 9.06402 21.4547 9.07436Z" fill="#FFDB80"/>
<path d="M24.936 9.786C24.9359 9.93266 24.8944 10.0763 24.8163 10.2004C24.7382 10.3246 24.6267 10.4241 24.4945 10.4877C24.403 10.5289 24.324 10.5935 24.2655 10.675C24.207 10.7565 24.171 10.8519 24.1612 10.9518L24.1556 10.9855C24.1299 11.1843 24.0326 11.367 23.8819 11.4992C23.7313 11.6315 23.5376 11.7043 23.3371 11.7041C23.316 11.7046 23.2949 11.7036 23.2739 11.7013C23.1402 11.6905 23.0113 11.647 22.8984 11.5747C22.8336 11.5319 22.758 11.5085 22.6804 11.5072C22.5875 11.5093 22.4983 11.5441 22.4287 11.6057C22.3095 11.704 22.1635 11.7643 22.0096 11.7787C21.9886 11.781 21.9675 11.7819 21.9464 11.7815H21.9435C21.9196 11.7815 21.8943 11.7801 21.869 11.7787C21.8437 11.7758 21.817 11.773 21.7903 11.7674C21.6714 11.7474 21.5587 11.7005 21.4607 11.6303C21.3628 11.5602 21.2821 11.4685 21.225 11.3624C21.1951 11.3043 21.1497 11.2555 21.0939 11.2215C21.038 11.1875 20.9739 11.1696 20.9085 11.1697C20.8811 11.1698 20.8538 11.1726 20.827 11.1782C20.8059 11.1824 20.7834 11.1852 20.7609 11.188C20.7371 11.1904 20.7131 11.1913 20.6892 11.1908C20.6667 11.1908 20.6442 11.1894 20.6203 11.188C20.5962 11.1857 20.5722 11.1819 20.5485 11.1768C20.4129 11.1514 20.2859 11.0924 20.179 11.0052C20.0721 10.918 19.9889 10.8053 19.9368 10.6776C19.859 10.4862 19.8545 10.2729 19.9242 10.0785C19.9271 10.0911 19.9314 10.1033 19.9368 10.1151C19.9889 10.2428 20.0721 10.3555 20.179 10.4427C20.2859 10.5299 20.4129 10.5889 20.5485 10.6143C20.6404 10.633 20.735 10.6335 20.827 10.6157C20.8538 10.6101 20.8811 10.6073 20.9085 10.6072C20.9739 10.6071 21.038 10.625 21.0939 10.659C21.1497 10.693 21.1951 10.7418 21.225 10.7999C21.2821 10.906 21.3628 10.9977 21.4607 11.0678C21.5587 11.138 21.6714 11.1849 21.7903 11.2049C21.902 11.2275 22.0174 11.2247 22.1279 11.1967C22.2384 11.1687 22.3412 11.1162 22.4287 11.0432C22.4983 10.9816 22.5875 10.9468 22.6804 10.9447C22.758 10.946 22.8336 10.9694 22.8984 11.0122C23.0152 11.0869 23.1489 11.1308 23.2872 11.1398C23.4255 11.1489 23.5638 11.1228 23.6893 11.064C23.8148 11.0051 23.9233 10.9155 24.0049 10.8035C24.0864 10.6914 24.1383 10.5605 24.1556 10.423L24.1612 10.3893C24.171 10.2894 24.207 10.194 24.2655 10.1125C24.324 10.031 24.403 9.96639 24.4945 9.92521C24.5869 9.88058 24.6695 9.81808 24.7375 9.74132C24.8056 9.66456 24.8578 9.57507 24.891 9.47803C24.9259 9.57679 24.9412 9.68139 24.936 9.786Z" fill="#937D4A" fill-opacity="0.188235"/>
<path d="M24.9357 9.78592C24.933 9.87249 24.9179 9.95822 24.8907 10.0405C24.8494 9.92446 24.7827 9.8191 24.6957 9.73203C24.6086 9.64496 24.5032 9.57834 24.3872 9.53702C24.3187 9.51441 24.2585 9.47152 24.2149 9.41402C24.1712 9.35652 24.146 9.28712 24.1426 9.21498C24.1345 9.03382 24.0675 8.86025 23.9517 8.72065C23.836 8.58105 23.6778 8.48305 23.5013 8.44155C23.3288 8.39606 23.1456 8.41403 22.9852 8.49217C22.9323 8.51838 22.8741 8.53232 22.8151 8.53295C22.7645 8.53262 22.7147 8.52125 22.669 8.49963C22.6234 8.47801 22.583 8.44667 22.5507 8.4078C22.428 8.26756 22.2615 8.1729 22.0782 8.1392C21.9887 8.12043 21.8964 8.11995 21.8068 8.1378C21.6371 8.17141 21.4817 8.25576 21.361 8.37967C21.2824 8.45662 21.2215 8.5497 21.1824 8.65248C21.1579 8.72666 21.1103 8.79102 21.0465 8.83608C20.9827 8.88114 20.9061 8.90453 20.828 8.9028L20.8126 8.90139C20.6477 8.90518 20.4879 8.9588 20.3541 9.05519C20.2203 9.15158 20.1188 9.28622 20.063 9.44139C19.9984 9.27688 19.9924 9.0951 20.0462 8.9267C20.0953 8.76025 20.196 8.61368 20.3337 8.50806C20.4714 8.40244 20.6391 8.34321 20.8126 8.33889L20.828 8.3403C20.9061 8.34203 20.9827 8.31864 21.0465 8.27358C21.1103 8.22852 21.1579 8.16416 21.1824 8.08998C21.2215 7.9872 21.2824 7.89412 21.361 7.81717C21.4817 7.69326 21.6371 7.60891 21.8068 7.5753C21.8964 7.55745 21.9887 7.55793 22.0782 7.5767C22.2615 7.6104 22.428 7.70506 22.5507 7.8453C22.583 7.88417 22.6234 7.91551 22.669 7.93713C22.7147 7.95875 22.7645 7.97012 22.8151 7.97045C22.8741 7.96982 22.9323 7.95588 22.9852 7.92967C23.0635 7.89311 23.147 7.86892 23.2327 7.85795C23.2762 7.85351 23.3199 7.85257 23.3635 7.85514C23.4101 7.85831 23.4563 7.86632 23.5013 7.87905C23.6778 7.92055 23.836 8.01855 23.9517 8.15815C24.0675 8.29775 24.1345 8.47132 24.1426 8.65248C24.146 8.72462 24.1712 8.79402 24.2149 8.85152C24.2585 8.90902 24.3187 8.95191 24.3872 8.97452C24.5535 9.03321 24.6965 9.14372 24.7952 9.28979C24.894 9.43586 24.9432 9.60977 24.9357 9.78592Z" fill="#F9EDD2" fill-opacity="0.313726"/>
<path d="M22.5005 18.883L18.0736 15.3955L18.0735 15.3949L18.0732 15.3945L18.0727 15.3942L18.0722 15.3941L17.9175 15.2717C17.8627 15.3069 17.6841 15.432 17.5013 15.5614C17.2931 15.7091 17.0752 15.8595 17.0062 15.8933C16.9078 15.9411 16.8052 15.9847 16.6997 16.0241C16.6997 16.0241 14.6423 16.5219 13.0223 15.6275C12.8892 15.5546 12.7614 15.4724 12.6398 15.3814L12.5934 15.3477C12.0295 15.7639 10.5389 16.8313 8.68406 17.945C8.52797 18.0392 7.78125 19.2894 7.78125 19.5481L7.89797 24.5192L22.7648 24.5994L22.5005 18.883Z" fill="#FC785E"/>
<path d="M14.6044 20.5506L13.4006 24.4375H8.625C8.55113 24.4375 8.47797 24.423 8.40972 24.3947C8.34146 24.3665 8.27945 24.325 8.22721 24.2728C8.17497 24.2206 8.13354 24.1585 8.10528 24.0903C8.07702 24.022 8.06248 23.9489 8.0625 23.875V23.3125C8.06248 23.3864 8.07702 23.4595 8.10528 23.5278C8.13354 23.596 8.17497 23.6581 8.22721 23.7103C8.27945 23.7625 8.34146 23.804 8.40972 23.8322C8.47797 23.8605 8.55113 23.875 8.625 23.875H12.9787L14.1129 20.2131L14.6044 20.5506Z" fill="#A54B3F" fill-opacity="0.313726"/>
<path d="M16.3328 17.8605L16.0727 18.4947C16.0709 18.4996 16.0685 18.5044 16.0656 18.5087L15.8561 19.022C15.7298 19.2832 15.5439 19.5111 15.3133 19.6872C15.1862 19.7788 15.0798 19.8962 15.0011 20.0317C14.9964 20.045 14.9876 20.0566 14.976 20.0646C14.9644 20.0727 14.9506 20.0769 14.9364 20.0767C14.9258 20.0769 14.9153 20.075 14.9055 20.0711L13.5977 19.4594C13.5796 19.4509 13.5655 19.4358 13.5582 19.4173C13.5509 19.3987 13.5509 19.3781 13.5583 19.3595C13.6664 19.101 13.689 18.8148 13.623 18.5425C13.5742 18.265 13.5591 17.9827 13.578 17.7016C13.5766 17.5581 13.585 17.3992 13.5935 17.2459C13.6103 16.9295 13.4233 16.173 13.8058 16.052C13.8386 16.0421 13.8727 16.0369 13.907 16.0366C13.9566 16.037 14.0055 16.0481 14.0505 16.0689C14.0974 16.0916 14.139 16.1238 14.1727 16.1635C14.2063 16.2032 14.2313 16.2496 14.246 16.2995C14.3023 16.4996 14.3404 16.7043 14.3599 16.9113L15.3569 14.5361C15.3806 14.4719 15.423 14.4162 15.4787 14.3764C15.5343 14.3365 15.6006 14.3143 15.6691 14.3125C15.7163 14.3126 15.7628 14.3232 15.8055 14.3434C15.8922 14.3855 15.9593 14.4595 15.9926 14.55C16.0259 14.6405 16.0228 14.7403 15.9841 14.8286L15.2725 16.5091C15.3199 16.5104 15.3664 16.5219 15.4089 16.5428C15.4843 16.5781 15.5458 16.6374 15.5838 16.7115C15.6217 16.7856 15.6339 16.8702 15.6185 16.952C15.6699 16.9515 15.7209 16.9625 15.7675 16.9844C15.832 17.0155 15.8864 17.0643 15.9245 17.125C15.9625 17.1857 15.9827 17.2559 15.9827 17.3275C15.9845 17.3358 15.985 17.3444 15.9841 17.3528H15.9981C16.0486 17.3533 16.0984 17.3643 16.1444 17.3852C16.23 17.4259 16.2971 17.4976 16.332 17.5858C16.367 17.674 16.3673 17.7721 16.3328 17.8605Z" fill="#E1EBF4"/>
<path d="M16.5586 14.8582C16.599 14.6542 16.5702 14.4426 16.4767 14.2569C16.3832 14.0712 16.2304 13.922 16.0425 13.833C15.9254 13.7784 15.7977 13.75 15.6685 13.75C15.4884 13.7516 15.313 13.8069 15.1647 13.9089C15.0163 14.0108 14.9018 14.1548 14.836 14.3224L14.528 15.055C13.4466 14.7794 12.4622 13.9483 11.8969 12.7797C10.9575 10.8377 11.5017 8.62003 13.1105 7.83815C13.4867 7.65496 13.9 7.56066 14.3185 7.56253C15.0218 7.57284 15.705 7.79862 16.276 8.2094C16.8991 8.65302 17.3986 9.24838 17.7272 9.93909C18.6581 11.8628 18.1322 14.0552 16.5586 14.8582Z" fill="#E1EBF4"/>
<path d="M10.0312 24.1562C10.1866 24.1562 10.3125 24.0303 10.3125 23.875C10.3125 23.7197 10.1866 23.5938 10.0312 23.5938C9.87592 23.5938 9.75 23.7197 9.75 23.875C9.75 24.0303 9.87592 24.1562 10.0312 24.1562Z" fill="#2D4356"/>
<path d="M24.6897 8.49062C24.6523 8.21531 24.5327 7.95769 24.3465 7.75145C24.1604 7.54521 23.9163 7.39996 23.6462 7.33468C23.3909 7.26689 23.1209 7.27916 22.8728 7.36984C22.6809 7.19448 22.4445 7.07529 22.1894 7.02531L22.1739 7.0225C22.0142 6.99028 21.8495 6.99124 21.6902 7.02531C21.41 7.08209 21.1536 7.2223 20.9547 7.4275C20.8527 7.5317 20.7678 7.65129 20.703 7.78187C20.4294 7.80905 20.17 7.91665 19.9575 8.09109C19.7451 8.26553 19.589 8.49899 19.5091 8.76203C19.4202 9.03964 19.4261 9.33894 19.5259 9.61281C19.4078 9.80119 19.3361 10.0149 19.3168 10.2365C19.2975 10.458 19.3311 10.6809 19.4148 10.8869C19.5007 11.1013 19.639 11.2907 19.8172 11.4376C19.9953 11.5845 20.2076 11.6843 20.4344 11.7278C20.5561 11.7517 20.6805 11.7588 20.8042 11.7489C20.9059 11.8987 21.0368 12.0265 21.189 12.1246C21.3412 12.2227 21.5117 12.2891 21.6902 12.3198C21.7746 12.3354 21.8602 12.3434 21.9461 12.3437C22.2142 12.3447 22.4758 12.2616 22.6942 12.1061C22.8915 12.2104 23.1112 12.2654 23.3344 12.2664C23.5576 12.2674 23.7777 12.2143 23.9759 12.1118C24.1742 12.0093 24.3447 11.8604 24.4729 11.6777C24.6011 11.495 24.6832 11.284 24.7122 11.0627L24.7136 11.0598C24.716 11.0409 24.7198 11.0221 24.7248 11.0036C24.7319 10.9994 24.7431 10.9923 24.7628 10.9811C24.9789 10.8705 25.1613 10.7038 25.2907 10.4984C25.4201 10.293 25.4918 10.0566 25.4983 9.8139C25.5104 9.53793 25.4399 9.26461 25.2959 9.02889C25.1518 8.79317 24.9408 8.60576 24.6897 8.49062ZM24.4942 10.4875C24.4027 10.5287 24.3237 10.5933 24.2652 10.6748C24.2067 10.7562 24.1707 10.8517 24.1609 10.9516L24.1553 10.9853C24.138 11.1228 24.0861 11.2537 24.0046 11.3657C23.9231 11.4778 23.8145 11.5674 23.689 11.6262C23.5635 11.6851 23.4252 11.7112 23.2869 11.7021C23.1486 11.6931 23.0149 11.6492 22.8981 11.5745C22.8334 11.5317 22.7578 11.5083 22.6802 11.507C22.5872 11.5091 22.4981 11.5439 22.4284 11.6055C22.3409 11.6785 22.2381 11.731 22.1276 11.759C22.0171 11.787 21.9017 11.7898 21.79 11.7672C21.6711 11.7472 21.5584 11.7003 21.4605 11.6301C21.3625 11.5599 21.2818 11.4683 21.2247 11.3622C21.1948 11.3041 21.1494 11.2553 21.0936 11.2213C21.0378 11.1873 20.9736 11.1694 20.9083 11.1695C20.8809 11.1696 20.8535 11.1724 20.8267 11.178C20.7347 11.1958 20.6401 11.1953 20.5483 11.1766C20.4127 11.1512 20.2856 11.0922 20.1787 11.005C20.0719 10.9178 19.9886 10.8051 19.9366 10.6773C19.884 10.5485 19.8642 10.4086 19.879 10.2702C19.8937 10.1318 19.9425 9.99917 20.0209 9.88422C20.066 9.82269 20.094 9.75039 20.1021 9.67459C20.1102 9.59879 20.0983 9.52218 20.0673 9.4525C19.9985 9.28517 19.991 9.09887 20.0462 8.92656C20.0954 8.76011 20.1961 8.61354 20.3338 8.50792C20.4715 8.40229 20.6392 8.34307 20.8127 8.33875L20.8281 8.34015C20.9062 8.34189 20.9828 8.3185 21.0466 8.27344C21.1104 8.22837 21.158 8.16402 21.1825 8.08984C21.2216 7.98705 21.2825 7.89397 21.3611 7.81703C21.4818 7.69312 21.6372 7.60877 21.8069 7.57515C21.8965 7.5573 21.9888 7.55778 22.0783 7.57656C22.2616 7.61026 22.4281 7.70491 22.5508 7.84515C22.5831 7.88402 22.6234 7.91536 22.6691 7.93698C22.7148 7.9586 22.7646 7.96998 22.8152 7.97031C22.8742 7.96968 22.9324 7.95574 22.9853 7.92953C23.1457 7.85138 23.3289 7.83342 23.5014 7.8789C23.6779 7.92041 23.8361 8.01841 23.9518 8.15801C24.0676 8.29761 24.1346 8.47118 24.1427 8.65234C24.1461 8.72448 24.1713 8.79388 24.215 8.85138C24.2586 8.90888 24.3188 8.95177 24.3873 8.97437C24.5536 9.03306 24.6966 9.14358 24.7953 9.28965C24.8941 9.43572 24.9433 9.60963 24.9358 9.78578C24.9357 9.93244 24.8942 10.0761 24.8161 10.2002C24.7379 10.3244 24.6264 10.4239 24.4942 10.4875ZM20.8591 12.625C20.6922 12.625 20.529 12.6745 20.3903 12.7672C20.2515 12.8599 20.1434 12.9917 20.0795 13.1459C20.0157 13.3 19.999 13.4697 20.0315 13.6334C20.0641 13.797 20.1444 13.9474 20.2624 14.0654C20.3804 14.1834 20.5308 14.2637 20.6945 14.2963C20.8581 14.3288 21.0278 14.3121 21.1819 14.2483C21.3361 14.1844 21.4679 14.0763 21.5606 13.9375C21.6533 13.7988 21.7028 13.6356 21.7028 13.4687C21.7026 13.245 21.6137 13.0305 21.4555 12.8723C21.2973 12.7141 21.0828 12.6252 20.8591 12.625ZM20.8591 13.75C20.8034 13.75 20.7491 13.7335 20.7028 13.7026C20.6566 13.6717 20.6205 13.6278 20.5992 13.5764C20.5779 13.525 20.5724 13.4684 20.5832 13.4139C20.5941 13.3593 20.6209 13.3092 20.6602 13.2699C20.6995 13.2305 20.7496 13.2038 20.8042 13.1929C20.8587 13.182 20.9153 13.1876 20.9667 13.2089C21.0181 13.2302 21.062 13.2662 21.0929 13.3125C21.1238 13.3587 21.1403 13.4131 21.1403 13.4687C21.1401 13.5433 21.1104 13.6147 21.0577 13.6674C21.005 13.7201 20.9336 13.7498 20.8591 13.75Z" fill="#2D4356"/>
<path d="M20.8594 13.75C21.0147 13.75 21.1406 13.6241 21.1406 13.4688C21.1406 13.3134 21.0147 13.1875 20.8594 13.1875C20.704 13.1875 20.5781 13.3134 20.5781 13.4688C20.5781 13.6241 20.704 13.75 20.8594 13.75Z" fill="#FFDB80"/>
<path d="M19.875 15.438C20.108 15.438 20.2969 15.2491 20.2969 15.0161C20.2969 14.7831 20.108 14.5942 19.875 14.5942C19.642 14.5942 19.4531 14.7831 19.4531 15.0161C19.4531 15.2491 19.642 15.438 19.875 15.438Z" fill="#2D4356"/>
<path d="M21.454 9.07444C21.368 9.09899 21.2906 9.14721 21.2307 9.21359C21.1708 9.27998 21.1307 9.36186 21.1151 9.44991C21.1064 9.51773 21.0734 9.58008 21.0222 9.62535C20.971 9.67063 20.905 9.69574 20.8367 9.69601C20.8249 9.69583 20.8131 9.69489 20.8015 9.69319C20.7648 9.68867 20.7294 9.67697 20.6973 9.65876C20.6652 9.64055 20.6369 9.6162 20.6142 9.58708C20.5915 9.55796 20.5747 9.52464 20.5649 9.48905C20.555 9.45345 20.5523 9.41626 20.5568 9.3796C20.586 9.18259 20.6712 8.99813 20.8024 8.84826C20.9335 8.69839 21.1051 8.58945 21.2965 8.53444C21.332 8.5241 21.3691 8.52085 21.4058 8.52486C21.4425 8.52887 21.4781 8.54008 21.5105 8.55784C21.5429 8.5756 21.5714 8.59956 21.5946 8.62836C21.6177 8.65716 21.6349 8.69024 21.6452 8.72569C21.6556 8.76115 21.6588 8.7983 21.6548 8.83501C21.6508 8.87173 21.6396 8.90729 21.6218 8.93968C21.6041 8.97206 21.5801 9.00063 21.5513 9.02375C21.5225 9.04688 21.4895 9.0641 21.454 9.07444Z" fill="#2D4356"/>
<path d="M22.5469 9.25C22.7022 9.25 22.8281 9.12408 22.8281 8.96875C22.8281 8.81342 22.7022 8.6875 22.5469 8.6875C22.3915 8.6875 22.2656 8.81342 22.2656 8.96875C22.2656 9.12408 22.3915 9.25 22.5469 9.25Z" fill="#2D4356"/>
<path d="M13.0223 15.6275C13.0027 15.7452 12.95 15.855 12.8704 15.9439C12.81 16.017 12.7776 16.0522 12.682 16.1731C12.5442 16.3531 12.0675 16.8397 8.7248 18.8464C8.38448 19.0517 8.06245 19.6663 8.06245 20.1106L7.875 19.6681C7.875 19.2237 8.00339 18.268 8.3437 18.0627C10.8553 16.5552 11.9132 16.0679 12.2577 15.76C12.3154 15.5954 12.592 15.5122 12.6398 15.3814C12.7613 15.4724 12.8891 15.5546 13.0223 15.6275ZM22.3457 20.0839C22.3341 20.0818 22.3224 20.0804 22.3106 20.0797C22.2965 19.6381 21.9815 19.0475 21.6496 18.8464C21.0014 18.4569 20.145 17.8916 19.4137 17.3713C18.1059 16.4389 18.0412 16.2378 17.94 16.1155L17.5012 15.5614C17.684 15.432 17.8626 15.3069 17.9175 15.2717L18.0721 15.3941C18.0725 15.3941 18.0729 15.3942 18.0731 15.3945C18.0734 15.3947 18.0735 15.3951 18.0735 15.3955C18.4326 15.9426 18.8864 16.4212 19.4137 16.8088C20.145 17.3291 21.0014 17.8944 21.6496 18.2839C21.99 18.4892 22.312 19.1038 22.312 19.5481V19.5664L22.3134 19.5847L22.3457 20.0839Z" fill="#F9DBD7" fill-opacity="0.188235"/>
<path d="M16.5595 14.8583C16.5999 14.6543 16.571 14.4427 16.4775 14.257C16.384 14.0713 16.2313 13.9221 16.0434 13.8331C15.9385 13.7836 15.8246 13.7563 15.7087 13.753C15.6956 13.7513 15.6825 13.7504 15.6693 13.7501C15.4893 13.7517 15.3139 13.807 15.1655 13.909C15.0172 14.011 14.9027 14.155 14.8368 14.3225L14.5288 15.0551C13.4474 14.7795 12.4631 13.9484 11.8978 12.7798C11.5556 12.0839 11.4005 11.3109 11.4478 10.5369C11.488 11.1208 11.6408 11.6914 11.8978 12.2173C12.4631 13.3859 13.4474 14.217 14.5288 14.4926L14.8368 13.76C14.9027 13.5925 15.0172 13.4485 15.1655 13.3465C15.3139 13.2445 15.4893 13.1892 15.6693 13.1876C15.7986 13.1876 15.9262 13.216 16.0434 13.2706C16.2313 13.3596 16.384 13.5088 16.4775 13.6945C16.571 13.8802 16.5999 14.0918 16.5595 14.2958C17.5284 13.8008 18.0993 12.7784 18.1781 11.6183C18.2723 13.0034 17.6831 14.2845 16.5595 14.8583Z" fill="#9FA5AA" fill-opacity="0.313726"/>
<path opacity="0.5" d="M18.1774 12.1806C18.1363 11.5973 17.9835 11.0273 17.7274 10.5016C17.3988 9.81086 16.8992 9.21549 16.2761 8.77188C15.7051 8.36109 15.0219 8.13531 14.3186 8.125C13.9002 8.12313 13.4869 8.21743 13.1106 8.40062C12.115 8.88437 11.5272 9.91937 11.4471 11.0992C11.3528 9.69438 11.9589 8.39781 13.1106 7.83812C13.4255 7.68497 13.7668 7.59378 14.1161 7.56953C14.1822 7.56531 14.2497 7.5625 14.3186 7.5625L14.4635 7.56812C14.5099 7.56953 14.5563 7.57234 14.6027 7.57656C14.6378 7.57937 14.6744 7.58359 14.711 7.58781C15.2752 7.6657 15.8122 7.87895 16.2761 8.20938C16.9003 8.65908 17.4015 9.25839 17.7337 9.95228C18.0659 10.6462 18.2185 11.4124 18.1774 12.1806Z" fill="white"/>
<path opacity="0.5" d="M16.3328 17.8606L16.0727 18.4948C16.0709 18.4998 16.0685 18.5045 16.0656 18.5089L15.8561 19.0222C15.7298 19.2834 15.5439 19.5112 15.3133 19.6873C15.1862 19.779 15.0798 19.8964 15.0011 20.0318C14.9964 20.0452 14.9876 20.0567 14.976 20.0648C14.9644 20.0728 14.9506 20.0771 14.9364 20.0768C14.9258 20.077 14.9153 20.0751 14.9055 20.0712L13.5977 19.4595C13.5796 19.451 13.5655 19.4359 13.5582 19.4174C13.5509 19.3988 13.5509 19.3782 13.5583 19.3597C13.6182 19.2223 13.6516 19.0749 13.6567 18.9251L14.9055 19.5087C14.9153 19.5126 14.9258 19.5145 14.9364 19.5143C14.9506 19.5146 14.9644 19.5103 14.976 19.5023C14.9876 19.4942 14.9964 19.4827 15.0011 19.4693C15.0798 19.3339 15.1862 19.2165 15.3133 19.1248C15.5439 18.9487 15.7298 18.7209 15.8561 18.4597L16.0656 17.9464C16.0685 17.942 16.0709 17.9373 16.0727 17.9323L16.2611 17.4739C16.3084 17.5249 16.3403 17.5884 16.353 17.6568C16.3657 17.7253 16.3587 17.796 16.3328 17.8606Z" fill="#9FA5AA"/>
<path opacity="0.5" d="M22.5931 23.8905C22.589 24.037 22.5279 24.1761 22.4229 24.2782C22.3179 24.3803 22.1771 24.4375 22.0306 24.4376H13.9883L14.1627 23.8751H22.0306C22.1498 23.875 22.2659 23.8372 22.3622 23.7669C22.4585 23.6967 22.53 23.5976 22.5664 23.4841L22.5931 23.8905Z" fill="#A54B3F"/>
<path d="M22.8745 19.548C22.8745 18.9264 22.4723 18.122 21.9394 17.8014C20.5992 16.997 18.5827 15.5711 18.4406 15.2955C18.4406 15.2955 18.3675 15.1436 18.2578 14.9172C18.1288 15.0694 17.9882 15.2114 17.8373 15.3419L17.9344 15.5402L17.9372 15.5458L17.94 15.5528C18.0019 15.6737 18.1059 15.8763 19.4137 16.8086C20.145 17.3289 21.0014 17.8942 21.6497 18.2837C21.99 18.4891 22.312 19.1036 22.312 19.548V19.5662L22.3134 19.5845L22.5933 23.8905C22.5891 24.0369 22.5281 24.176 22.423 24.2781C22.318 24.3803 22.1773 24.4374 22.0308 24.4375H13.9884L15.1739 20.6153C15.1753 20.6069 15.1753 20.5984 15.1767 20.5914C15.3246 20.5304 15.4441 20.4159 15.5114 20.2708C15.5658 20.2144 15.623 20.1609 15.683 20.1105C15.9806 19.8785 16.2184 19.5786 16.3763 19.2358L16.5787 18.7422L16.5956 18.7042L16.853 18.0742C16.9391 17.8641 16.9454 17.6298 16.8708 17.4154C16.7962 17.2009 16.6459 17.0212 16.448 16.9098C16.374 16.759 16.2608 16.6307 16.1203 16.5386C16.0848 16.4493 16.036 16.3658 15.9755 16.2911L16.2806 15.5725C16.4452 15.5235 16.6055 15.4615 16.7602 15.3869C18.6502 14.4672 19.3097 11.9177 18.2339 9.69438C17.4464 8.06734 15.9502 7.0675 14.4637 7.00562L14.3189 7H14.3175L14.1684 7.00422C13.716 7.02264 13.2722 7.13418 12.8648 7.33187C10.9748 8.25156 10.3153 10.8011 11.3911 13.0244C11.9181 14.1559 12.8647 15.038 14.0306 15.4839C13.9897 15.4778 13.9483 15.4745 13.9069 15.4741C13.8152 15.4741 13.7242 15.4883 13.6369 15.5163C12.9211 15.7398 12.9872 16.5864 13.0195 16.9928C13.0252 17.0744 13.0336 17.1756 13.0308 17.2164C13.0238 17.3627 13.0139 17.5286 13.0153 17.6847C12.9963 17.9997 13.0133 18.3158 13.0659 18.6269C13.1039 18.8814 13.1152 18.9573 13.0378 19.1458C12.989 19.2662 12.9777 19.3985 13.0055 19.5255C12.9711 19.5445 12.9413 19.5709 12.9183 19.6028L10.5094 22.8372C10.4872 22.8668 10.4712 22.9005 10.4621 22.9363C10.453 22.9722 10.4511 23.0095 10.4564 23.046C10.4618 23.0826 10.4743 23.1178 10.4933 23.1495C10.5123 23.1812 10.5373 23.2089 10.567 23.2309C10.615 23.2677 10.6739 23.2875 10.7344 23.2872C10.7782 23.2872 10.8214 23.277 10.8605 23.2572C10.8996 23.2374 10.9335 23.2086 10.9594 23.1733L13.35 19.9642C13.3545 19.9668 13.3592 19.9692 13.3641 19.9712L14.6044 20.5506L13.4006 24.4375H8.625C8.55113 24.4375 8.47797 24.423 8.40972 24.3947C8.34146 24.3665 8.27945 24.325 8.22721 24.2728C8.17497 24.2206 8.13354 24.1585 8.10528 24.0903C8.07702 24.022 8.06248 23.9489 8.0625 23.875V19.548C8.0625 19.1036 8.38453 18.4891 8.72484 18.2837C12.4683 16.0366 12.6356 15.7089 12.7158 15.5528L12.72 15.5458L12.7228 15.5402L12.758 15.4656C12.6001 15.3571 12.4484 15.2397 12.3038 15.1141L12.2166 15.2955C12.0745 15.5711 9.77531 16.997 8.43516 17.8014C7.90359 18.122 7.5 18.9264 7.5 19.548V23.875C7.49996 24.0227 7.52904 24.1691 7.58556 24.3056C7.64208 24.4421 7.72495 24.5661 7.82942 24.6706C7.9339 24.7751 8.05793 24.8579 8.19444 24.9144C8.33095 24.971 8.47725 25 8.625 25H22.0308C22.1785 25 22.3248 24.971 22.4613 24.9144C22.5979 24.8579 22.7219 24.7751 22.8264 24.6706C22.9308 24.5661 23.0137 24.4421 23.0702 24.3056C23.1267 24.1691 23.1558 24.0227 23.1558 23.875L22.8745 19.548ZM11.8973 12.7797C10.958 10.8377 11.5022 8.62 13.1109 7.83812C13.4872 7.65493 13.9005 7.56063 14.3189 7.5625C15.0222 7.57281 15.7054 7.79859 16.2764 8.20938C16.8995 8.65299 17.399 9.24836 17.7277 9.93906C18.6586 11.8628 18.1327 14.0552 16.5591 14.8581C16.5994 14.6542 16.5706 14.4426 16.4771 14.2569C16.3836 14.0712 16.2308 13.922 16.043 13.833C15.9258 13.7783 15.7982 13.75 15.6689 13.75C15.4889 13.7515 15.3134 13.8068 15.1651 13.9088C15.0168 14.0108 14.9023 14.1548 14.8364 14.3223L14.5284 15.055C13.447 14.7794 12.4627 13.9483 11.8973 12.7797ZM13.5975 19.4594C13.5795 19.4509 13.5653 19.4358 13.558 19.4173C13.5507 19.3987 13.5507 19.3781 13.5581 19.3595C13.6662 19.101 13.6888 18.8148 13.6228 18.5425C13.574 18.265 13.5589 17.9827 13.5778 17.7016C13.5764 17.5581 13.5848 17.3992 13.5933 17.2459C13.6102 16.9295 13.4231 16.173 13.8056 16.052C13.8385 16.0421 13.8726 16.0369 13.9069 16.0366C13.9564 16.037 14.0053 16.0481 14.0503 16.0689C14.0972 16.0916 14.1388 16.1238 14.1725 16.1635C14.2062 16.2032 14.2311 16.2496 14.2458 16.2995C14.3021 16.4996 14.3402 16.7043 14.3597 16.9113L15.3567 14.5361C15.3804 14.4719 15.4228 14.4162 15.4785 14.3764C15.5341 14.3365 15.6005 14.3143 15.6689 14.3125C15.7161 14.3126 15.7627 14.3232 15.8053 14.3434C15.8921 14.3855 15.9591 14.4595 15.9924 14.55C16.0257 14.6405 16.0227 14.7403 15.9839 14.8286L15.2723 16.5091C15.3197 16.5104 15.3662 16.5219 15.4088 16.5428C15.4841 16.5781 15.5457 16.6374 15.5836 16.7115C15.6215 16.7856 15.6337 16.8702 15.6183 16.952C15.6698 16.9515 15.7207 16.9625 15.7673 16.9844C15.8319 17.0155 15.8863 17.0643 15.9243 17.125C15.9624 17.1857 15.9825 17.2559 15.9825 17.3275C15.9844 17.3358 15.9848 17.3444 15.9839 17.3528H15.998C16.0484 17.3533 16.0983 17.3643 16.1442 17.3852C16.2299 17.4259 16.2969 17.4976 16.3318 17.5858C16.3668 17.674 16.3671 17.7721 16.3327 17.8605L16.0725 18.4947C16.0707 18.4996 16.0684 18.5044 16.0655 18.5087L15.8559 19.022C15.7296 19.2832 15.5437 19.5111 15.3131 19.6872C15.186 19.7788 15.0797 19.8962 15.0009 20.0317C14.9962 20.045 14.9874 20.0566 14.9758 20.0646C14.9642 20.0727 14.9504 20.0769 14.9363 20.0767C14.9257 20.0769 14.9152 20.075 14.9053 20.0711L13.5975 19.4594Z" fill="#2D4356"/>
<path opacity="0.3" d="M21.1406 13.4688C21.1407 13.5119 21.1308 13.5546 21.1118 13.5933C21.0927 13.6321 21.065 13.6659 21.0308 13.6922C20.9965 13.7186 20.9567 13.7366 20.9143 13.7451C20.872 13.7535 20.8283 13.7521 20.7865 13.7409C20.7448 13.7297 20.7063 13.7091 20.6738 13.6806C20.6414 13.6521 20.6159 13.6165 20.5994 13.5766C20.5829 13.5367 20.5759 13.4935 20.5788 13.4504C20.5816 13.4073 20.5944 13.3655 20.6161 13.3281C20.6407 13.3709 20.6761 13.4064 20.7189 13.4311C20.7616 13.4558 20.81 13.4688 20.8594 13.4688C20.9087 13.4688 20.9572 13.4558 20.9999 13.4311C21.0426 13.4064 21.078 13.3709 21.1027 13.3281C21.1275 13.3708 21.1406 13.4193 21.1406 13.4688Z" fill="#937D4A"/>
</g>
<defs>
<clipPath id="clip0_983_7098">
<rect width="18" height="18" fill="white" transform="translate(7.5 7)"/>
</clipPath>
</defs>
</svg>
