<svg width="54" height="60" viewBox="0 0 54 60" fill="none" xmlns="http://www.w3.org/2000/svg">
<circle cx="10" cy="3" r="3" fill="#E27000"/>
<circle cx="26.5" cy="6.5" r="1.5" fill="#E27000"/>
<circle cx="43" cy="4" r="3" fill="#E27000"/>
<circle cx="52.5" cy="34.5" r="1.5" fill="#E27000"/>
<circle cx="46.5" cy="52.5" r="1.5" fill="#E27000"/>
<circle cx="9.5" cy="52.5" r="1.5" fill="#E27000"/>
<circle cx="26.5" cy="58.5" r="1.5" fill="#E27000"/>
<circle cx="1" cy="34" r="1" fill="#E27000"/>
<circle cx="4" cy="19" r="1" fill="#E27000"/>
<circle cx="52" cy="20" r="1" fill="#E27000"/>
<rect x="7" y="13" width="40" height="40" rx="20" fill="#1B1B1B"/>
<path fill-rule="evenodd" clip-rule="evenodd" d="M27.157 28.4395L30.5548 34.3247L31.7845 36.4546C31.9021 36.6581 31.9021 36.8911 31.7845 37.0946C31.667 37.2981 31.4652 37.4145 31.2302 37.4145H23.0837C22.8487 37.4145 22.6469 37.298 22.5295 37.0946C22.412 36.891 22.412 36.6581 22.5295 36.4546L23.7593 34.3247L27.157 28.4395Z" fill="#E27000"/>
<path fill-rule="evenodd" clip-rule="evenodd" d="M20.4688 31.0791L28.215 37.4145H22.3884C22.085 37.4145 21.8294 37.2095 21.7636 36.9133L20.4688 31.0791Z" fill="#E27000"/>
<path d="M28.4534 27.8562C28.4475 27.1251 27.8499 26.5372 27.1188 26.5431C26.3876 26.5491 25.7997 27.1466 25.8056 27.8778C25.8116 28.6089 26.4091 29.1968 27.1403 29.1909C27.8715 29.185 28.4594 28.5874 28.4534 27.8562Z" fill="#E27000"/>
<path fill-rule="evenodd" clip-rule="evenodd" d="M33.7346 31.0791L25.9883 37.4145H31.8149C32.1184 37.4145 32.3739 37.2095 32.4397 36.9133L33.7346 31.0791Z" fill="#E27000"/>
<path d="M35.0003 30.7443C34.9944 30.0131 34.3968 29.4252 33.6656 29.4312C32.9345 29.4371 32.3466 30.0347 32.3525 30.7658C32.3585 31.497 32.956 32.0849 33.6872 32.079C34.4183 32.073 35.0062 31.4755 35.0003 30.7443Z" fill="#E27000"/>
<path d="M21.6448 30.7268C21.6389 29.9957 21.0413 29.4078 20.3102 29.4137C19.579 29.4197 18.9911 30.0172 18.997 30.7484C19.003 31.4795 19.6005 32.0674 20.3317 32.0615C21.0629 32.0556 21.6508 31.458 21.6448 30.7268Z" fill="#E27000"/>
<path fill-rule="evenodd" clip-rule="evenodd" d="M22.1832 38.1951H32.0107C32.187 38.1951 32.3307 38.3388 32.3307 38.515V39.1353C32.3307 39.3115 32.187 39.4553 32.0107 39.4553H22.1832C22.007 39.4553 21.8633 39.3115 21.8633 39.1353V38.515C21.8633 38.3388 22.007 38.1951 22.1832 38.1951Z" fill="#E27000"/>
</svg>
