<svg width="20" height="20" viewBox="0 0 20 20" fill="none" xmlns="http://www.w3.org/2000/svg">
<path d="M10 18.8395C9.75198 18.8392 9.50814 18.7755 9.29167 18.6545L6.48333 17.0945C5.08712 16.3182 3.9237 15.183 3.11349 13.8062C2.30327 12.4294 1.87569 10.8611 1.875 9.26364V4.93364C1.87496 4.57333 2.00854 4.2258 2.2499 3.95827C2.49126 3.69075 2.82325 3.52223 3.18167 3.48531C4.29902 3.36688 5.39871 3.11824 6.45833 2.74448C7.42986 2.40105 8.36184 1.95462 9.23833 1.41281C9.46761 1.27249 9.73119 1.19824 10 1.19824C10.2688 1.19824 10.5324 1.27249 10.7617 1.41281C11.6382 1.95446 12.5702 2.40089 13.5417 2.74448C14.6013 3.11824 15.701 3.36688 16.8183 3.48531C17.1767 3.52223 17.5087 3.69075 17.7501 3.95827C17.9915 4.2258 18.125 4.57333 18.125 4.93364V9.26364C18.1243 10.8611 17.6967 12.4294 16.8865 13.8062C16.0763 15.183 14.9129 16.3182 13.5167 17.0945L10.7083 18.6553C10.4918 18.7762 10.248 18.8396 10 18.8395ZM10 2.44781C9.96333 2.44748 9.92729 2.45729 9.89583 2.47614C8.94332 3.06486 7.93063 3.55011 6.875 3.92364C5.72355 4.33004 4.52846 4.60022 3.31417 4.72864C3.26259 4.73303 3.21453 4.75661 3.1795 4.79472C3.14447 4.83284 3.12502 4.88271 3.125 4.93448V9.26448C3.12545 10.6391 3.49326 11.9886 4.19038 13.1733C4.8875 14.358 5.88858 15.3349 7.09 16.0028L9.89833 17.5628C9.92912 17.5801 9.96385 17.5892 9.99917 17.5892C10.0345 17.5892 10.0692 17.5801 10.1 17.5628L12.91 16.0028C14.1114 15.3349 15.1125 14.358 15.8096 13.1733C16.5067 11.9886 16.8746 10.6391 16.875 9.26448V4.93364C16.875 4.88188 16.8555 4.832 16.8205 4.79389C16.7855 4.75577 16.7374 4.73219 16.6858 4.72781C15.4715 4.59938 14.2765 4.32921 13.125 3.92281C12.0694 3.54981 11.0568 3.06512 10.1042 2.47698C10.0729 2.45767 10.0368 2.44756 10 2.44781Z" fill="#E27000"/>
<path d="M9.58292 11.8753C9.42981 11.8755 9.28204 11.8191 9.16792 11.717L7.29292 10.0503C7.17666 9.93831 7.10825 9.78566 7.10203 9.62434C7.0958 9.46302 7.15224 9.30554 7.25952 9.1849C7.36681 9.06426 7.51661 8.98982 7.67755 8.97716C7.8385 8.9645 7.9981 9.01461 8.12292 9.11699L9.54292 10.3787L12.2521 7.48949C12.3079 7.42823 12.3753 7.37867 12.4504 7.3437C12.5255 7.30872 12.6068 7.28903 12.6896 7.28576C12.7724 7.2825 12.855 7.29573 12.9326 7.32467C13.0102 7.35362 13.0813 7.39772 13.1418 7.4544C13.2022 7.51107 13.2508 7.5792 13.2846 7.65481C13.3185 7.73042 13.337 7.81202 13.339 7.89484C13.3411 7.97767 13.3266 8.06007 13.2965 8.13727C13.2665 8.21446 13.2213 8.2849 13.1638 8.34449L10.0388 11.6778C9.98041 11.7403 9.90982 11.79 9.8314 11.824C9.75297 11.858 9.66839 11.8755 9.58292 11.8753Z" fill="#E27000"/>
</svg>
