<svg width="37" height="37" viewBox="0 0 37 37" fill="none" xmlns="http://www.w3.org/2000/svg">
<rect width="37" height="37" rx="18.5" fill="#1E1E1E" fill-opacity="0.4"/>
<path d="M21.8333 14.3333C21.8333 16.1743 20.3409 17.6667 18.5 17.6667C16.659 17.6667 15.1666 16.1743 15.1666 14.3333C15.1666 12.4924 16.659 11 18.5 11C20.3409 11 21.8333 12.4924 21.8333 14.3333Z" fill="#E27000"/>
<path d="M20.1666 20.1665H16.8333C14.5321 20.1665 12.6666 22.032 12.6666 24.3332C12.6666 25.2537 13.4128 25.9998 14.3333 25.9998H22.6666C23.5871 25.9998 24.3333 25.2537 24.3333 24.3332C24.3333 22.032 22.4678 20.1665 20.1666 20.1665Z" fill="#E27000"/>
<path d="M21.8333 14.3333C21.8333 16.1743 20.3409 17.6667 18.5 17.6667C16.659 17.6667 15.1666 16.1743 15.1666 14.3333C15.1666 12.4924 16.659 11 18.5 11C20.3409 11 21.8333 12.4924 21.8333 14.3333Z" stroke="#E27000" stroke-width="1.5"/>
<path d="M20.1666 20.1665H16.8333C14.5321 20.1665 12.6666 22.032 12.6666 24.3332C12.6666 25.2537 13.4128 25.9998 14.3333 25.9998H22.6666C23.5871 25.9998 24.3333 25.2537 24.3333 24.3332C24.3333 22.032 22.4678 20.1665 20.1666 20.1665Z" stroke="#E27000" stroke-width="1.5" stroke-linejoin="round"/>
</svg>
