<svg width="40" height="40" viewBox="0 0 40 40" fill="none" xmlns="http://www.w3.org/2000/svg">
<rect width="40" height="40" rx="20" fill="#E27000"/>
<path d="M27.5438 24.1625L26.4751 22.625C26.3292 22.416 26.2507 22.1674 26.2501 21.9125V17.5C26.2501 15.8424 25.5916 14.2527 24.4195 13.0806C23.2474 11.9085 21.6577 11.25 20.0001 11.25C18.3425 11.25 16.7528 11.9085 15.5807 13.0806C14.4086 14.2527 13.7501 15.8424 13.7501 17.5V21.9125C13.7495 22.1674 13.671 22.416 13.5251 22.625L12.4563 24.1625C12.2945 24.3418 12.1881 24.5641 12.15 24.8026C12.1118 25.0411 12.1436 25.2856 12.2414 25.5064C12.3393 25.7272 12.499 25.915 12.7013 26.0469C12.9036 26.1789 13.1398 26.2494 13.3813 26.25H16.9376C17.081 26.9564 17.4643 27.5915 18.0224 28.0477C18.5806 28.5039 19.2792 28.7531 20.0001 28.7531C20.7209 28.7531 21.4196 28.5039 21.9777 28.0477C22.5359 27.5915 22.9191 26.9564 23.0626 26.25H26.6188C26.8604 26.2494 27.0965 26.1789 27.2988 26.0469C27.5011 25.915 27.6609 25.7272 27.7587 25.5064C27.8566 25.2856 27.8883 25.0411 27.8502 24.8026C27.8121 24.5641 27.7057 24.3418 27.5438 24.1625ZM20.0001 27.5C19.6132 27.4989 19.2362 27.3782 18.9207 27.1544C18.6051 26.9306 18.3665 26.6147 18.2376 26.25H21.7626C21.6336 26.6147 21.395 26.9306 21.0795 27.1544C20.764 27.3782 20.3869 27.4989 20.0001 27.5ZM13.3813 25C13.4096 24.9738 13.4347 24.9444 13.4563 24.9125L14.5501 23.3375C14.8419 22.9195 14.9989 22.4223 15.0001 21.9125V17.5C15.0001 16.1739 15.5269 14.9021 16.4645 13.9645C17.4022 13.0268 18.674 12.5 20.0001 12.5C21.3262 12.5 22.5979 13.0268 23.5356 13.9645C24.4733 14.9021 25.0001 16.1739 25.0001 17.5V21.9125C25.0013 22.4223 25.1583 22.9195 25.4501 23.3375L26.5438 24.9125C26.5654 24.9444 26.5906 24.9738 26.6188 25H13.3813Z" fill="white"/>
</svg>
