<svg width="16" height="16" viewBox="0 0 16 16" fill="none" xmlns="http://www.w3.org/2000/svg">
<path d="M7.1994 13.9595C7.15696 13.9595 7.11497 13.9507 7.07609 13.9337C7.03721 13.9167 7.00226 13.8918 6.97346 13.8607L0.881552 7.27097C0.840941 7.22704 0.814019 7.17222 0.804081 7.11323C0.794142 7.05423 0.801617 6.99362 0.825592 6.93881C0.849567 6.884 0.889001 6.83736 0.939068 6.80461C0.989135 6.77186 1.04766 6.75442 1.10749 6.75442H4.0398C4.08382 6.75443 4.12734 6.76388 4.1674 6.78213C4.20747 6.80038 4.24315 6.82702 4.27204 6.86024L6.30798 9.20251C6.52801 8.73217 6.95395 7.94904 7.7014 6.99476C8.80638 5.58399 10.8617 3.50919 14.3781 1.63621C14.4461 1.60001 14.5252 1.59062 14.5997 1.60988C14.6743 1.62914 14.7389 1.67566 14.7808 1.74024C14.8228 1.80483 14.839 1.88279 14.8262 1.95873C14.8135 2.03467 14.7727 2.10307 14.712 2.15042C14.6986 2.16091 13.3428 3.22861 11.7824 5.18427C10.3463 6.98396 8.43734 9.92673 7.49798 13.7258C7.48148 13.7925 7.4431 13.8518 7.38897 13.8942C7.33483 13.9366 7.26806 13.9596 7.19931 13.9597L7.1994 13.9595Z" fill="#E27000"/>
</svg>
