<svg width="150" height="32" viewBox="0 0 150 32" fill="none" xmlns="http://www.w3.org/2000/svg">
<path fill-rule="evenodd" clip-rule="evenodd" d="M130.631 14.6301C130.544 12.2026 129.979 9.71235 128.151 7.99333C125.799 5.8417 121.451 5.62021 118.694 7.06935L118.621 7.10876C118.035 7.42203 117.451 7.796 116.993 8.2835L116.923 8.36232C115.646 9.73707 114.988 11.388 114.683 13.2229L114.658 13.3765C114.615 13.6352 114.586 13.8146 114.565 13.995C114.519 14.4034 114.521 14.8172 114.528 16.1677L114.529 16.3082C114.535 17.8721 114.809 19.4815 115.45 20.9133C116.173 22.4566 117.354 23.6318 118.956 24.2407L119.106 24.2946C120.126 24.6616 121.187 24.7845 122.264 24.7873L122.361 24.7874C122.737 24.788 123.11 24.7828 123.485 24.7499L123.595 24.7394C125.198 24.5854 126.995 24.0033 128.13 22.7986L128.204 22.7175C128.282 22.6387 128.358 22.5598 128.434 22.48C130.361 20.4103 130.709 17.3329 130.631 14.6301ZM123.433 7.91751L123.566 7.96205C124.487 8.29096 125.09 9.04955 125.499 9.91133C125.944 10.9116 126.163 12.0495 126.264 13.1339L126.274 13.2448C126.346 14.0345 126.358 14.8207 126.357 15.613C126.357 15.7477 126.357 15.8824 126.358 16.0172C126.369 18.0999 126.303 20.6984 124.779 22.3008L124.686 22.394L124.594 22.4898C124.006 23.0601 123.267 23.2193 122.475 23.2088C121.612 23.1856 120.955 22.8263 120.355 22.2274C119.612 21.4367 119.285 20.3156 119.066 19.2804L119.047 19.1933C118.969 18.815 118.923 18.4331 118.879 18.0496L118.864 17.9183C118.797 17.3054 118.776 16.6916 118.775 16.0754L118.774 15.9796C118.774 15.8119 118.773 15.6441 118.773 15.4764C118.773 15.3412 118.772 15.2059 118.771 15.0707C118.764 13.9489 118.795 12.8325 119.018 11.7287L119.033 11.6491C119.229 10.6435 119.536 9.58262 120.238 8.80713L120.33 8.70398C121.098 7.88647 122.362 7.5437 123.433 7.91751Z" fill="#5D2800"/>
<path fill-rule="evenodd" clip-rule="evenodd" d="M96.7046 6.40376C97.9732 6.40103 99.2417 6.39886 100.51 6.3976L100.961 6.39712L101.052 6.39701C101.534 6.39649 102.017 6.39554 102.499 6.3944C102.995 6.39329 103.491 6.39262 103.988 6.39235C104.293 6.39219 104.598 6.39167 104.903 6.39069C105.01 6.39033 105.117 6.39013 105.223 6.39006C105.301 6.38998 105.378 6.38998 105.456 6.39002L105.61 6.39006C105.706 6.39002 105.801 6.38978 105.897 6.38931C107.487 6.38184 109.349 6.53846 110.615 7.61688L110.685 7.66853C111.315 8.1469 111.641 9.00359 111.747 9.76005C111.864 10.7519 111.709 11.6757 111.221 12.5502L111.155 12.6714C110.964 12.9927 110.715 13.2568 110.453 13.5207L110.357 13.6179C109.777 14.1719 109.042 14.5339 108.329 14.8847L108.328 14.8853C108.281 14.9065 108.257 14.9169 108.239 14.9285C108.222 14.9397 108.211 14.9519 108.189 14.976L108.189 14.9765L108.252 14.9985C109.031 15.2734 109.822 15.6044 110.453 16.1491L110.574 16.2505C111.318 16.8902 111.828 17.755 111.949 18.7371C111.96 18.9374 111.963 19.137 111.962 19.3376C111.962 19.4287 111.963 19.5196 111.964 19.6106C111.968 20.6832 111.662 21.7399 110.979 22.5787L110.896 22.6815C109.862 23.8982 108.144 24.3224 106.62 24.4614C105.724 24.5338 104.828 24.5311 103.931 24.5285L103.714 24.5279C103.466 24.5273 103.219 24.5273 102.972 24.5272C102.506 24.527 102.04 24.5263 101.574 24.5255C101.042 24.5246 100.511 24.5241 99.979 24.5238C99.3149 24.5232 98.6508 24.5225 97.9868 24.5216C97.5594 24.521 97.132 24.5204 96.7046 24.5196V23.5896L96.73 23.5808C96.9868 23.4916 97.0504 23.4695 97.114 23.4479L97.1811 23.4252C97.4601 23.3252 97.739 23.1896 97.8899 22.9224C98.0651 22.4971 98.0972 22.0507 98.0946 21.5962L98.0948 21.5133L98.0951 21.4285C98.0953 21.3356 98.0953 21.2428 98.0951 21.1499L98.0947 20.9727C98.0944 20.8239 98.0946 20.675 98.0948 20.5262L98.095 20.4792C98.0951 20.3279 98.0951 20.1766 98.0951 20.0253C98.095 19.8551 98.0948 19.6848 98.0946 19.5145C98.0942 19.2602 98.0941 19.0059 98.0941 18.7516L98.0942 18.39C98.0943 17.7212 98.0938 17.0523 98.093 16.3834C98.0923 15.735 98.092 15.0865 98.0922 14.4381C98.0924 13.731 98.0924 13.0239 98.092 12.3168L98.0918 12.0906L98.0918 11.9781C98.0916 11.7171 98.0916 11.456 98.0917 11.195C98.0918 10.8768 98.0916 10.5586 98.091 10.2405C98.0907 10.0783 98.0905 9.91607 98.0907 9.75389C98.0908 9.68186 98.0908 9.60983 98.0907 9.5378C98.0906 9.46115 98.0904 9.38454 98.0902 9.30793C98.09 9.22903 98.0902 9.15017 98.0905 9.07131C98.0881 8.60751 98.0414 8.15895 97.7373 7.78731C97.5489 7.60768 97.3124 7.52005 97.0724 7.43116L97.0281 7.41469L96.7046 7.29338V6.40376ZM103.375 7.97193L103.244 7.97264C102.908 7.97406 102.58 7.99542 102.244 8.02129V14.3295C102.499 14.3295 102.759 14.3376 103.022 14.3458C103.786 14.3696 104.573 14.3941 105.316 14.2215L105.424 14.1956C105.662 14.1418 105.879 14.0815 106.096 13.9654L106.167 13.9251C106.788 13.5744 107.226 13.076 107.45 12.3963C107.719 11.5225 107.814 10.283 107.389 9.44228L107.339 9.35572C107.233 9.16261 107.122 8.98163 106.971 8.81929C106.159 8.06749 105.112 7.96296 104.054 7.96821L103.858 7.96991C103.807 7.97035 103.756 7.9707 103.704 7.97094L103.646 7.97114L103.551 7.97133L103.375 7.97193ZM102.285 15.9065C105.101 15.9065 105.856 15.9065 106.403 16.2443C106.603 16.3681 106.775 16.5372 107.011 16.7683C107.197 16.9644 107.339 17.1617 107.461 17.4027L107.516 17.5084C107.75 17.9864 107.828 18.5065 107.836 19.0346L107.837 19.1296C107.848 19.9627 107.847 20.7814 107.42 21.5273L107.368 21.6203C106.996 22.2253 106.405 22.614 105.722 22.7808L105.637 22.803C105.017 22.9583 104.393 22.9568 103.757 22.9552H103.753L103.624 22.9549C103.5 22.9544 103.376 22.9535 103.252 22.9522L103.141 22.9513C102.871 22.9475 102.609 22.9272 102.339 22.9063H102.339L102.285 22.9022V15.9065Z" fill="#5D2800"/>
<path fill-rule="evenodd" clip-rule="evenodd" d="M80.3531 6.39904C79.8191 6.40003 79.285 6.40117 78.751 6.40248V7.2921L79.0745 7.41341C79.3531 7.51513 79.6017 7.61449 79.8178 7.82299C80.1189 8.17141 80.1347 8.63545 80.1368 9.07651C80.1366 9.15553 80.1364 9.23459 80.1366 9.3136C80.137 9.4628 80.1373 9.61195 80.1371 9.7611C80.1369 9.9238 80.1371 10.0865 80.1374 10.2492C80.1379 10.5684 80.1382 10.8875 80.1381 11.2067C80.138 11.4685 80.138 11.7303 80.1381 11.9921L80.1382 12.1049L80.1384 12.3319C80.1388 13.0411 80.1388 13.7502 80.1386 14.4593C80.1384 15.1098 80.1387 15.7601 80.1394 16.4105C80.1402 17.0815 80.1407 17.7525 80.1405 18.4234C80.1405 18.7994 80.1404 19.1754 80.1409 19.5513C80.1415 19.8738 80.1417 20.1964 80.1413 20.5189L80.1412 20.566C80.141 20.7152 80.1407 20.8645 80.1411 21.0137C80.1415 21.1661 80.1419 21.3185 80.1415 21.4709C80.1412 21.5269 80.1411 21.583 80.1409 21.6389C80.1436 22.0836 80.1073 22.5032 79.9363 22.9186C79.7863 23.1881 79.5078 23.3235 79.2275 23.4239L79.1604 23.4466C79.0947 23.469 79.0291 23.4918 78.751 23.5883V24.5184H85.7465V23.5883L85.5443 23.5074C85.5138 23.4967 85.4831 23.486 85.4524 23.4753C85.2092 23.391 84.9641 23.306 84.7645 23.1392C84.5387 22.6341 84.4237 22.377 84.3721 22.1077C84.3186 21.8285 84.3332 21.5362 84.3631 20.9409C84.3634 20.85 84.3637 20.7592 84.3639 20.6684L84.364 20.5314C84.3641 20.4226 84.3642 20.3138 84.3644 20.2051C84.3647 20.0556 84.3651 19.9061 84.3656 19.7566C84.3665 19.4605 84.367 19.1646 84.3675 18.8686C84.3679 18.5309 84.3685 18.1933 84.3693 17.8556C84.37 17.5559 84.3708 17.2562 84.3717 16.9566C84.5006 16.9558 84.6294 16.9551 84.7583 16.9546L84.9176 16.9541C84.9582 16.9538 84.9989 16.9533 85.0397 16.9528C85.3661 16.9491 85.695 16.9453 86.0093 17.0451C86.4644 17.3723 86.6951 17.5382 86.8729 17.7489C87.0558 17.9656 87.1826 18.2296 87.4399 18.7653L87.4827 18.8546C87.7263 19.3586 87.9597 19.8664 88.1853 20.3786C88.6748 21.4902 89.1947 22.5934 89.8037 23.6455L89.871 23.7602C89.8913 23.7949 89.9116 23.8295 89.932 23.8641C89.9521 23.898 89.9722 23.9318 89.9923 23.9655L90.1137 24.1544C90.1502 24.2174 90.1873 24.2766 90.2277 24.3345C90.2527 24.3704 90.279 24.4058 90.307 24.4412C90.3597 24.4865 90.3923 24.5146 90.4298 24.5321C90.4906 24.5606 90.5644 24.5614 90.7578 24.5637L90.9003 24.5597C91.0595 24.5599 91.2186 24.5598 91.3777 24.5569C91.5201 24.5542 91.6625 24.5531 91.805 24.5526C92.074 24.5518 92.3431 24.5495 92.6122 24.5458C92.9208 24.5417 93.2294 24.5391 93.5381 24.5372C94.2028 24.5333 94.8675 24.5268 95.5322 24.5184V23.5883L95.1278 23.467C94.388 22.8715 94.0121 22.5689 93.7286 22.196C93.4357 21.8108 93.2413 21.3506 92.8462 20.4149C92.7963 20.3058 92.7469 20.1965 92.6975 20.087C92.4497 19.5388 92.2014 18.9893 91.8958 18.4711C91.3908 17.6439 90.5831 16.6063 89.5916 16.3614L89.5071 16.35C89.5363 16.3059 89.5627 16.2685 89.5928 16.235C89.6249 16.1993 89.6613 16.1683 89.7099 16.1386L89.8033 16.0968L89.9082 16.0489C90.6634 15.7111 91.433 15.3222 92.0074 14.7112L92.095 14.6112C92.845 13.7568 93.2221 12.7512 93.2732 11.6183C93.3067 10.3041 93.0591 9.00724 92.1355 8.01997C90.5098 6.41531 88.1163 6.3823 85.9829 6.38968C85.8809 6.39004 85.7789 6.39032 85.6769 6.39051C85.5312 6.39083 85.3854 6.39099 85.2396 6.39107C84.7709 6.39134 84.3021 6.39213 83.8333 6.39336C83.5486 6.39411 83.264 6.39466 82.9793 6.39513C82.7267 6.39557 82.4741 6.39588 82.2216 6.3962C81.5988 6.39691 80.9759 6.39786 80.3531 6.39904ZM84.3312 7.97953C86.5264 7.97953 87.1758 7.97953 87.6544 8.26551C87.8554 8.38564 88.0264 8.55624 88.269 8.79854C88.7505 9.30373 88.9711 9.85386 89.1027 10.5271L89.1239 10.6247C89.3324 11.7559 89.2133 13.1811 88.5665 14.1478C88.1282 14.7683 87.4825 15.0817 86.7574 15.2582C86.0869 15.3476 85.4075 15.3441 84.7297 15.3405H84.7292C84.5964 15.3398 84.4637 15.3391 84.3312 15.3391V7.97953Z" fill="#5D2800"/>
<path fill-rule="evenodd" clip-rule="evenodd" d="M136.714 6.35748C135.562 6.35878 134.411 6.36095 133.259 6.36376V7.25338C133.458 7.32801 133.644 7.39878 133.833 7.49047L133.916 7.53138C134.024 7.58217 134.13 7.63315 134.23 7.69819C134.63 8.12598 134.643 8.73171 134.645 9.28788L134.644 9.43513C134.644 9.60498 134.645 9.77482 134.644 9.94467C134.644 10.1008 134.644 10.257 134.644 10.4132C134.644 10.7197 134.644 11.0263 134.644 11.3328C134.643 11.6928 134.643 12.0529 134.643 12.4129C134.643 13.0549 134.643 13.6968 134.643 14.3388C134.642 14.9631 134.642 15.5873 134.642 16.2116V16.3283V16.445C134.642 17.1598 134.641 17.8746 134.641 18.5895L134.641 19.3448C134.641 19.6543 134.641 19.9639 134.64 20.2734C134.64 20.4317 134.64 20.5899 134.64 20.7481C134.64 20.8944 134.64 21.0407 134.64 21.187L134.64 21.3479C134.64 21.8744 134.63 22.3672 134.432 22.8622C134.254 23.0559 134.164 23.1537 134.057 23.2259C133.948 23.2995 133.82 23.3463 133.563 23.4409L133.259 23.5496V24.4796H140.255V23.5496C139.975 23.4616 139.713 23.3683 139.452 23.2321C139.393 23.2004 139.333 23.1695 139.273 23.1392L139.203 23.1048V23.0239C138.926 22.6344 138.867 22.205 138.865 21.7328L138.866 21.5912C138.866 21.4302 138.866 21.2693 138.867 21.1084C138.867 21.0561 138.868 21.0038 138.868 20.9515C138.868 20.8602 138.868 20.7689 138.869 20.6776C138.869 20.4061 138.87 20.1345 138.871 19.8629C138.872 19.5516 138.873 19.2403 138.874 18.929C138.875 18.2586 138.877 17.5883 138.88 16.9179C139.007 16.9162 139.134 16.9149 139.261 16.9139L139.418 16.9128C139.808 16.9076 140.186 16.9074 140.559 17.033C141.24 17.696 141.592 18.0375 141.854 18.4372C142.133 18.8617 142.312 19.3519 142.68 20.3626C143.103 21.304 143.534 22.2379 144.03 23.1436L144.101 23.2716C144.143 23.3477 144.185 23.4237 144.228 23.4994C144.261 23.5523 144.293 23.6044 144.324 23.6573C144.358 23.7161 144.39 23.7759 144.418 23.8392C144.51 24.0499 144.613 24.2392 144.77 24.4088C144.836 24.4584 144.884 24.4943 144.937 24.5195C145.074 24.5853 145.247 24.5791 145.867 24.5566C146.009 24.5513 146.15 24.5491 146.292 24.5481C146.56 24.5465 146.827 24.5418 147.095 24.5346C147.402 24.5262 147.709 24.5211 148.016 24.5174C148.678 24.5095 149.339 24.4961 150 24.4796V23.5496C149.533 23.4107 149.117 23.2306 148.781 22.8677L148.706 22.7813C148.257 22.2725 147.947 21.6899 147.663 21.0783C147.534 20.8006 147.404 20.5236 147.273 20.2468C147.228 20.1519 147.183 20.057 147.139 19.962C147.104 19.8869 147.068 19.8117 147.033 19.7364C146.824 19.2869 146.613 18.8347 146.359 18.4102L146.308 18.3281C145.758 17.4399 145.083 16.8177 144.15 16.3391L144.015 16.2709C144.033 16.2262 144.041 16.2051 144.056 16.1903C144.069 16.1771 144.087 16.1688 144.121 16.1532L144.205 16.1153L144.3 16.0721C145.06 15.7281 145.822 15.3305 146.419 14.7368C147.357 13.7719 147.744 12.6349 147.746 11.3073L147.746 11.2112C147.745 10.1579 147.529 9.18986 146.91 8.32101C146.102 7.23494 144.734 6.71213 143.44 6.50284L143.328 6.48507C143.063 6.44191 142.879 6.41197 142.694 6.3914C142.274 6.34464 141.849 6.34611 140.458 6.35092C140.331 6.3514 140.204 6.35171 140.076 6.35195C139.957 6.35215 139.838 6.35227 139.718 6.35234C139.252 6.35262 138.785 6.35337 138.318 6.3546C137.976 6.3555 137.634 6.35618 137.291 6.35669L136.714 6.35748ZM138.799 7.94081C140.884 7.94081 141.29 7.94081 141.648 8.07144C141.712 8.09466 141.774 8.12203 141.844 8.15425C141.869 8.16586 141.895 8.1781 141.923 8.19102L142.004 8.22802C142.649 8.53323 143.139 9.05544 143.401 9.72123C143.819 10.898 143.819 12.4838 143.328 13.6425C142.973 14.3776 142.409 14.8241 141.656 15.1088C140.923 15.3476 140.191 15.3295 139.431 15.3107C139.223 15.3056 139.012 15.3004 138.799 15.3004V7.94081Z" fill="#5D2800"/>
<path d="M41.5083 6.38907C43.8168 6.38907 46.1253 6.38907 48.5038 6.38907C48.5038 6.68264 48.5038 6.97622 48.5038 7.27869C48.3704 7.33206 48.2369 7.38544 48.0995 7.44044C47.7531 7.58248 47.4485 7.7757 47.274 8.11902C46.9901 8.86256 47.0811 9.77741 47.0758 10.5595C47.075 10.6519 47.0742 10.7443 47.0735 10.8367C47.0707 11.1755 47.0683 11.5143 47.0658 11.8531C47.06 12.6121 47.0541 13.3711 47.0481 14.153C49.023 14.153 50.998 14.153 53.0327 14.153C53.0269 13.4182 53.021 12.6835 53.015 11.9264C53.0133 11.6964 53.0115 11.4663 53.0097 11.2292C53.008 11.0189 53.008 11.0189 53.0062 10.8086C53.0054 10.7165 53.0047 10.6245 53.0041 10.5324C53.0006 10.0467 52.9946 9.56116 52.9763 9.07571C52.9751 9.03893 52.9739 9.00215 52.9727 8.96425C52.9535 8.5157 52.8856 8.0357 52.545 7.71086C52.3532 7.5623 52.1249 7.48614 51.9005 7.4C51.8071 7.35997 51.7137 7.31993 51.6174 7.27869C51.6174 6.98511 51.6174 6.69154 51.6174 6.38907C53.9126 6.38907 56.2078 6.38907 58.5725 6.38907C58.5725 6.68264 58.5725 6.97622 58.5725 7.27869C58.249 7.4 58.249 7.4 58.1432 7.43443C57.8269 7.54279 57.5626 7.73261 57.3819 8.01793C57.1804 8.46555 57.1856 9.01635 57.1874 9.49799C57.1873 9.55105 57.1872 9.60412 57.187 9.6588C57.1867 9.80418 57.1869 9.94955 57.1871 10.0949C57.1873 10.2525 57.187 10.41 57.1868 10.5675C57.1864 10.8754 57.1865 11.1833 57.1867 11.4911C57.1869 11.7415 57.1869 11.992 57.1869 12.2424C57.1868 12.296 57.1868 12.296 57.1868 12.3507C57.1868 12.4234 57.1868 12.496 57.1867 12.5687C57.1865 13.2487 57.1868 13.9287 57.1872 14.6087C57.1876 15.191 57.1875 15.7734 57.1871 16.3557C57.1867 17.0333 57.1865 17.711 57.1868 18.3886C57.1868 18.461 57.1868 18.5334 57.1869 18.6058C57.1869 18.6414 57.1869 18.677 57.1869 18.7137C57.187 18.9635 57.1869 19.2134 57.1867 19.4632C57.1864 19.7681 57.1865 20.0729 57.1869 20.3778C57.1871 20.5331 57.1872 20.6884 57.187 20.8436C57.1218 22.0733 57.1218 22.0733 57.6096 23.1479C57.8781 23.3788 58.2417 23.471 58.5725 23.5749C58.5725 23.8818 58.5725 24.1887 58.5725 24.5049C56.2773 24.5049 53.9822 24.5049 51.6174 24.5049C51.6174 24.198 51.6174 23.8911 51.6174 23.5749C51.7242 23.539 51.8309 23.5032 51.9409 23.4662C52.4316 23.298 52.4316 23.298 52.789 22.9369C52.9427 22.6044 52.9601 22.2369 52.9744 21.8765C52.9761 21.8365 52.9777 21.7965 52.9794 21.7553C52.9996 21.2179 53.0015 20.68 53.0046 20.1423C53.0054 20.0056 53.0064 19.8689 53.0074 19.7322C53.0101 19.3358 53.0125 18.9394 53.015 18.543C53.0209 17.6548 53.0267 16.7665 53.0327 15.8514C51.0711 15.8647 49.1096 15.8781 47.0885 15.8918C47.0877 16.7901 47.0869 17.6883 47.086 18.6137C47.0856 18.896 47.0853 19.1782 47.0849 19.469C47.0848 19.7249 47.0848 19.7249 47.0847 19.9809C47.0846 20.0937 47.0845 20.2065 47.0843 20.3193C47.0813 21.099 47.0813 21.099 47.1059 21.8781C47.1073 21.9074 47.1088 21.9367 47.1104 21.9669C47.1342 22.3589 47.1962 22.7404 47.4525 23.0492C47.47 23.0706 47.4876 23.0921 47.5057 23.1141C47.7622 23.3746 48.1665 23.4624 48.5038 23.5749C48.5038 23.8818 48.5038 24.1887 48.5038 24.5049C46.1953 24.5049 43.8868 24.5049 41.5083 24.5049C41.5083 24.198 41.5083 23.8911 41.5083 23.5749C41.6084 23.539 41.7085 23.5032 41.8116 23.4662C42.1829 23.3287 42.5285 23.1904 42.7173 22.8153C42.9722 22.1604 42.8949 21.3717 42.8937 20.6833C42.8935 20.5279 42.8938 20.3726 42.894 20.2173C42.8944 19.9139 42.8943 19.6105 42.8941 19.3071C42.8939 19.0603 42.8939 18.8134 42.894 18.5666C42.894 18.5313 42.894 18.496 42.894 18.4597C42.894 18.388 42.8941 18.3163 42.8941 18.2447C42.8943 17.5741 42.894 16.9036 42.8936 16.2331C42.8933 15.6592 42.8933 15.0853 42.8937 14.5113C42.8941 13.8431 42.8943 13.1749 42.894 12.5066C42.894 12.4352 42.894 12.3638 42.894 12.2924C42.894 12.2573 42.8939 12.2221 42.8939 12.186C42.8939 11.9398 42.894 11.6936 42.8942 11.4474C42.8944 11.1469 42.8943 10.8464 42.8939 10.5458C42.8937 10.3928 42.8936 10.2398 42.8939 10.0868C42.8981 9.33862 42.8981 9.33862 42.8485 8.59259C42.8456 8.56491 42.8426 8.53724 42.8396 8.50873C42.8014 8.21099 42.6986 7.93968 42.4813 7.72808C42.2721 7.57537 42.0304 7.49001 41.788 7.40316C41.67 7.35956 41.67 7.35956 41.5083 7.27869C41.5083 6.98511 41.5083 6.69154 41.5083 6.38907Z" fill="#5D2800"/>
<path fill-rule="evenodd" clip-rule="evenodd" d="M67.759 6.34907L67.6586 6.34863C67.5379 6.34887 67.4739 6.34899 67.4288 6.37825C67.3778 6.41138 67.3511 6.48183 67.2941 6.63197L67.2541 6.73828C67.2079 6.86038 67.1619 6.98252 67.1159 7.1047L67.0638 7.24327C66.9708 7.49047 66.878 7.73776 66.7852 7.98504L66.6353 8.38495L66.4579 8.85835L65.9362 10.2502C65.42 11.6278 64.9036 13.0054 64.3848 14.382L64.3192 14.5559C64.1122 15.1053 63.9051 15.6547 63.6976 16.204L63.4016 16.9881L63.2706 17.3352C63.033 17.9644 62.7964 18.5938 62.5639 19.2248L62.4561 19.517L62.3849 19.7099L62.3496 19.8056C62.2924 19.9607 62.2351 20.1158 62.1783 20.2711C62.1514 20.3448 62.1246 20.4185 62.0978 20.4924C61.8668 21.1281 61.6348 21.7668 61.3218 22.3668C60.9814 22.9565 60.6103 23.388 59.9419 23.5951L59.7043 23.6608V24.5908H65.4059V23.6608C65.2087 23.6279 65.0215 23.5912 64.8297 23.537C64.5421 23.4389 64.3346 23.2846 64.1928 23.0138C64.0929 22.3471 64.0423 22.0089 64.0705 21.6774C64.0996 21.3362 64.2122 21.0022 64.4408 20.3242L64.4733 20.2236C64.5046 20.127 64.536 20.0304 64.5678 19.934L64.5983 19.842C64.6731 19.633 64.7105 19.5282 64.7507 19.4245C64.7911 19.3203 64.8342 19.2172 64.9207 19.0105L70.5009 18.9701C70.5009 19.0127 70.5009 19.0329 70.5034 19.0527C70.5057 19.0705 70.5099 19.0881 70.518 19.1214L70.5423 19.2074L70.5697 19.3056C70.5903 19.3782 70.6107 19.4509 70.631 19.5236L70.6633 19.6395C70.7097 19.8061 70.7671 19.9885 70.8278 20.1814C71.122 21.1157 71.493 22.2942 71.067 23.1023C70.8574 23.4061 70.5365 23.512 70.1926 23.5951L69.8944 23.6608V24.5908H77.2538V23.6608L77.1812 23.6367C76.9668 23.5655 76.7596 23.4968 76.5546 23.4005C76.1528 22.9623 75.948 22.7389 75.8055 22.4812C75.6572 22.2134 75.5762 21.9084 75.4108 21.2865C75.3904 21.2179 75.3699 21.1493 75.3494 21.0807C74.7625 19.1063 74.7625 19.1063 74.1838 17.1295C74.0245 16.5868 73.865 16.0442 73.7055 15.5016L73.6333 15.2562C73.4342 14.5789 73.2347 13.9017 73.0346 13.2247L73.0023 13.1152L72.7044 12.1073C72.5706 11.6551 72.4369 11.2029 72.3035 10.7506C72.1974 10.3905 72.0913 10.0303 71.9857 9.67002L71.8795 9.30802C71.7781 8.96248 71.6766 8.61699 71.5755 8.27138C71.5339 8.12937 71.4924 7.98741 71.4507 7.84544L71.3923 7.64622C71.3259 7.41892 71.2578 7.1926 71.1869 6.96712C71.1225 6.76201 71.0558 6.55753 70.9862 6.35365C70.5652 6.35282 70.1442 6.35211 69.7232 6.35167C69.5088 6.35148 69.2944 6.35132 69.0801 6.35088C68.8698 6.35045 68.6595 6.35005 68.4493 6.3499L68.2101 6.3497L68.016 6.34926C67.9654 6.34915 67.9148 6.34907 67.8642 6.34907H67.759ZM68.1322 10.259L68.136 10.2731L68.1701 10.3973L68.2061 10.5314L68.2826 10.8103L68.321 10.9513C68.3721 11.137 68.4255 11.3219 68.4791 11.5069C68.5329 11.6939 68.585 11.8812 68.6359 12.0689C68.6708 12.1974 68.7052 12.326 68.7394 12.4547C68.8389 12.8282 68.9462 13.1983 69.0604 13.5676C69.1594 13.8885 69.2509 14.2112 69.3406 14.5347C69.4158 14.806 69.4924 15.0767 69.5702 15.3472C69.6386 15.5849 69.7063 15.8227 69.773 16.0608C69.8268 16.2528 69.88 16.445 69.9323 16.6374L69.9684 16.7689L70.0016 16.8922L70.0307 16.9993C70.0492 17.0802 70.0629 17.162 70.0752 17.2442C70.0803 17.2785 70.0852 17.3129 70.09 17.3472L70.0965 17.3931H65.4059C65.4343 17.194 65.4557 17.0636 65.5245 16.8847L65.5731 16.7564L65.6258 16.6197L65.6738 16.4925L65.736 16.327L65.7646 16.2508C65.8832 15.9334 65.9926 15.6129 66.1019 15.2922L66.114 15.2569C66.2788 14.774 66.4516 14.2941 66.6269 13.8149C66.818 13.2928 67.0045 12.7695 67.1842 12.2433C67.3434 11.7792 67.5079 11.317 67.6729 10.8549L67.7143 10.7388C67.7531 10.6298 67.7921 10.521 67.831 10.4121L67.8667 10.3121C67.9487 10.0833 67.9487 10.0833 67.9938 9.99304C68.085 10.0842 68.1002 10.1406 68.1322 10.259Z" fill="#5D2800"/>
<path fill-rule="evenodd" clip-rule="evenodd" d="M102.338 15.447C102.373 15.4497 102.408 15.4524 102.442 15.455C102.408 15.4524 102.373 15.4497 102.339 15.447H102.338Z" fill="white"/>
<path fill-rule="evenodd" clip-rule="evenodd" d="M84.859 15.4477C84.8157 15.4475 84.7724 15.4473 84.7291 15.447H84.7285" fill="white"/>
<path fill-rule="evenodd" clip-rule="evenodd" d="M68.1417 15.4871C68.1379 15.4732 68.1343 15.4599 68.1309 15.447C68.1322 15.4522 68.1337 15.4574 68.1351 15.4627L68.1417 15.4871Z" fill="white"/>
<path d="M31.197 16.2958C31.1972 16.3752 31.1972 16.3752 31.1974 16.4562C31.2006 17.7149 31.2042 18.9737 31.2083 20.2325C31.2088 20.3877 31.2093 20.5429 31.2098 20.6981C31.2099 20.729 31.21 20.7599 31.2101 20.7918C31.2117 21.2909 31.213 21.79 31.2142 22.2891C31.2155 22.8019 31.2171 23.3147 31.2189 23.8276C31.22 24.1436 31.2209 24.4595 31.2215 24.7755C31.222 25.0186 31.2229 25.2616 31.2239 25.5046C31.2243 25.6038 31.2245 25.7029 31.2246 25.8021C31.2259 27.0394 31.3303 28.1546 32.2483 29.0739C32.9581 29.7019 33.7983 29.8659 34.7149 29.9636C34.7149 30.3105 34.7149 30.6575 34.7149 31.0149C30.3514 31.0149 25.9879 31.0149 21.4922 31.0149C21.4922 30.668 21.4922 30.321 21.4922 29.9636C21.6323 29.9477 21.7724 29.9319 21.9168 29.9155C22.841 29.7997 23.6747 29.4792 24.2722 28.7252C24.909 27.8202 24.9748 26.8974 24.978 25.8205C24.9784 25.7376 24.9788 25.6547 24.9792 25.5717C24.9803 25.3478 24.9812 25.124 24.982 24.9001C24.9829 24.6657 24.984 24.4312 24.9851 24.1968C24.9871 23.7534 24.9889 23.31 24.9907 22.8667C24.9927 22.3617 24.9949 21.8567 24.9971 21.3517C25.0017 20.3134 25.006 19.2751 25.0102 18.2368C25.1054 18.1921 25.2006 18.1475 25.2959 18.103C25.3225 18.0905 25.3491 18.078 25.3765 18.0652C26.0781 17.7371 26.8006 17.4724 27.5349 17.2284C27.5665 17.2178 27.5981 17.2073 27.6307 17.1965C30.3441 16.2958 30.3441 16.2958 31.197 16.2958Z" fill="#5D2800"/>
<path d="M21.4922 0C25.8557 0 30.2192 0 34.7149 0C34.7149 0.360296 34.7149 0.720592 34.7149 1.09181C34.5873 1.10181 34.4597 1.11182 34.3283 1.12213C33.5355 1.1943 32.8615 1.40771 32.2887 1.98142C32.2512 2.01609 32.2137 2.05075 32.175 2.08647C31.5109 2.7136 31.2677 3.54435 31.2331 4.43682C31.2309 4.55062 31.2298 4.66437 31.2291 4.77818C31.2287 4.82084 31.2283 4.8635 31.2279 4.90745C31.2266 5.04682 31.2256 5.18619 31.2246 5.32555C31.2238 5.42283 31.2229 5.52011 31.2221 5.61739C31.2198 5.87219 31.2178 6.127 31.2159 6.3818C31.2138 6.64231 31.2116 6.90281 31.2094 7.16331C31.205 7.67354 31.2009 8.18377 31.197 8.69401C31.0894 8.72619 30.9819 8.75824 30.8743 8.7902C30.8443 8.79919 30.8143 8.80818 30.7834 8.81744C30.5814 8.87731 30.379 8.92844 30.1734 8.97454C29.8903 9.03901 29.6136 9.1177 29.3361 9.20298C29.1117 9.27172 28.8866 9.33613 28.6602 9.39794C27.4929 9.71734 26.3279 10.0954 25.2123 10.5665C25.1315 10.5946 25.1315 10.5946 25.0102 10.5946C25.01 10.5474 25.01 10.5474 25.0098 10.4992C25.0065 9.73093 25.0027 8.96263 24.9985 8.19434C24.9965 7.82279 24.9946 7.45124 24.9931 7.07969C24.9918 6.75554 24.9902 6.4314 24.9882 6.10726C24.9872 5.9359 24.9863 5.76454 24.9858 5.59318C24.9852 5.43131 24.9843 5.26944 24.9832 5.10757C24.9828 5.04872 24.9826 4.98986 24.9825 4.93101C24.9808 3.90936 24.829 2.92865 24.1206 2.14317C24.0966 2.11549 24.0727 2.08782 24.0481 2.0593C23.381 1.33537 22.4367 1.13678 21.4922 1.09181C21.4922 0.73151 21.4922 0.371214 21.4922 0Z" fill="#5D2800"/>
<path d="M6.288 16.2958C6.34532 16.3018 6.40264 16.3079 6.45994 16.3141C6.49186 16.3174 6.52378 16.3208 6.55666 16.3243C6.69761 16.3419 6.83463 16.3718 6.9729 16.4038C7.00216 16.4105 7.03143 16.4171 7.06159 16.424C7.12318 16.438 7.18475 16.4521 7.2463 16.4664C7.33795 16.4875 7.4297 16.5082 7.52147 16.5289C7.88419 16.6116 8.24108 16.7069 8.59702 16.8151C8.76051 16.8645 8.92545 16.9075 9.09076 16.9504C9.56604 17.0782 10.0258 17.2541 10.4877 17.4227C10.5916 17.4601 10.6956 17.4964 10.8003 17.5315C11.1747 17.657 11.5379 17.8067 11.9011 17.9613C11.9264 17.972 11.9516 17.9827 11.9777 17.9937C12.0503 18.0245 12.1227 18.0557 12.1951 18.0869C12.2373 18.105 12.2795 18.1232 12.323 18.1419C12.4252 18.1918 12.5082 18.2459 12.5961 18.3176C12.5694 18.3176 12.5427 18.3176 12.5152 18.3176C12.5167 19.4386 12.5192 20.5596 12.5227 21.6806C12.5243 22.2012 12.5256 22.7217 12.5262 23.2423C12.5267 23.6962 12.5278 24.1502 12.5296 24.6042C12.5305 24.8443 12.5311 25.0845 12.5311 25.3246C12.531 25.5512 12.5318 25.7777 12.5331 26.0043C12.5334 26.0869 12.5335 26.1695 12.5333 26.2522C12.5307 27.3134 12.7613 28.2568 13.5261 29.0335C14.2157 29.7244 15.1071 29.8668 16.0332 29.9636C16.0332 30.3105 16.0332 30.6575 16.0332 31.0149C11.6564 31.0149 7.27951 31.0149 2.77002 31.0149C2.77002 30.668 2.77002 30.321 2.77002 29.9636C2.91013 29.9477 3.05024 29.9319 3.1946 29.9155C4.12459 29.799 4.92699 29.4681 5.55351 28.743C6.2121 27.8859 6.2596 26.9375 6.26046 25.8948C6.26083 25.79 6.26125 25.6851 6.26169 25.5803C6.26258 25.3554 6.26319 25.1305 6.2636 24.9056C6.2642 24.5805 6.26523 24.2554 6.26637 23.9303C6.2682 23.4026 6.26968 22.875 6.27094 22.3474C6.27216 21.8351 6.27355 21.3229 6.27517 20.8107C6.27527 20.779 6.27537 20.7474 6.27547 20.7148C6.27597 20.5561 6.27647 20.3974 6.27698 20.2388C6.28116 18.9244 6.28477 17.6101 6.288 16.2958Z" fill="#5D2800"/>
<path d="M16.0527 0C11.6892 0 7.32572 0 2.82998 0C2.82998 0.360296 2.82998 0.720592 2.82998 1.09181C2.95758 1.10181 3.08519 1.11182 3.21666 1.12213C4.00941 1.1943 4.68338 1.40771 5.25618 1.98142C5.2937 2.01609 5.33124 2.05075 5.3699 2.08647C6.03402 2.7136 6.27725 3.54435 6.31178 4.43682C6.31401 4.55062 6.31515 4.66437 6.31583 4.77818C6.31623 4.82084 6.31663 4.8635 6.31704 4.90745C6.31831 5.04682 6.31932 5.18619 6.32032 5.32555C6.32115 5.42283 6.322 5.52011 6.32287 5.61739C6.32509 5.87219 6.32709 6.127 6.32905 6.3818C6.33109 6.64231 6.33333 6.90281 6.33556 7.16331C6.3399 7.67354 6.34401 8.18377 6.34796 8.69401C6.45549 8.72619 6.56307 8.75824 6.67066 8.7902C6.70063 8.79919 6.73061 8.80818 6.76148 8.81744C6.96352 8.87731 7.16588 8.92844 7.37151 8.97454C7.65463 9.03901 7.93131 9.1177 8.20883 9.20298C8.43321 9.27172 8.65837 9.33613 8.88475 9.39794C10.0521 9.71734 11.217 10.0954 12.3326 10.5665C12.4134 10.5946 12.4134 10.5946 12.5348 10.5946C12.535 10.5474 12.535 10.5474 12.5352 10.4992C12.5385 9.73093 12.5422 8.96263 12.5464 8.19434C12.5484 7.82279 12.5503 7.45124 12.5518 7.07969C12.5532 6.75554 12.5548 6.4314 12.5567 6.10726C12.5577 5.9359 12.5586 5.76454 12.5592 5.59318C12.5597 5.43131 12.5606 5.26944 12.5617 5.10757C12.5621 5.04872 12.5623 4.98986 12.5624 4.93101C12.5642 3.90936 12.7159 2.92865 13.4244 2.14317C13.4483 2.11549 13.4722 2.08782 13.4969 2.0593C14.1639 1.33537 15.1082 1.13678 16.0527 1.09181C16.0527 0.73151 16.0527 0.371214 16.0527 0Z" fill="#5D2800"/>
<path d="M18.2572 5.05493C18.5775 5.05493 18.8977 5.05493 19.2277 5.05493C19.2277 5.65542 19.2277 6.25592 19.2277 6.87461C20.1751 6.87461 21.1226 6.87461 22.0987 6.87461C22.0987 7.19487 22.0987 7.51513 22.0987 7.8451C20.6976 7.86512 20.6976 7.86512 19.2681 7.88554C19.2548 9.56692 19.2415 11.2483 19.2277 12.9806C18.9074 12.9806 18.5872 12.9806 18.2572 12.9806C18.2572 11.2859 18.2572 9.59118 18.2572 7.8451C17.3098 7.8451 16.3624 7.8451 15.3862 7.8451C15.3862 7.52484 15.3862 7.20458 15.3862 6.87461C16.3337 6.87461 17.2811 6.87461 18.2572 6.87461C18.2572 6.27411 18.2572 5.67362 18.2572 5.05493Z" fill="#E27000"/>
<path fill-rule="evenodd" clip-rule="evenodd" d="M1.79956 7.76434V10.3725L2.30502 8.73484C10.7809 10.43 16.9 12.7497 18.7122 16.7191C20.5243 12.7497 26.6434 10.43 35.1193 8.73484L35.6247 10.3725V7.76434C35.3485 7.83278 34.9134 7.92123 34.3589 8.03394C30.4959 8.81923 20.8373 10.7826 18.7122 15.3648C16.587 10.7826 6.92845 8.81923 3.06541 8.03394C2.51091 7.92123 2.07582 7.83278 1.79956 7.76434Z" fill="#E27000"/>
<path fill-rule="evenodd" clip-rule="evenodd" d="M7.85144 13.5712L7.85209 13.5714C11.809 14.6605 14.9185 15.5164 17.1855 17.8727H18.7424H20.2992C22.5662 15.5164 25.6757 14.6605 29.6326 13.5714L29.6333 13.5712C31.9576 12.9314 34.5744 12.2111 37.4847 11.059L34.27 15.9923C27.598 16.336 20.9259 19.7126 18.7424 23.3721C16.5588 19.7126 9.88674 16.336 3.21471 15.9923L0 11.059C2.91025 12.2111 5.52706 12.9314 7.85144 13.5712Z" fill="#E27000"/>
</svg>
