<svg width="120" height="100" viewBox="0 0 120 100" fill="none" xmlns="http://www.w3.org/2000/svg">
<path d="M99.871 52.1677C99.8717 52.4219 99.8717 52.4219 99.8723 52.6812C99.8826 56.7108 99.8941 60.7405 99.9073 64.7702C99.9089 65.2671 99.9105 65.764 99.9121 66.2609C99.9124 66.3598 99.9128 66.4587 99.9131 66.5606C99.9182 68.1584 99.9225 69.7562 99.9264 71.354C99.9304 72.9958 99.9354 74.6375 99.9413 76.2792C99.9449 77.2908 99.9478 78.3023 99.9497 79.3138C99.9512 80.0919 99.9541 80.8699 99.9574 81.648C99.9586 81.9654 99.9593 82.2828 99.9596 82.6002C99.9636 86.5612 100.298 90.1314 103.237 93.0744C105.509 95.0847 108.199 95.6096 111.133 95.9223C111.133 97.033 111.133 98.1437 111.133 99.2881C97.1642 99.2881 83.1953 99.2881 68.8031 99.2881C68.8031 98.1774 68.8031 97.0667 68.8031 95.9223C69.2516 95.8716 69.7002 95.8209 70.1623 95.7686C73.1212 95.3976 75.79 94.3718 77.7028 91.9579C79.7414 89.0608 79.9521 86.1067 79.9624 82.6592C79.9636 82.3937 79.9649 82.1282 79.9662 81.8627C79.9697 81.146 79.9725 80.4294 79.975 79.7127C79.9779 78.9622 79.9814 78.2117 79.9849 77.4612C79.9913 76.0418 79.9972 74.6224 80.0028 73.2031C80.0092 71.5864 80.0163 69.9698 80.0234 68.3531C80.0381 65.0292 80.052 61.7053 80.0652 58.3814C80.3701 58.2385 80.675 58.0958 80.98 57.9531C81.0651 57.9132 81.1502 57.8733 81.2378 57.8322C83.4841 56.782 85.7968 55.9346 88.1478 55.1532C88.2489 55.1195 88.3501 55.0858 88.4544 55.0511C97.1407 52.1677 97.1407 52.1677 99.871 52.1677Z" fill="#5D2800"/>
<path d="M68.8036 0.000183105C82.7725 0.000183105 96.7414 0.000183105 111.134 0.000183105C111.134 1.1536 111.134 2.30701 111.134 3.49537C110.725 3.52741 110.317 3.55945 109.896 3.59246C107.358 3.82348 105.2 4.50666 103.367 6.3433C103.247 6.45427 103.126 6.56524 103.003 6.67957C100.877 8.6872 100.098 11.3467 99.9874 14.2038C99.9802 14.568 99.9766 14.9322 99.9744 15.2965C99.9731 15.4331 99.9718 15.5697 99.9705 15.7104C99.9665 16.1565 99.9632 16.6027 99.96 17.0488C99.9574 17.3603 99.9546 17.6717 99.9519 17.9831C99.9448 18.7988 99.9383 19.6145 99.9321 20.4302C99.9256 21.2642 99.9184 22.0981 99.9112 22.932C99.8973 24.5654 99.8842 26.1988 99.8715 27.8322C99.5273 27.9353 99.1829 28.0379 98.8385 28.1402C98.7425 28.169 98.6466 28.1977 98.5477 28.2274C97.9009 28.419 97.2531 28.5827 96.5948 28.7303C95.6885 28.9367 94.8028 29.1886 93.9143 29.4616C93.196 29.6817 92.4752 29.8879 91.7505 30.0857C88.0136 31.1082 84.2843 32.3187 80.7129 33.8265C80.4541 33.9165 80.4541 33.9165 80.0657 33.9165C80.0651 33.7654 80.0651 33.7654 80.0644 33.6113C80.0539 31.1517 80.0419 28.6922 80.0285 26.2327C80.022 25.0432 80.016 23.8538 80.0111 22.6643C80.0068 21.6266 80.0016 20.589 79.9955 19.5513C79.9922 19.0027 79.9894 18.4542 79.9876 17.9056C79.9859 17.3874 79.9831 16.8692 79.9793 16.351C79.9782 16.1626 79.9774 15.9742 79.9771 15.7858C79.9716 12.5152 79.4857 9.37564 77.2178 6.86111C77.1412 6.7725 77.0646 6.68389 76.9857 6.5926C74.8504 4.27509 71.8272 3.63936 68.8036 3.49537C68.8036 2.34196 68.8036 1.18855 68.8036 0.000183105Z" fill="#5D2800"/>
<path d="M20.1301 52.1677C20.3136 52.1869 20.4971 52.2065 20.6806 52.2262C20.7827 52.237 20.8849 52.2479 20.9902 52.2591C21.4414 52.3154 21.88 52.4111 22.3227 52.5135C22.4164 52.5348 22.5101 52.5561 22.6066 52.578C22.8038 52.6229 23.0009 52.6682 23.1979 52.7138C23.4913 52.7815 23.7851 52.8479 24.0788 52.914C25.24 53.1787 26.3825 53.4838 27.522 53.8301C28.0454 53.9883 28.5734 54.126 29.1026 54.2632C30.6241 54.6724 32.0959 55.2356 33.5748 55.7752C33.9072 55.8951 34.2403 56.0113 34.5754 56.1235C35.774 56.5254 36.9367 57.0045 38.0994 57.4994C38.1803 57.5337 38.2612 57.5679 38.3446 57.6032C38.5769 57.7018 38.8086 57.8016 39.0404 57.9015C39.1755 57.9596 39.3107 58.0177 39.4499 58.0775C39.7771 58.2375 40.043 58.4106 40.3243 58.6402C40.2388 58.6402 40.1534 58.6402 40.0654 58.6402C40.0702 62.2289 40.078 65.8175 40.0892 69.4061C40.0943 71.0725 40.0985 72.7389 40.1005 74.4054C40.1022 75.8587 40.1057 77.312 40.1113 78.7653C40.1142 79.5341 40.1162 80.3028 40.1161 81.0716C40.116 81.7968 40.1184 82.5221 40.1225 83.2474C40.1236 83.5119 40.1238 83.7765 40.1231 84.041C40.115 87.4383 40.8531 90.4585 43.3016 92.9449C45.509 95.1567 48.3629 95.6125 51.3275 95.9223C51.3275 97.0329 51.3275 98.1436 51.3275 99.288C37.3159 99.288 23.3042 99.288 8.86798 99.288C8.86798 98.1773 8.86798 97.0666 8.86798 95.9223C9.31652 95.8715 9.76507 95.8208 10.2272 95.7685C13.2044 95.3953 15.7731 94.336 17.7788 92.0149C19.8871 89.271 20.0392 86.2348 20.0419 82.8971C20.0431 82.5614 20.0445 82.2257 20.0459 81.89C20.0487 81.1701 20.0507 80.4502 20.052 79.7303C20.0539 78.6895 20.0572 77.6487 20.0609 76.6078C20.0667 74.9187 20.0715 73.2296 20.0755 71.5405C20.0794 69.9007 20.0839 68.2609 20.089 66.6211C20.0893 66.5199 20.0897 66.4186 20.09 66.3143C20.0916 65.8063 20.0932 65.2983 20.0948 64.7903C20.1082 60.5827 20.1198 56.3752 20.1301 52.1677Z" fill="#5D2800"/>
<path d="M51.3907 6.10352e-05C37.4218 6.10352e-05 23.4528 6.10352e-05 9.06061 6.10352e-05C9.06061 1.15347 9.06061 2.30689 9.06061 3.49525C9.4691 3.52729 9.8776 3.55933 10.2985 3.59234C12.8363 3.82336 14.9939 4.50654 16.8276 6.34318C16.9477 6.45415 17.0679 6.56512 17.1917 6.67945C19.3177 8.68708 20.0964 11.3466 20.2069 14.2036C20.2141 14.5679 20.2177 14.9321 20.2199 15.2964C20.2212 15.433 20.2224 15.5695 20.2238 15.7103C20.2278 16.1564 20.231 16.6026 20.2343 17.0487C20.2369 17.3601 20.2396 17.6715 20.2424 17.983C20.2495 18.7987 20.2559 19.6144 20.2622 20.4301C20.2687 21.264 20.2759 22.098 20.283 22.9319C20.2969 24.5653 20.3101 26.1987 20.3227 27.8321C20.667 27.9352 21.0114 28.0377 21.3558 28.1401C21.4518 28.1688 21.5477 28.1976 21.6466 28.2272C22.2933 28.4189 22.9412 28.5826 23.5994 28.7302C24.5058 28.9366 25.3915 29.1885 26.28 29.4615C26.9983 29.6815 27.7191 29.8877 28.4438 30.0856C32.1807 31.1081 35.9099 32.3185 39.4814 33.8264C39.7402 33.9163 39.7402 33.9163 40.1286 33.9163C40.1292 33.7653 40.1292 33.7653 40.1299 33.6111C40.1404 31.1516 40.1523 28.6921 40.1658 26.2325C40.1722 25.0431 40.1783 23.8537 40.1832 22.6642C40.1875 21.6265 40.1926 20.5889 40.1988 19.5512C40.2021 19.0026 40.2049 18.454 40.2067 17.9055C40.2083 17.3873 40.2112 16.8691 40.2149 16.3509C40.2161 16.1625 40.2169 15.9741 40.2171 15.7857C40.2227 12.5151 40.7086 9.37552 42.9765 6.86099C43.053 6.77238 43.1296 6.68377 43.2086 6.59247C45.3439 4.27497 48.367 3.63923 51.3907 3.49525C51.3907 2.34184 51.3907 1.18843 51.3907 6.10352e-05Z" fill="#5D2800"/>
<path d="M58.4475 16.1824C59.4727 16.1824 60.498 16.1824 61.5543 16.1824C61.5543 18.1048 61.5543 20.0271 61.5543 22.0077C64.5873 22.0077 67.6203 22.0077 70.7452 22.0077C70.7452 23.033 70.7452 24.0583 70.7452 25.1146C66.2598 25.1787 66.2598 25.1787 61.6837 25.244C61.641 30.6266 61.5983 36.0092 61.5543 41.5549C60.529 41.5549 59.5038 41.5549 58.4475 41.5549C58.4475 36.1296 58.4475 30.7043 58.4475 25.1146C55.4145 25.1146 52.3815 25.1146 49.2565 25.1146C49.2565 24.0893 49.2565 23.0641 49.2565 22.0077C52.2895 22.0077 55.3226 22.0077 58.4475 22.0077C58.4475 20.0854 58.4475 18.163 58.4475 16.1824Z" fill="#E27000"/>
<path fill-rule="evenodd" clip-rule="evenodd" d="M5.76086 24.8559V33.2055L7.37899 27.9627C34.5129 33.3896 54.102 40.8153 59.9032 53.5228C65.7045 40.8153 85.2936 33.3896 112.428 27.9627L114.046 33.2055V24.8559C113.161 25.075 111.768 25.3582 109.993 25.7189C97.6265 28.2329 66.7064 34.5182 59.9032 49.1872C53.1001 34.5182 22.18 28.2329 9.81325 25.7189C8.03812 25.3582 6.64527 25.075 5.76086 24.8559Z" fill="#E27000"/>
<path fill-rule="evenodd" clip-rule="evenodd" d="M25.1349 43.4454L25.1369 43.446C37.8041 46.9327 47.7586 49.6727 55.0162 57.2158H60H64.9838C72.2414 49.6727 82.1959 46.9327 94.8631 43.446L94.8651 43.4454C102.306 41.3973 110.683 39.0915 120 35.4032L109.709 51.1963C88.3495 52.2966 66.9903 63.1058 60 74.8211C53.0097 63.1058 31.6505 52.2966 10.2913 51.1963L0 35.4032C9.31661 39.0915 17.6938 41.3973 25.1349 43.4454Z" fill="#E27000"/>
</svg>
