<svg width="20" height="20" viewBox="0 0 20 20" fill="none" xmlns="http://www.w3.org/2000/svg">
<g clip-path="url(#clip0_5139_3663)">
<path d="M12.4844 5.84668C12.4844 5.84668 12.901 6.26335 13.3177 7.09668C13.3177 7.09668 14.6412 5.01335 15.8177 4.59668" stroke="#E27000" stroke-width="1.5" stroke-linecap="round" stroke-linejoin="round"/>
<path d="M8.33034 1.68444C6.24829 1.59629 4.63974 1.83614 4.63974 1.83614C3.62403 1.90877 1.67752 2.4782 1.67754 5.80378C1.67755 9.10108 1.656 13.1661 1.67754 14.7866C1.67754 15.7767 2.29055 18.0861 4.41235 18.2098C6.99139 18.3603 11.6369 18.3923 13.7683 18.2098C14.3389 18.1777 16.2385 17.7297 16.4789 15.663C16.728 13.5219 16.6784 12.0339 16.6784 11.6797" stroke="#E27000" stroke-width="1.5" stroke-linecap="round" stroke-linejoin="round"/>
<path d="M18.3335 5.84629C18.3335 8.14748 16.4663 10.013 14.1629 10.013C11.8594 10.013 9.99219 8.14748 9.99219 5.84629C9.99219 3.54511 11.8594 1.67963 14.1629 1.67963C16.4663 1.67963 18.3335 3.54511 18.3335 5.84629Z" stroke="#E27000" stroke-width="1.5" stroke-linecap="round"/>
<path d="M5.81641 10.8467H9.14971" stroke="#E27000" stroke-width="1.5" stroke-linecap="round"/>
<path d="M5.81641 14.1797H12.483" stroke="#E27000" stroke-width="1.5" stroke-linecap="round"/>
</g>
<defs>
<clipPath id="clip0_5139_3663">
<rect width="20" height="20" fill="white"/>
</clipPath>
</defs>
</svg>
