<svg width="40" height="40" viewBox="0 0 40 40" fill="none" xmlns="http://www.w3.org/2000/svg">
<rect width="40" height="40" rx="20" fill="#E27000"/>
<path d="M16.6665 14.7917C16.3248 14.7917 16.0415 14.5084 16.0415 14.1667V11.6667C16.0415 11.3251 16.3248 11.0417 16.6665 11.0417C17.0082 11.0417 17.2915 11.3251 17.2915 11.6667V14.1667C17.2915 14.5084 17.0082 14.7917 16.6665 14.7917ZM23.3332 14.7917C22.9915 14.7917 22.7082 14.5084 22.7082 14.1667V11.6667C22.7082 11.3251 22.9915 11.0417 23.3332 11.0417C23.6748 11.0417 23.9582 11.3251 23.9582 11.6667V14.1667C23.9582 14.5084 23.6748 14.7917 23.3332 14.7917ZM17.0832 22.0834C16.9748 22.0834 16.8665 22.0584 16.7665 22.0167C16.6582 21.9751 16.5748 21.9167 16.4915 21.8417C16.3415 21.6834 16.2498 21.4751 16.2498 21.2501C16.2498 21.1417 16.2748 21.0334 16.3165 20.9334C16.3582 20.8334 16.4165 20.7417 16.4915 20.6584C16.5748 20.5834 16.6582 20.5251 16.7665 20.4834C17.0665 20.3584 17.4415 20.4251 17.6748 20.6584C17.8248 20.8167 17.9165 21.0334 17.9165 21.2501C17.9165 21.3001 17.9082 21.3584 17.8998 21.4167C17.8915 21.4667 17.8748 21.5167 17.8498 21.5667C17.8332 21.6167 17.8082 21.6667 17.7748 21.7168C17.7498 21.7584 17.7082 21.8001 17.6748 21.8417C17.5165 21.9917 17.2998 22.0834 17.0832 22.0834ZM19.9998 22.0834C19.8915 22.0834 19.7832 22.0584 19.6832 22.0167C19.5748 21.9751 19.4915 21.9167 19.4082 21.8417C19.2582 21.6834 19.1665 21.4751 19.1665 21.2501C19.1665 21.1417 19.1915 21.0334 19.2332 20.9334C19.2748 20.8334 19.3332 20.7417 19.4082 20.6584C19.4915 20.5834 19.5748 20.5251 19.6832 20.4834C19.9832 20.3501 20.3582 20.4251 20.5915 20.6584C20.7415 20.8167 20.8332 21.0334 20.8332 21.2501C20.8332 21.3001 20.8248 21.3584 20.8165 21.4167C20.8082 21.4667 20.7915 21.5167 20.7665 21.5667C20.7498 21.6167 20.7248 21.6667 20.6915 21.7168C20.6665 21.7584 20.6248 21.8001 20.5915 21.8417C20.4332 21.9917 20.2165 22.0834 19.9998 22.0834ZM22.9165 22.0834C22.8082 22.0834 22.6998 22.0584 22.5998 22.0167C22.4915 21.9751 22.4082 21.9167 22.3248 21.8417L22.2248 21.7168C22.1933 21.6703 22.1681 21.6199 22.1498 21.5667C22.1258 21.5195 22.1089 21.469 22.0998 21.4167C22.0915 21.3584 22.0832 21.3001 22.0832 21.2501C22.0832 21.0334 22.1748 20.8167 22.3248 20.6584C22.4082 20.5834 22.4915 20.5251 22.5998 20.4834C22.9082 20.3501 23.2748 20.4251 23.5082 20.6584C23.6582 20.8167 23.7498 21.0334 23.7498 21.2501C23.7498 21.3001 23.7415 21.3584 23.7332 21.4167C23.7248 21.4667 23.7082 21.5167 23.6832 21.5667C23.6665 21.6167 23.6415 21.6667 23.6082 21.7168C23.5832 21.7584 23.5415 21.8001 23.5082 21.8417C23.3498 21.9917 23.1332 22.0834 22.9165 22.0834ZM17.0832 25.0001C16.9748 25.0001 16.8665 24.9751 16.7665 24.9334C16.6665 24.8917 16.5748 24.8334 16.4915 24.7584C16.3415 24.6001 16.2498 24.3834 16.2498 24.1667C16.2498 24.0584 16.2748 23.9501 16.3165 23.8501C16.3582 23.7418 16.4165 23.6501 16.4915 23.5751C16.7998 23.2668 17.3665 23.2668 17.6748 23.5751C17.8248 23.7334 17.9165 23.9501 17.9165 24.1667C17.9165 24.3834 17.8248 24.6001 17.6748 24.7584C17.5165 24.9084 17.2998 25.0001 17.0832 25.0001ZM19.9998 25.0001C19.7832 25.0001 19.5665 24.9084 19.4082 24.7584C19.2582 24.6001 19.1665 24.3834 19.1665 24.1667C19.1665 24.0584 19.1915 23.9501 19.2332 23.8501C19.2748 23.7418 19.3332 23.6501 19.4082 23.5751C19.7165 23.2668 20.2832 23.2668 20.5915 23.5751C20.6665 23.6501 20.7248 23.7418 20.7665 23.8501C20.8082 23.9501 20.8332 24.0584 20.8332 24.1667C20.8332 24.3834 20.7415 24.6001 20.5915 24.7584C20.4332 24.9084 20.2165 25.0001 19.9998 25.0001ZM22.9165 25.0001C22.6998 25.0001 22.4832 24.9084 22.3248 24.7584C22.2477 24.6801 22.1881 24.5864 22.1498 24.4834C22.1082 24.3834 22.0832 24.2751 22.0832 24.1667C22.0832 24.0584 22.1082 23.9501 22.1498 23.8501C22.1915 23.7418 22.2498 23.6501 22.3248 23.5751C22.5165 23.3834 22.8082 23.2917 23.0748 23.3501C23.1332 23.3584 23.1832 23.3751 23.2332 23.4001C23.2832 23.4167 23.3332 23.4417 23.3832 23.4751C23.4248 23.5001 23.4665 23.5417 23.5082 23.5751C23.6582 23.7334 23.7498 23.9501 23.7498 24.1667C23.7498 24.3834 23.6582 24.6001 23.5082 24.7584C23.3498 24.9084 23.1332 25.0001 22.9165 25.0001ZM27.0832 18.2001H12.9165C12.5748 18.2001 12.2915 17.9167 12.2915 17.5751C12.2915 17.2334 12.5748 16.9501 12.9165 16.9501H27.0832C27.4248 16.9501 27.7082 17.2334 27.7082 17.5751C27.7082 17.9167 27.4248 18.2001 27.0832 18.2001Z" fill="white"/>
<path d="M23.3333 28.9584H16.6667C13.625 28.9584 11.875 27.2084 11.875 24.1667V17.0834C11.875 14.0417 13.625 12.2917 16.6667 12.2917H23.3333C26.375 12.2917 28.125 14.0417 28.125 17.0834V24.1667C28.125 27.2084 26.375 28.9584 23.3333 28.9584ZM16.6667 13.5417C14.2833 13.5417 13.125 14.7001 13.125 17.0834V24.1667C13.125 26.5501 14.2833 27.7084 16.6667 27.7084H23.3333C25.7167 27.7084 26.875 26.5501 26.875 24.1667V17.0834C26.875 14.7001 25.7167 13.5417 23.3333 13.5417H16.6667Z" fill="white"/>
</svg>
