<svg width="18" height="18" viewBox="0 0 18 18" fill="none" xmlns="http://www.w3.org/2000/svg">
<g clip-path="url(#clip0_5139_6824)">
<path d="M17.4375 9C17.4375 8.85082 17.3782 8.70774 17.2727 8.60225C17.1673 8.49676 17.0242 8.4375 16.875 8.4375C16.7258 8.4375 16.5827 8.49676 16.4773 8.60225C16.3718 8.70774 16.3125 8.85082 16.3125 9C16.3125 13.0387 13.0387 16.3125 9 16.3125C4.96125 16.3125 1.6875 13.0387 1.6875 9C1.6875 4.96125 4.96125 1.6875 9 1.6875C9.14918 1.6875 9.29226 1.62824 9.39775 1.52275C9.50324 1.41726 9.5625 1.27418 9.5625 1.125C9.5625 0.975816 9.50324 0.832742 9.39775 0.727252C9.29226 0.621763 9.14918 0.5625 9 0.5625C4.33997 0.5625 0.5625 4.33997 0.5625 9C0.5625 13.66 4.33997 17.4375 9 17.4375C13.66 17.4375 17.4375 13.66 17.4375 9Z" fill="#AEAEAE"/>
<path fill-rule="evenodd" clip-rule="evenodd" d="M9.3888 10.9308C8.95722 10.9599 8.52675 10.8599 8.15215 10.6436L7.14808 11.6477C7.09586 11.7 7.03385 11.7414 6.9656 11.7697C6.89735 11.798 6.8242 11.8126 6.75031 11.8126C6.67643 11.8127 6.60326 11.7981 6.53499 11.7699C6.46673 11.7416 6.40469 11.7002 6.35243 11.648C6.30016 11.5958 6.2587 11.5338 6.2304 11.4655C6.2021 11.3973 6.18753 11.3241 6.1875 11.2502C6.18747 11.1763 6.202 11.1032 6.23025 11.0349C6.2585 10.9666 6.29992 10.9046 6.35214 10.8523L7.35621 9.84826C7.13978 9.47381 7.03972 9.04341 7.06877 8.61189C7.21052 6.39283 8.05596 4.43561 9.45265 3.00292C9.6993 2.7498 10.0115 2.78805 10.1749 2.84402C10.3282 2.89605 10.457 2.99027 10.5461 3.06339C10.7104 3.19839 10.88 3.38261 11.0293 3.55923C11.0729 3.41777 11.1199 3.26983 11.1694 3.12105C11.2976 2.73348 11.4461 2.3237 11.5983 1.99267C11.6737 1.8287 11.7578 1.66698 11.8489 1.53227C11.9215 1.42539 12.0686 1.22514 12.304 1.13542C13.5707 0.651391 15.0113 0.459578 16.5705 0.615672L16.8526 0.643797C16.9818 0.656782 17.1024 0.714031 17.1942 0.805838C17.286 0.897646 17.3431 1.01836 17.3561 1.14752L17.3845 1.42933C17.65 4.08433 16.9063 6.38805 15.4469 8.0702C13.9901 9.74983 11.8509 10.7736 9.3888 10.9308ZM12.7849 2.15636C13.8115 1.77836 14.9865 1.61327 16.2811 1.71902C16.4687 4.01402 15.8058 5.94002 14.5973 7.33277C13.3558 8.76433 11.5075 9.66827 9.31708 9.80833C9.21448 9.81502 9.11144 9.80707 9.01108 9.7847L11.7145 7.08133C11.7667 7.0291 11.8081 6.9671 11.8364 6.89886C11.8647 6.83061 11.8793 6.75747 11.8793 6.6836C11.8793 6.60973 11.8648 6.53658 11.8365 6.46833C11.8082 6.40007 11.7668 6.33806 11.7146 6.28581C11.6624 6.23357 11.6004 6.19212 11.5321 6.16384C11.4639 6.13556 11.3907 6.121 11.3169 6.12099C11.243 6.12097 11.1698 6.13551 11.1016 6.16377C11.0333 6.19202 10.9713 6.23345 10.9191 6.28567L8.21514 8.98961C8.19274 8.88925 8.18478 8.78621 8.19152 8.68361C8.30768 6.86195 8.95286 5.27711 9.98871 4.0818C10.0599 4.15661 10.1397 4.24773 10.2238 4.35039C10.3721 4.53039 10.5144 4.72136 10.621 4.86902C10.6738 4.9427 10.7171 5.0043 10.747 5.04733C10.8893 5.25264 11.0878 5.39805 11.3531 5.35305C11.6433 5.30355 11.7659 5.07433 11.8354 4.81839C11.9579 4.36711 12.0919 3.91903 12.2373 3.47458C12.3611 3.10052 12.4944 2.73686 12.6204 2.46264C12.6687 2.35773 12.7196 2.2517 12.7849 2.15636Z" fill="#AEAEAE"/>
</g>
<defs>
<clipPath id="clip0_5139_6824">
<rect width="18" height="18" fill="white"/>
</clipPath>
</defs>
</svg>
