<svg width="12" height="12" viewBox="0 0 12 12" fill="none" xmlns="http://www.w3.org/2000/svg">
<g clip-path="url(#clip0_5139_6805)">
<path d="M9.10345 0.413793C9.10312 0.304149 9.05942 0.199089 8.98189 0.121559C8.90436 0.0440286 8.7993 0.000327461 8.68966 0L3.06786 0C2.95813 2.34362e-05 2.85289 0.0436347 2.77531 0.121241L0.121241 2.77531C0.0436347 2.85289 2.34362e-05 2.95813 0 3.06786L0 11.5862C0.000327461 11.6959 0.0440285 11.8009 0.121559 11.8784C0.199089 11.956 0.304149 11.9997 0.413793 12H8.68966C8.7994 12 8.90465 11.9564 8.98225 11.8788C9.05985 11.8012 9.10345 11.696 9.10345 11.5862V0.413793Z" fill="#F9EAB0"/>
<path d="M7.65585 4.34495H1.24205C1.18718 4.34495 1.13456 4.32315 1.09575 4.28435C1.05695 4.24555 1.03516 4.19292 1.03516 4.13805C1.03516 4.08318 1.05695 4.03055 1.09575 3.99175C1.13456 3.95295 1.18718 3.93115 1.24205 3.93115H7.65585C7.71072 3.93115 7.76334 3.95295 7.80214 3.99175C7.84094 4.03055 7.86274 4.08318 7.86274 4.13805C7.86274 4.19292 7.84094 4.24555 7.80214 4.28435C7.76334 4.32315 7.71072 4.34495 7.65585 4.34495ZM6.15998 5.37943H1.24205C1.18718 5.37943 1.13456 5.35763 1.09575 5.31883C1.05695 5.28003 1.03516 5.2274 1.03516 5.17253C1.03516 5.11766 1.05695 5.06503 1.09575 5.02623C1.13456 4.98743 1.18718 4.96564 1.24205 4.96564H6.15998C6.21486 4.96564 6.26748 4.98743 6.30628 5.02623C6.34508 5.06503 6.36688 5.11766 6.36688 5.17253C6.36688 5.2274 6.34508 5.28003 6.30628 5.31883C6.26748 5.35763 6.21486 5.37943 6.15998 5.37943ZM4.66205 6.41391H1.24205C1.18718 6.41391 1.13456 6.39211 1.09575 6.35331C1.05695 6.31451 1.03516 6.26189 1.03516 6.20701C1.03516 6.15214 1.05695 6.09952 1.09575 6.06072C1.13456 6.02192 1.18718 6.00012 1.24205 6.00012H4.66205C4.71693 6.00012 4.76955 6.02192 4.80835 6.06072C4.84715 6.09952 4.86895 6.15214 4.86895 6.20701C4.86895 6.26189 4.84715 6.31451 4.80835 6.35331C4.76955 6.39211 4.71693 6.41391 4.66205 6.41391ZM2.79791 8.27598H1.24205C1.18718 8.27598 1.13456 8.25418 1.09575 8.21538C1.05695 8.17658 1.03516 8.12396 1.03516 8.06908C1.03516 8.01421 1.05695 7.96159 1.09575 7.92279C1.13456 7.88399 1.18718 7.86219 1.24205 7.86219H2.79791C2.85279 7.86219 2.90541 7.88399 2.94421 7.92279C2.98301 7.96159 3.00481 8.01421 3.00481 8.06908C3.00481 8.12396 2.98301 8.17658 2.94421 8.21538C2.90541 8.25418 2.85279 8.27598 2.79791 8.27598ZM2.0924 9.31046H1.24205C1.18718 9.31046 1.13456 9.28867 1.09575 9.24986C1.05695 9.21106 1.03516 9.15844 1.03516 9.10357C1.03516 9.04869 1.05695 8.99607 1.09575 8.95727C1.13456 8.91847 1.18718 8.89667 1.24205 8.89667H2.0924C2.14727 8.89667 2.1999 8.91847 2.2387 8.95727C2.2775 8.99607 2.29929 9.04869 2.29929 9.10357C2.29929 9.15844 2.2775 9.21106 2.2387 9.24986C2.1999 9.28867 2.14727 9.31046 2.0924 9.31046ZM3.27791 10.3449H1.24205C1.18718 10.3449 1.13456 10.3231 1.09575 10.2843C1.05695 10.2455 1.03516 10.1929 1.03516 10.138C1.03516 10.0832 1.05695 10.0306 1.09575 9.99175C1.13456 9.95295 1.18718 9.93115 1.24205 9.93115H3.27791C3.33279 9.93115 3.38541 9.95295 3.42421 9.99175C3.46301 10.0306 3.48481 10.0832 3.48481 10.138C3.48481 10.1929 3.46301 10.2455 3.42421 10.2843C3.38541 10.3231 3.33279 10.3449 3.27791 10.3449Z" fill="#CBB292"/>
<path d="M8.0695 11.1724H7.03502C6.98015 11.1724 6.92752 11.1506 6.88872 11.1118C6.84992 11.073 6.82812 11.0204 6.82812 10.9655C6.82812 10.9106 6.84992 10.858 6.88872 10.8192C6.92752 10.7804 6.98015 10.7586 7.03502 10.7586H7.86261V9.93102C7.86261 9.87615 7.88441 9.82352 7.92321 9.78472C7.96201 9.74592 8.01463 9.72412 8.0695 9.72412C8.12438 9.72412 8.177 9.74592 8.2158 9.78472C8.2546 9.82352 8.2764 9.87615 8.2764 9.93102V10.9655C8.2764 11.0204 8.2546 11.073 8.2158 11.1118C8.177 11.1506 8.12438 11.1724 8.0695 11.1724Z" fill="white"/>
<path d="M8.0691 1.24143H6.41393C6.35906 1.24143 6.30643 1.21963 6.26763 1.18083C6.22883 1.14203 6.20703 1.08941 6.20703 1.03453C6.20703 0.979661 6.22883 0.927036 6.26763 0.888235C6.30643 0.849435 6.35906 0.827637 6.41393 0.827637H8.0691C8.12397 0.827637 8.1766 0.849435 8.2154 0.888235C8.2542 0.927036 8.276 0.979661 8.276 1.03453C8.276 1.08941 8.2542 1.14203 8.2154 1.18083C8.1766 1.21963 8.12397 1.24143 8.0691 1.24143ZM8.0691 2.06902H7.03462C6.97975 2.06902 6.92712 2.04722 6.88832 2.00842C6.84952 1.96962 6.82772 1.91699 6.82772 1.86212C6.82772 1.80725 6.84952 1.75462 6.88832 1.71582C6.92712 1.67702 6.97975 1.65522 7.03462 1.65522H8.0691C8.12397 1.65522 8.1766 1.67702 8.2154 1.71582C8.2542 1.75462 8.276 1.80725 8.276 1.86212C8.276 1.91699 8.2542 1.96962 8.2154 2.00842C8.1766 2.04722 8.12397 2.06902 8.0691 2.06902Z" fill="#CBB292"/>
<path d="M2.89837 0.0371094V2.27573C2.89837 2.44035 2.83298 2.59822 2.71658 2.71462C2.60018 2.83103 2.4423 2.89642 2.27768 2.89642H0.0390625C0.0597522 2.8509 0.0887177 2.80952 0.12389 2.77435L2.7763 0.121937C2.81148 0.0867645 2.85286 0.057799 2.89837 0.0371094Z" fill="#F3D55B"/>
<path d="M11.8922 4.67194L11.4205 3.99125C11.3268 3.85612 11.1834 3.76366 11.0216 3.73418C10.8599 3.7047 10.693 3.7406 10.5577 3.83401L9.36601 4.65746L8.51566 5.24504L4.46256 8.04829C4.45152 8.05479 4.44171 8.0632 4.43359 8.07311L5.6067 9.7676C5.61839 9.76264 5.62949 9.75639 5.6398 9.74898L9.6929 6.9476L10.5432 6.36001L11.735 5.53449C11.87 5.44084 11.9625 5.29743 11.9919 5.13573C12.0214 4.97403 11.9856 4.80723 11.8922 4.67194Z" fill="#BDC3C7"/>
<path d="M11.7322 5.5347L10.5405 6.36022L9.36328 4.65746L10.555 3.83401C10.6903 3.7406 10.8572 3.7047 11.0189 3.73418C11.1807 3.76366 11.3241 3.85612 11.4178 3.99125L11.8895 4.67194C11.9829 4.80725 12.0188 4.97409 11.9893 5.13584C11.9598 5.2976 11.8674 5.44104 11.7322 5.5347Z" fill="#FF5364"/>
<path d="M8.51562 5.25075L9.36638 4.66357L10.5422 6.36716L9.69142 6.95433L8.51562 5.25075Z" fill="#BDC3C7"/>
<path d="M9.6929 6.94788C5.38284 9.92719 5.62759 9.76167 5.6067 9.76788L4.43359 8.07339C4.45035 8.0527 4.18677 8.23891 8.51566 5.24512L9.6929 6.94788Z" fill="#3B97D3"/>
<path d="M5.60383 9.76772C5.58314 9.78035 5.63879 9.76317 4.31279 10.0863L3.67969 9.16773C4.44727 8.04159 4.40714 8.09683 4.43072 8.07324L5.60383 9.76772Z" fill="#FDD7AD"/>
<path d="M4.31505 10.0863L3.33023 10.324C3.28947 10.334 3.24664 10.3313 3.20743 10.3164C3.16822 10.3014 3.13448 10.2749 3.11069 10.2404C3.0869 10.2058 3.07418 10.1648 3.07422 10.1228C3.07426 10.0809 3.08706 10.0399 3.11092 10.0054L3.68195 9.16748L4.31505 10.0863Z" fill="#464F5D"/>
</g>
<defs>
<clipPath id="clip0_5139_6805">
<rect width="12" height="12" fill="white"/>
</clipPath>
</defs>
</svg>
